<svg xmlns="http://www.w3.org/2000/svg" viewBox="0 0 1028.54 88.99">
  <defs>
    <style>
      .cls-1 {
        fill: none;
      }

      .cls-1, .cls-2 {
        stroke: #000;
        stroke-miterlimit: 10;
        stroke-width: 4.77px;
      }

      .cls-2 {
        fill: #000;
        stroke-linecap: round;
      }
    </style>
  </defs>
  <title>Ресурс 4_1</title>
  <g id="Слой_2" data-name="Слой 2">
    <g id="Слой_1-2" data-name="Слой 1">
      <path class="cls-1" d="M564.89,2.53,555,8a1.17,1.17,0,0,0-.6,1V20a1.13,1.13,0,0,0,.6,1l9.91,5.49a1.28,1.28,0,0,0,1.2,0L576,21a1.11,1.11,0,0,0,.6-1V9a1.13,1.13,0,0,0-.6-1l-9.9-5.48a1.27,1.27,0,0,0-1.2,0"/>
      <path class="cls-1" d="M722.89,62.53,713,68a1.17,1.17,0,0,0-.6,1V80a1.13,1.13,0,0,0,.6,1l9.91,5.49a1.28,1.28,0,0,0,1.2,0L734,81a1.11,1.11,0,0,0,.6-1V69a1.13,1.13,0,0,0-.6-1l-9.9-5.48a1.27,1.27,0,0,0-1.2,0"/>
      <path class="cls-1" d="M225.89,32.53,216,38a1.17,1.17,0,0,0-.6,1V50a1.13,1.13,0,0,0,.6,1l9.91,5.49a1.28,1.28,0,0,0,1.2,0L237,51a1.11,1.11,0,0,0,.6-1V39a1.13,1.13,0,0,0-.6-1l-9.9-5.48a1.28,1.28,0,0,0-1.2,0"/>
      <line class="cls-2" x1="528.87" y1="14.5" x2="453.38" y2="14.5"/>
      <line class="cls-2" x1="184.87" y1="44.5" x2="109.38" y2="44.5"/>
      <line class="cls-2" x1="77.87" y1="44.5" x2="2.38" y2="44.5"/>
      <line class="cls-2" x1="831.08" y1="14.5" x2="695.27" y2="14.5"/>
      <line class="cls-2" x1="667.71" y1="14.5" x2="602.28" y2="14.5"/>
      <line class="cls-2" x1="533.16" y1="44.5" x2="262.28" y2="44.5"/>
      <line class="cls-2" x1="695.16" y1="74.5" x2="424.28" y2="74.5"/>
      <line class="cls-2" x1="1026.16" y1="74.5" x2="755.28" y2="74.5"/>
    </g>
  </g>
</svg>
