<svg xmlns="http://www.w3.org/2000/svg" viewBox="0 0 1213.27 443.86">
  <defs>
    <style>
      .cls-1, .cls-2 {
        fill: none;
      }

      .cls-1, .cls-2, .cls-5, .cls-6 {
        stroke: #000;
      }

      .cls-1, .cls-2, .cls-3, .cls-5, .cls-6 {
        stroke-miterlimit: 10;
      }

      .cls-1, .cls-6 {
        stroke-width: 4.25px;
      }

      .cls-2, .cls-3, .cls-5 {
        stroke-width: 4.77px;
      }

      .cls-3, .cls-4 {
        fill: #4caf50;
      }

      .cls-3 {
        stroke: #4caf50;
      }

      .cls-5, .cls-6 {
        fill: #fff;
        stroke-linecap: round;
      }
    </style>
  </defs>
  <title>Ресурс 1ninja_start</title>
  <g id="Слой_2" data-name="Слой 2">
    <g id="Слой_1-2" data-name="Слой 1">
      <path class="cls-1" d="M197.89,239.94l-8.83,4.89a1,1,0,0,0-.53.89v9.78a1,1,0,0,0,.53.88l8.83,4.9a1.19,1.19,0,0,0,1.07,0l8.83-4.9a1,1,0,0,0,.54-.88v-9.78a1,1,0,0,0-.54-.89L199,239.94a1.07,1.07,0,0,0-.53-.13,1.13,1.13,0,0,0-.54.13"/>
      <path class="cls-2" d="M216.35,162.72l-9.91,5.48a1.17,1.17,0,0,0-.6,1v11a1.13,1.13,0,0,0,.6,1l9.91,5.49a1.27,1.27,0,0,0,1.2,0l9.91-5.49a1.16,1.16,0,0,0,.6-1v-11a1.17,1.17,0,0,0-.6-1l-9.91-5.48a1.27,1.27,0,0,0-1.2,0"/>
      <path class="cls-2" d="M205.24,2.53,195.34,8a1.15,1.15,0,0,0-.6,1V20a1.13,1.13,0,0,0,.6,1l9.9,5.49a1.27,1.27,0,0,0,1.2,0L216.35,21a1.15,1.15,0,0,0,.6-1V9a1.17,1.17,0,0,0-.6-1l-9.91-5.48a1.21,1.21,0,0,0-.6-.15,1.27,1.27,0,0,0-.6.15"/>
      <path class="cls-2" d="M157.44,402.59l-9.91,5.48a1.17,1.17,0,0,0-.6,1v11a1.13,1.13,0,0,0,.6,1l9.91,5.49a1.26,1.26,0,0,0,1.19,0l9.91-5.49a1.16,1.16,0,0,0,.6-1v-11a1.17,1.17,0,0,0-.6-1l-9.91-5.48a1.26,1.26,0,0,0-1.19,0"/>
      <path class="cls-2" d="M469.62,402.59l-9.91,5.48a1.17,1.17,0,0,0-.6,1v11a1.13,1.13,0,0,0,.6,1l9.91,5.49a1.26,1.26,0,0,0,1.19,0l9.91-5.49a1.16,1.16,0,0,0,.6-1v-11a1.17,1.17,0,0,0-.6-1l-9.91-5.48a1.26,1.26,0,0,0-1.19,0"/>
      <path class="cls-2" d="M853.62,215.59l-9.91,5.48a1.17,1.17,0,0,0-.6,1v11a1.13,1.13,0,0,0,.6,1l9.91,5.49a1.26,1.26,0,0,0,1.19,0l9.91-5.49a1.16,1.16,0,0,0,.6-1v-11a1.17,1.17,0,0,0-.6-1l-9.91-5.48a1.26,1.26,0,0,0-1.19,0"/>
      <path class="cls-2" d="M1001.62,215.59l-9.91,5.48a1.17,1.17,0,0,0-.6,1v11a1.13,1.13,0,0,0,.6,1l9.91,5.49a1.26,1.26,0,0,0,1.19,0l9.91-5.49a1.16,1.16,0,0,0,.6-1v-11a1.17,1.17,0,0,0-.6-1l-9.91-5.48a1.26,1.26,0,0,0-1.19,0"/>
      <polygon class="cls-2" points="319.88 121.16 293.53 121.16 293.53 174.12 319.88 174.12 319.88 201.03 347.06 201.03 347.06 228.21 267.19 228.21 267.19 254.16 292.97 254.16 292.97 281.45 479.88 281.45 479.88 254.16 560.34 254.16 560.34 227.93 426.92 227.93 426.92 201.31 452.98 201.31 452.98 173.84 479.88 173.84 479.88 147.22 320.15 147.22 319.88 121.16"/>
      <polygon class="cls-2" points="480.16 93.53 453.26 93.53 453.26 121.16 425.8 121.16 425.94 93.53 399.74 93.53 399.74 121.16 372.8 121.16 372.8 93.53 293.25 94.68 293.25 68.24 320.15 68.24 320.15 40.61 346.22 40.61 346.22 14.5 426.08 14.5 426.08 40.61 452.98 40.61 452.98 67.83 480.16 67.83 480.16 93.53"/>
      <polygon class="cls-2" points="293.07 308.26 293.07 387.84 319.97 387.84 319.97 334.97 346.12 334.97 346.12 308.26 293.07 308.26"/>
      <rect class="cls-2" x="319.59" y="387.84" width="53.43" height="26.71"/>
      <polygon class="cls-2" points="346.12 334.97 346.12 360.94 560.34 360.94 560.34 334.97 480.25 334.97 480.25 307.88 374.33 307.88 374.14 334.83 346.12 334.97"/>
      <rect class="cls-2" x="239.45" y="254.16" width="26.95" height="26.95"/>
      <rect class="cls-2" x="265.93" y="281.12" width="27.14" height="27.14"/>
      <polygon class="cls-3" points="479.88 281.45 479.88 307.88 374.33 307.88 374.14 334.83 346.12 334.97 346.12 308.26 293.07 308.26 293.07 281.12 479.88 281.45"/>
      <rect class="cls-3" x="319.97" y="334.97" width="26.15" height="26.15"/>
      <polygon class="cls-3" points="291.56 121.16 264.3 121.16 264.3 94.17 372.8 93.53 372.8 121.16 398.84 121.16 398.84 93.53 426.57 93.53 426.57 121.16 452.9 121.16 452.9 93.53 480.07 93.53 480.07 147.22 318.45 147.22 318.17 121.16 291.56 121.16"/>
      <rect class="cls-4" x="239.45" y="67.83" width="27.09" height="27.09"/>
      <rect class="cls-4" x="212.27" y="40.74" width="27.09" height="27.09"/>
      <rect class="cls-4" x="212.27" y="94.92" width="27.09" height="27.09"/>
      <rect class="cls-4" x="239.36" y="121.16" width="27.18" height="27.18"/>
      <line class="cls-5" x1="319.87" y1="201.03" x2="2.38" y2="201.03"/>
      <line class="cls-5" x1="382.18" y1="14.5" x2="231.64" y2="14.5"/>
      <line class="cls-5" x1="177.3" y1="14.5" x2="102.03" y2="14.5"/>
      <line class="cls-5" x1="476.05" y1="40.69" x2="443.69" y2="40.69"/>
      <line class="cls-5" x1="522.1" y1="40.69" x2="489.73" y2="40.69"/>
      <line class="cls-5" x1="319.87" y1="174.68" x2="243.93" y2="174.68"/>
      <line class="cls-5" x1="319.87" y1="227.59" x2="101.02" y2="227.59"/>
      <line class="cls-5" x1="319.87" y1="414.55" x2="184.06" y2="414.55"/>
      <line class="cls-5" x1="437.35" y1="414.55" x2="344.06" y2="414.55"/>
      <line class="cls-5" x1="576.6" y1="414.55" x2="501.11" y2="414.55"/>
      <line class="cls-5" x1="130.5" y1="414.55" x2="65.07" y2="414.55"/>
      <line class="cls-5" x1="862.81" y1="414.55" x2="726.99" y2="414.55"/>
      <line class="cls-5" x1="1202.38" y1="441.48" x2="829.07" y2="441.48"/>
      <line class="cls-5" x1="673.43" y1="414.55" x2="608.01" y2="414.55"/>
      <line class="cls-5" x1="963.6" y1="227.55" x2="888.11" y2="227.55"/>
      <line class="cls-5" x1="1210.88" y1="262.55" x2="971.11" y2="262.55"/>
      <line class="cls-5" x1="820.88" y1="227.55" x2="550.01" y2="227.55"/>
      <line class="cls-5" x1="189.07" y1="174.68" x2="40.27" y2="174.68"/>
      <line class="cls-6" x1="174.16" y1="250.61" x2="41.51" y2="250.61"/>
    </g>
  </g>
</svg>
