<svg id="Слой_1" data-name="Слой 1" xmlns="http://www.w3.org/2000/svg" viewBox="0 0 1920 1080"><defs><style>.cls-2,.cls-3,.cls-8{fill:#00ff83}.cls-2{fill-rule:evenodd}.cls-8{font-size:20px;font-family:Stolzl-Bold,Stolzl;font-weight:700}.cls-18,.cls-8{letter-spacing:.19em}.cls-19{letter-spacing:.18em}</style></defs><path d="M21.3 866.11v-35.78l-30.98-17.9-30.99 17.9v35.78L-9.68 884l30.98-17.89zm33.99 59.75v-35.78l-30.98-17.89-30.99 17.89v35.78l30.99 17.89 30.98-17.89zM21.3 985.25v-35.78l-30.98-17.89-30.99 17.89v35.78l30.99 17.89 30.98-17.89zm0 119.15v-35.78l-30.98-17.89-30.99 17.89v35.78l30.99 17.89 30.98-17.89zm33.99-59.39v-35.78l-30.98-17.89-30.99 17.89v35.78l30.99 17.89 30.98-17.89zm34.89-178.9v-35.78l-30.99-17.9-30.98 17.9v35.78L59.19 884l30.99-17.89zm68.16 0v-35.78l-30.98-17.9-30.99 17.9v35.78L127.36 884l30.98-17.89zm33.99 59.75v-35.78l-30.98-17.89-30.99 17.89v35.78l30.99 17.89 30.98-17.89zm-68.34 0v-35.78l-30.98-17.89-30.99 17.89v35.78l30.99 17.89 30.98-17.89zM90 985.25v-35.78l-30.98-17.89-30.99 17.89v35.78l30.99 17.89L90 985.25zm68.34 0v-35.78l-30.98-17.89-30.99 17.89v35.78l30.99 17.89 30.98-17.89zm0 119.15v-35.78l-30.98-17.89-30.99 17.89v35.78l30.99 17.89 30.98-17.89zm-34.35-59.39v-35.78l-30.98-17.89-30.99 17.89v35.78l30.99 17.89 30.98-17.89zm68.34 0v-35.78l-30.98-17.89-30.99 17.89v35.78l30.99 17.89 30.98-17.89zM90 1104.4v-35.78l-30.98-17.89-30.99 17.89v35.78l30.99 17.89L90 1104.4zm205-238.29v-35.78l-30.98-17.9-30.99 17.9v35.78L264.02 884 295 866.11zm-68.16 0v-35.78l-30.98-17.9-30.99 17.9v35.78L195.86 884l30.98-17.89zm136.33 0v-35.78l-30.99-17.9-30.99 17.9v35.78L332.18 884l30.99-17.89zM329 925.86v-35.78l-30.99-17.89-30.99 17.89v35.78l30.99 17.89L329 925.86zm-68.35 0v-35.78l-30.98-17.89-30.99 17.89v35.78l30.99 17.89 30.98-17.89zm170.68-59.75v-35.78l-30.99-17.9-30.99 17.9v35.78L400.34 884l30.99-17.89zm33.99 59.75v-35.78l-30.99-17.89-30.99 17.89v35.78l30.99 17.89 30.99-17.89zm-68.34 0v-35.78l-30.99-17.89L335 890.08v35.78l30.99 17.89 30.99-17.89zM295 985.25v-35.78l-30.98-17.89-30.99 17.89v35.78l30.99 17.89L295 985.25zm67.99 0v-35.78L332 931.58l-30.99 17.89v35.78l30.99 17.89 30.99-17.89zm68.34 0v-35.78l-30.99-17.89-30.99 17.89v35.78l30.99 17.89 30.99-17.89zm0 119.15v-35.78l-30.99-17.89-30.99 17.89v35.78l30.99 17.89 30.99-17.89zm-34.35-59.39v-35.78l-30.99-17.89-30.99 17.89v35.78l30.99 17.89 30.99-17.89zm68.34 0v-35.78l-30.99-17.89-30.99 17.89v35.78l30.99 17.89 30.99-17.89zm-136.68 0v-35.78l-30.99-17.89-30.99 17.89v35.78l30.99 17.89 30.99-17.89zm34.35 59.39v-35.78L332 1050.73l-30.99 17.89v35.78l30.99 17.89 30.99-17.89zM226.84 985.25v-35.78l-30.98-17.89-30.99 17.89v35.78l30.99 17.89 30.98-17.89zm33.99 59.76v-35.78l-30.98-17.89-30.99 17.89v35.78l30.99 17.89 30.98-17.89zm-33.99 59.39v-35.78l-30.98-17.89-30.99 17.89v35.78l30.99 17.89 30.98-17.89zm67.98 0v-35.78l-30.98-17.89-30.99 17.89v35.78l30.99 17.89 30.98-17.89zM500.2 866.11v-35.78l-30.98-17.9-30.99 17.9v35.78L469.22 884l30.98-17.89zm68.16 0v-35.78l-30.98-17.9-30.99 17.9v35.78L537.38 884l30.98-17.89zm34 59.75v-35.78l-30.99-17.89-30.99 17.89v35.78l30.99 17.89 30.99-17.89zm-68.35 0v-35.78l-30.98-17.89-30.99 17.89v35.78l30.99 17.89 30.98-17.89zm-33.99 59.39v-35.78l-30.98-17.89-30.99 17.89v35.78l30.99 17.89 30.98-17.89zm68.34 0v-35.78l-30.98-17.89-30.99 17.89v35.78l30.99 17.89 30.98-17.89zm0 119.15v-35.78l-30.98-17.89-30.99 17.89v35.78l30.99 17.89 30.98-17.89zm-34.35-59.39v-35.78l-30.98-17.89-30.99 17.89v35.78l30.99 17.89 30.98-17.89zm68.35 0v-35.78l-30.99-17.89-30.99 17.89v35.78l30.99 17.89 30.99-17.89zm-102.34 59.39v-35.78l-30.98-17.89-30.99 17.89v35.78l30.99 17.89 30.98-17.89zm136.76-238.29v-35.78l-30.99-17.9-30.99 17.9v35.78L605.79 884l30.99-17.89zm68.16 0v-35.78l-30.99-17.9-30.98 17.9v35.78L673.95 884l30.99-17.89zm33.99 59.75v-35.78l-30.99-17.89-30.98 17.89v35.78l30.98 17.89 30.99-17.89zm-68.34 0v-35.78l-30.99-17.89-30.98 17.89v35.78l30.98 17.89 30.99-17.89zm-33.99 59.39v-35.78l-30.99-17.89-30.98 17.89v35.78l30.98 17.89 30.99-17.89zm68.34 0v-35.78l-30.99-17.89-30.98 17.89v35.78l30.98 17.89 30.99-17.89zm0 119.15v-35.78l-30.99-17.89-30.98 17.89v35.78l30.98 17.89 30.99-17.89zm-34.35-59.39v-35.78l-30.99-17.89-30.98 17.89v35.78l30.98 17.89 30.99-17.89zm68.34 0v-35.78l-30.99-17.89-30.98 17.89v35.78l30.98 17.89 30.99-17.89zM636.6 1104.4v-35.78l-30.99-17.89-30.98 17.89v35.78l30.98 17.89 30.99-17.89zm205.28-238.29v-35.78l-30.99-17.9-30.99 17.9v35.78L810.89 884l30.99-17.89zm-68.16 0v-35.78l-30.99-17.9-30.99 17.9v35.78L742.73 884l30.99-17.89zm136.32 0v-35.78l-30.99-17.9-30.98 17.9v35.78L879.05 884l30.99-17.89zm-34.17 59.75v-35.78l-30.99-17.89-30.99 17.89v35.78l30.99 17.89 30.99-17.89zm-68.34 0v-35.78l-30.99-17.89-30.99 17.89v35.78l30.99 17.89 30.99-17.89zm170.67-59.75v-35.78l-30.99-17.9-30.98 17.9v35.78L947.21 884l30.99-17.89zm33.99 59.75v-35.78l-30.99-17.89-30.98 17.89v35.78l30.98 17.89 30.99-17.89zm-68.34 0v-35.78l-30.99-17.89-30.98 17.89v35.78l30.98 17.89 30.99-17.89zm-101.97 59.39v-35.78l-30.99-17.89-30.99 17.89v35.78l30.99 17.89 30.99-17.89zm67.98 0v-35.78l-30.99-17.89-30.98 17.89v35.78l30.98 17.89 30.99-17.89zm68.34 0v-35.78l-30.99-17.89-30.98 17.89v35.78l30.98 17.89 30.99-17.89zm0 119.15v-35.78l-30.99-17.89-30.98 17.89v35.78l30.98 17.89 30.99-17.89zm-34.35-59.39v-35.78l-30.99-17.89-30.98 17.89v35.78l30.98 17.89 30.99-17.89zm68.34 0v-35.78l-30.99-17.89-30.98 17.89v35.78l30.98 17.89 30.99-17.89zm-136.68 0v-35.78l-30.99-17.89-30.98 17.89v35.78l30.98 17.89 30.99-17.89zm34.35 59.39v-35.78l-30.99-17.89-30.98 17.89v35.78l30.98 17.89 30.99-17.89zM773.72 985.25v-35.78l-30.99-17.89-30.99 17.89v35.78l30.99 17.89 30.99-17.89zm33.99 59.76v-35.78l-30.99-17.89-30.99 17.89v35.78l30.99 17.89 30.99-17.89zm-33.99 59.39v-35.78l-30.99-17.89-30.99 17.89v35.78l30.99 17.89 30.99-17.89zm67.98 0v-35.78l-30.99-17.89-30.99 17.89v35.78l30.99 17.89 30.99-17.89zm205.38-238.29v-35.78l-30.99-17.9-30.99 17.9v35.78l30.99 17.89 30.99-17.89zm68.16 0v-35.78l-30.99-17.9-30.99 17.9v35.78l30.99 17.89 30.99-17.89zm33.99 59.75v-35.78l-30.99-17.89-30.98 17.89v35.78l30.98 17.89 30.99-17.89zm-68.34 0v-35.78l-30.99-17.89-30.99 17.89v35.78l30.99 17.89 30.99-17.89zm-33.99 59.39v-35.78l-30.99-17.89-30.99 17.89v35.78l30.99 17.89 30.99-17.89zm68.34 0v-35.78l-30.99-17.89-30.99 17.89v35.78l30.99 17.89 30.99-17.89zm0 119.15v-35.78l-30.99-17.89-30.99 17.89v35.78l30.99 17.89 30.99-17.89zm-34.35-59.39v-35.78l-30.99-17.89-30.99 17.89v35.78l30.99 17.89 30.99-17.89zm68.34 0v-35.78l-30.99-17.89-30.98 17.89v35.78l30.98 17.89 30.99-17.89zm-102.33 59.39v-35.78l-30.99-17.89-30.99 17.89v35.78l30.99 17.89 30.99-17.89zm205-238.29v-35.78l-30.99-17.9-30.98 17.9v35.78l30.98 17.89 30.99-17.89zm-68.16 0v-35.78l-30.99-17.9-30.98 17.9v35.78l30.98 17.89 30.99-17.89zm136.32 0v-35.78l-30.99-17.9-30.98 17.9v35.78l30.98 17.89 30.99-17.89zm-34.17 59.75v-35.78l-30.99-17.89-30.98 17.89v35.78l30.98 17.89 30.99-17.89zm-68.34 0v-35.78l-30.99-17.89-30.98 17.89v35.78l30.98 17.89 30.99-17.89zm170.67-59.75v-35.78l-30.99-17.9-30.98 17.9v35.78l30.98 17.89 30.99-17.89zm33.99 59.75v-35.78l-30.98-17.89-30.99 17.89v35.78l30.99 17.89 30.98-17.89zm-68.34 0v-35.78l-30.98-17.89-30.99 17.89v35.78l30.99 17.89 30.98-17.89zm-101.97 59.39v-35.78l-30.99-17.89-30.98 17.89v35.78l30.98 17.89 30.99-17.89zm67.98 0v-35.78l-30.99-17.89-30.98 17.89v35.78l30.98 17.89 30.99-17.89zm68.34 0v-35.78l-30.99-17.89-30.98 17.89v35.78l30.98 17.89 30.99-17.89zm0 119.15v-35.78l-30.99-17.89-30.98 17.89v35.78l30.98 17.89 30.99-17.89zm-34.35-59.39v-35.78l-30.98-17.89-30.99 17.89v35.78l30.99 17.89 30.98-17.89zm68.34 0v-35.78l-30.98-17.89-30.99 17.89v35.78l30.99 17.89 30.98-17.89zm-136.68 0v-35.78l-30.98-17.89-30.99 17.89v35.78l30.99 17.89 30.98-17.89zm34.35 59.39v-35.78l-30.99-17.89-30.98 17.89v35.78l30.98 17.89 30.99-17.89zm-136.14-119.15v-35.78l-30.99-17.89-30.98 17.89v35.78l30.98 17.89 30.99-17.89zm33.99 59.76v-35.78l-30.99-17.89-30.98 17.89v35.78l30.98 17.89 30.99-17.89zm-33.99 59.39v-35.78l-30.99-17.89-30.98 17.89v35.78l30.98 17.89 30.99-17.89zm67.98 0v-35.78l-30.99-17.89-30.98 17.89v35.78l30.98 17.89 30.99-17.89zm205.38-238.29v-35.78l-30.99-17.9-30.98 17.9v35.78l30.98 17.89 30.99-17.89zm68.16 0v-35.78l-30.99-17.9-30.98 17.9v35.78l30.98 17.89 30.99-17.89zm33.99 59.75v-35.78l-30.98-17.89-30.99 17.89v35.78l30.99 17.89 30.98-17.89zm-68.34 0v-35.78l-30.99-17.89-30.98 17.89v35.78l30.98 17.89 30.99-17.89zm-33.99 59.39v-35.78l-30.99-17.89-30.98 17.89v35.78l30.98 17.89 30.99-17.89zm68.34 0v-35.78l-30.99-17.89-30.98 17.89v35.78l30.98 17.89 30.99-17.89zm0 119.15v-35.78l-30.99-17.89-30.98 17.89v35.78l30.98 17.89 30.99-17.89zm-34.35-59.39v-35.78l-30.99-17.89-30.98 17.89v35.78l30.98 17.89 30.99-17.89zm68.34 0v-35.78l-30.98-17.89-30.99 17.89v35.78l30.99 17.89 30.98-17.89zm-102.33 59.39v-35.78l-30.99-17.89-30.98 17.89v35.78l30.98 17.89 30.99-17.89zm136.75-238.29v-35.78l-30.98-17.9-30.99 17.9v35.78l30.99 17.89 30.98-17.89zm68.16 0v-35.78l-30.98-17.9-30.99 17.9v35.78l30.99 17.89 30.98-17.89zm34 59.75v-35.78l-30.99-17.89-30.99 17.89v35.78l30.99 17.89 30.99-17.89zm-68.35 0v-35.78l-30.98-17.89-30.99 17.89v35.78l30.99 17.89 30.98-17.89zm-33.99 59.39v-35.78l-30.98-17.89-30.99 17.89v35.78l30.99 17.89 30.98-17.89zm68.34 0v-35.78l-30.98-17.89-30.99 17.89v35.78l30.99 17.89 30.98-17.89zm0 119.15v-35.78l-30.98-17.89-30.99 17.89v35.78l30.99 17.89 30.98-17.89zm-34.35-59.39v-35.78l-30.98-17.89-30.99 17.89v35.78l30.99 17.89 30.98-17.89zm68.35 0v-35.78l-30.99-17.89-30.99 17.89v35.78l30.99 17.89 30.99-17.89zm-102.34 59.39v-35.78l-30.98-17.89-30.99 17.89v35.78l30.99 17.89 30.98-17.89zm205.38-238.29v-35.78l-30.98-17.9-30.99 17.9v35.78l30.99 17.89 30.98-17.89zm-68.16 0v-35.78l-30.99-17.9-30.98 17.9v35.78l30.98 17.89 30.99-17.89zm136.32 0v-35.78l-30.98-17.9-30.99 17.9v35.78l30.99 17.89 30.98-17.89zm-34.17 59.75v-35.78l-30.98-17.89-30.99 17.89v35.78l30.99 17.89 30.98-17.89zm-68.34 0v-35.78l-30.98-17.89-30.99 17.89v35.78l30.99 17.89 30.98-17.89zm170.67-59.75v-35.78l-30.98-17.9-30.99 17.9v35.78l30.99 17.89 30.98-17.89zm34 59.75v-35.78l-30.99-17.89-30.99 17.89v35.78l30.99 17.89 30.99-17.89zm-68.34 0v-35.78l-30.99-17.89-30.99 17.89v35.78l30.99 17.89 30.99-17.89zm-101.98 59.39v-35.78l-30.98-17.89-30.99 17.89v35.78l30.99 17.89 30.98-17.89zm67.99 0v-35.78l-30.99-17.89-30.99 17.89v35.78l30.99 17.89 30.99-17.89zm68.33 0v-35.78l-30.98-17.89-30.99 17.89v35.78l30.99 17.89 30.98-17.89zm0 119.15v-35.78l-30.98-17.89-30.99 17.89v35.78l30.99 17.89 30.98-17.89zm-34.34-59.39v-35.78l-30.99-17.89-30.99 17.89v35.78l30.99 17.89 30.99-17.89zm68.34 0v-35.78l-30.99-17.89-30.99 17.89v35.78l30.99 17.89 30.99-17.89zm-136.68 0v-35.78l-30.99-17.89-30.99 17.89v35.78l30.99 17.89 30.99-17.89zm34.35 59.39v-35.78l-30.99-17.89-30.99 17.89v35.78l30.99 17.89 30.99-17.89zm-136.15-119.15v-35.78l-30.99-17.89-30.98 17.89v35.78l30.98 17.89 30.99-17.89zm33.99 59.76v-35.78l-30.98-17.89-30.99 17.89v35.78l30.99 17.89 30.98-17.89zm-33.99 59.39v-35.78l-30.99-17.89-30.98 17.89v35.78l30.98 17.89 30.99-17.89zm67.98 0v-35.78l-30.98-17.89-30.99 17.89v35.78l30.99 17.89 30.98-17.89z" fill="#97ffc8"/><path class="cls-2" d="M151.14 997h325l16-35.79-6.47-7.68-12.4 5.53-7.55 7-8.8-4.87-9.55 1.38.79-9.06-9.32 6.36-5.33 1.67 2.37-3.67h-6.87l-3.91-74.62-1.42 2v70.12l-4-1.06-5.61 4.11h-2l-1.46-7.88-3.87-2-.67 10-7 2.22V949.5l-8.45 1.36v8.84l-3.36-2.4.4-4.8-6.48-2.22v9.42H370l-1-5.7-10.38-3.73v7l-4.9 3.11-10.39-12.78-2.95-1.17 1.46 8.81-19.19 4.43.67-9.42-4.42-2.35 1.58 7.34h-12.31l-2.45-16.37 4-8.52 1.46-4.75-4.66-2.27h-3.63V916H299l-3.91 2.76-5.29 4.32-.68 1.43-9.94.31.39-12h-8.85l.4-17.78 9.36-7.45v-11.85l-2.09.84V883l-4 1.17-.67-9.56-4.15 2-.79 7.55h-4.26l.79-32.92-.75 2v52.91h-7.66l-10.63 5.57 1.47 4.34-16.86 4.4.67 4.11-4.42 2.62 1.46 6.86-9.87 4.39-5.51-5.44-7.62 6.71-7.66-6.21-3.4 9.09-2.68-1.08h-6v2.93l-19.22 2-6.75 3.5-2.45 8.59 3.57-1.23.4 4.63 2.09.33-.67 7.59c-3.21.14-16.62 6.45-16.58 10.9-3.72 7.71-3.32 15.39 4.9 16.25zM0 834l1617.33-10.57c-61.68-8.9-113.42-29.43-187.6-21.05l-8.79-.71v-20.73h-8.35v-6.86h-7.49v6.86h-3.51v7.23h-5.3v-6.87h-8.4v-3.7h-5.3v3.7h-8.37v6.05h-74.53v6.24c-43.69-4.25-95.37 1.21-123.11-4.23-18.26-5.91-32.45-1.66-37.17 5.56l-48.5-1.38.4-20.95h-7.89v-1.86h-7.08v1.86h-5.93v24h-11.64v-20.5h-5.27V773h-9.16v3.06h-6.45v14.76c-29.16-5.24-58.53-3.39-89.84-7.23v-6.84h-5.31v-3.06h-8.68v3.06h-7.83v-3.06h-7.44v3.06h-3.85v6.36c-40.43 3.6-81.09 13.84-116.27 16.64-120.89-16.63-248.08-12.65-377.54 5.91l-238-19c-28.83-12.85-59.7-10.33-88.8-9.83-7-2.32-9.91-.89-19.17-.73v-51.82h1.4v52c-42.36.28-35.41 5.12-76.51-2.82z"/><path class="cls-2" d="M1865.53 947.26l-16.69 10.24v48.23l-225.33 6.37-52.51-44.62-90.56.51-46.5-30.12-118.52.92v-21.06h5.58v-10.8l-.27-.59-6.44-6.27h-6.7l-7.54 6.27v11.39h5.09v22.36l-38.16.7V918h5.52v-10.33l-.13 1.59-6.64-7.46h-6.7l-7.54 7.46V918h5.09v23.29l-31.36.08-.75-12.79.38-24.76-29.85 1.64-9-399.64 10.24-9.73h54v-3.59h-52.16l.91-3.13v-27.91l-7.37-.41.3-55h-13.11v-6.66h-10.92c-4.31-7-14.75-16-27.37-16.27v-6.71c2-1.24 2.23-5.78 2.23-4.6 0-6.63-2.27-4.6-5.31-7.71V313h-3v51.13c-3 3.11-5.31 1.08-5.31 7.71 0-1.18 1.49 3.36 1.49 4.6v6.71c-11.86.23-22.32 9.24-26.67 16.27h-12v6.66h-13.82v86.42h-57.8v3.59h55.49l10.06 9.73-1.27 400c-17.2-3.21-5.15 10.75-8 11.94-10.49 4.46-16.21 12.51-28.19 16.4v-60.91h-2.26v59.59c-2.34-.3-2.69.35-5.51-.51V796.62h-2.61v134.22c-1.41 1.53-3.08-.3-4.19-.94-7.58-2.65-17.53-6.35-25.35-11.59-1.62-2.91.11-6.8-1.55-7.68l-5.91-1.94-4.83 8.57c-6.69-4.08-14.62-7.56-20.44-2.87-9.9 4.56-20.67 2-28.84 10.79-6.54 5-11 16.73-18.34 20.58v14.06l2.38 5v14.27L928 981v11.72l-21.75 3.34-.17 44.78c87.92 8 332.21-1.13 626.13-5.65 102.07-.49 242-2 388.06-2.35v-81.5l-54.76-4.07zM1091.28 470v-8.52h7.45v-53.74h3.87v34.33h9.23v-37.95h4.86v37.95h14.21v-7.33h-4.32v-21.6h4.32V406h11.32v7.13h4.32v21.6h-4.32v7.33h13.11v-37.15h3.87v37.16h11.39v-34.33h3.81v84.76h-75.67V470zm54.52 524.88h-26.22V977h26.22v17.89zm38.72 0h-31.28V977h31.28v17.89zm35.46 0h-26.37V977H1220v17.89zm64.94 7.23h-11.61v-28.74h11.61v28.72zm89 1.29h-7.45v-9.2h7.45v9.2zm0-12.21h-7.45v-8.49h7.45v8.47zm0-12.33h-7.45v-5.67h7.45v5.67zm10.18 24.54h-7.45v-9.2h7.45v9.2zm0-12.21h-7.45v-8.49h7.45v8.47zm0-12.33h-7.45v-5.67h7.45z"/><path class="cls-3" d="M133.91 563.81l-.12-22H119v7.09l-.19.06-1.88-2.56-1.84 2.55-.18-.05v-7.1h-.15a2 2 0 0 0-1.34.55 2 2 0 0 0-.55 1.34v22.49a1.58 1.58 0 0 0 0 .32 2 2 0 0 0 .09.33 2.52 2.52 0 0 0 1.11 1.23 3.62 3.62 0 0 0 1.86.48h17.78l-.78-.89c-.63-.71-1-1.08-1-1.48s.33-.8 1-1.59c.2-.21.42-.46.68-.76zm.09-22.11l.13 22.32h-.3l-.66.72c-.68.75-1 1.1-1 1.45s.32.67.91 1.35c.26.29.57.64.91 1.06l.15.17h-18.21a4 4 0 0 1-2-.5 2.73 2.73 0 0 1-1.2-1.35 2.07 2.07 0 0 1-.1-.33 2.1 2.1 0 0 1 0-.36v-22.49a2.16 2.16 0 0 1 .61-1.48 2.12 2.12 0 0 1 1.49-.61h.36v7l1.81-2.65 1.86 2.53v-7H134zm-19.2 15.62a.37.37 0 0 1-.25-.1.37.37 0 0 1 0-.48.37.37 0 0 1 .25-.1h17a.31.31 0 0 1 .23.1.3.3 0 0 1 0 .48.31.31 0 0 1-.23.1zm-.1-.25a.13.13 0 0 0 .1 0h17a.13.13 0 0 0 .1 0 .19.19 0 0 0 0-.09.25.25 0 0 0 0-.09.13.13 0 0 0-.1 0h-17a.13.13 0 0 0-.1 0 .14.14 0 0 0 0 .09.12.12 0 0 0 0 .09zm.1-5.34a.33.33 0 0 1-.25-.1.32.32 0 0 1-.09-.24.34.34 0 0 1 .09-.24.37.37 0 0 1 .25-.1h17a.29.29 0 0 1 .23.1.33.33 0 0 1 .12.24.31.31 0 0 1-.12.24.28.28 0 0 1-.23.1zm-.1-.24a.17.17 0 0 0 .1 0h17a.17.17 0 0 0 .1 0v-.1a.25.25 0 0 0 0-.09.18.18 0 0 0-.1 0h-17a.18.18 0 0 0-.1 0 .14.14 0 0 0 0 .09.19.19 0 0 0 0 .1z"/><circle class="cls-3" cx="123.88" cy="612.42" r="5.89"/><path class="cls-3" d="M135.54 623.67l-4.95-4.73m-13.43-12.8l-4.95-4.73m.51 22.77l4.74-4.94m12.83-13.4l4.74-4.94m-5.77-121.2v-.46h-3a.29.29 0 0 1-.22-.09.33.33 0 0 1-.1-.24 1.89 1.89 0 0 0-.16-.79 2.1 2.1 0 0 0-.46-.68 2 2 0 0 0-.68-.46 2.26 2.26 0 0 0-.79-.15 2.37 2.37 0 0 0-.8.15 2.15 2.15 0 0 0-.68.46 1.92 1.92 0 0 0-.45.68 1.89 1.89 0 0 0-.16.79.33.33 0 0 1-.1.24.29.29 0 0 1-.22.09h-3v3.13h10.86zm.2-.13v3H118.2V479h3.32a.19.19 0 0 0 0-.1 2.27 2.27 0 0 1 .16-.86 2.4 2.4 0 0 1 .5-.75 2.34 2.34 0 0 1 1.62-.67 2.2 2.2 0 0 1 .88.18 2.13 2.13 0 0 1 .73.49 2.43 2.43 0 0 1 .51.75 2.48 2.48 0 0 1 .17.86.13.13 0 0 0 0 .1.11.11 0 0 0 .08 0h3.23v.53zm-15.58 0h3.61V482H116a1.6 1.6 0 0 0-1.13.47 1.62 1.62 0 0 0-.47 1.14v20.09a1.62 1.62 0 0 0 1.6 1.61h15.69a1.62 1.62 0 0 0 1.61-1.61v-20.09a1.62 1.62 0 0 0-.47-1.14 1.6 1.6 0 0 0-1.14-.47h-1.52v-2.4h3.62a1.59 1.59 0 0 1 1.09.45 1.53 1.53 0 0 1 .44 1.09v25a1.5 1.5 0 0 1-1.53 1.53h-19.9a1.52 1.52 0 0 1-1.09-.44 1.54 1.54 0 0 1-.45-1.09v-25a1.5 1.5 0 0 1 .45-1.08 1.53 1.53 0 0 1 1.09-.46zm3.41.2h-3.41a1.33 1.33 0 0 0-1.34 1.34v25a1.35 1.35 0 0 0 .39.95 1.37 1.37 0 0 0 .95.39h19.9a1.39 1.39 0 0 0 .95-.39 1.3 1.3 0 0 0 .39-.95v-25a1.34 1.34 0 0 0-.39-.95 1.39 1.39 0 0 0-.95-.39h-3.42v2.01h1.32a1.77 1.77 0 0 1 1.28.52 1.8 1.8 0 0 1 .53 1.28v20.12a1.79 1.79 0 0 1-.49 1.3 1.82 1.82 0 0 1-1.28.53H116a1.82 1.82 0 0 1-1.27-.53 1.79 1.79 0 0 1-.53-1.27v-20.12a1.8 1.8 0 0 1 .53-1.28 1.77 1.77 0 0 1 1.27-.52h1.33v-1.35zm3.72 7.31a.37.37 0 0 1-.24-.09.34.34 0 0 1 0-.46.32.32 0 0 1 .24-.09h10a.32.32 0 0 1 .23.09.32.32 0 0 1-.23.55zm-.1-.23a.17.17 0 0 0 .1 0h10a.13.13 0 0 0 .09-.21.15.15 0 0 0-.09 0H121a.18.18 0 0 0-.1 0 .15.15 0 0 0 0 .18zm-3 13.48a1.24 1.24 0 0 1 .47.1 1.34 1.34 0 0 1 .4.27 1.09 1.09 0 0 1 .25.4 1 1 0 0 1 .1.46 1 1 0 0 1-.1.46 1.18 1.18 0 0 1-.25.4 1 1 0 0 1-.39.26 1.22 1.22 0 0 1-.92 0 1.3 1.3 0 0 1-.66-.67 1.15 1.15 0 0 1-.1-.46 1.19 1.19 0 0 1 .1-.46 1 1 0 0 1 .27-.4 1.09 1.09 0 0 1 .39-.27 1.19 1.19 0 0 1 .46-.1zm.4.29a1.11 1.11 0 0 0-.4-.09 1 1 0 0 0-.39.09.77.77 0 0 0-.32.22.94.94 0 0 0-.23.33 1 1 0 0 0-.08.39 1 1 0 0 0 .08.39.94.94 0 0 0 .23.33 1 1 0 0 0 1.1.22 1.11 1.11 0 0 0 .32-.21 1.27 1.27 0 0 0 .22-.33 1 1 0 0 0 .07-.39 1 1 0 0 0-.07-.39 1.27 1.27 0 0 0-.22-.33.87.87 0 0 0-.33-.22zm0 .53a.62.62 0 0 0-.19-.12.54.54 0 0 0-.12-.03.5.5 0 0 0-.21.05.62.62 0 0 0-.19.12.5.5 0 0 0-.13.19.54.54 0 0 0 0 .22.46.46 0 0 0 0 .21.43.43 0 0 0 .13.19.38.38 0 0 0 .18.13.87.87 0 0 0 .22.05.79.79 0 0 0 .22-.05.52.52 0 0 0 .18-.12.53.53 0 0 0 .13-.19.66.66 0 0 0 0-.21.73.73 0 0 0 0-.22.64.64 0 0 0-.13-.19zm-.11-.3a.6.6 0 0 1 .25.16.67.67 0 0 1 .16.25.62.62 0 0 1 .06.3.65.65 0 0 1-.06.3.63.63 0 0 1-.16.24.74.74 0 0 1-.25.17.73.73 0 0 1-.58 0 .94.94 0 0 1-.25-.18.72.72 0 0 1-.23-.54.77.77 0 0 1 .06-.3.85.85 0 0 1 .17-.25.6.6 0 0 1 .25-.16.56.56 0 0 1 .29-.06.6.6 0 0 1 .3.06zm-.3-5.45a1.24 1.24 0 0 1 .47.1 1.18 1.18 0 0 1 .4.27 1.09 1.09 0 0 1 .25.38 1.14 1.14 0 0 1 .1.47 1 1 0 0 1-.1.47 1.28 1.28 0 0 1-.25.4 1.53 1.53 0 0 1-.4.26 1.07 1.07 0 0 1-.47.09 1 1 0 0 1-.46-.09 1.21 1.21 0 0 1-.39-.26 1.18 1.18 0 0 1-.27-.4 1.2 1.2 0 0 1-.1-.47 1.32 1.32 0 0 1 .1-.47 1 1 0 0 1 .27-.38 1.36 1.36 0 0 1 .38-.24 1.23 1.23 0 0 1 .46-.1zm.4.29a.93.93 0 0 0-.4-.09 1.11 1.11 0 0 0-.37.07 1 1 0 0 0-.33.23.86.86 0 0 0-.23.33.92.92 0 0 0-.08.38 1.1 1.1 0 0 0 .08.4.94.94 0 0 0 .23.33 1.21 1.21 0 0 0 .32.22 1 1 0 0 0 .39.07 1.09 1.09 0 0 0 .4-.07 1.46 1.46 0 0 0 .33-.22 1.27 1.27 0 0 0 .22-.33 1.09 1.09 0 0 0 .07-.4.92.92 0 0 0-.07-.38 1.12 1.12 0 0 0-.22-.33.87.87 0 0 0-.33-.22zm0 .52a.59.59 0 0 0-.19-.11.42.42 0 0 0-.22-.05.41.41 0 0 0-.21.05.41.41 0 0 0-.19.11.59.59 0 0 0-.17.4.62.62 0 0 0 0 .23.55.55 0 0 0 .13.18.5.5 0 0 0 .19.13.71.71 0 0 0 .21 0 .78.78 0 0 0 .22 0 .59.59 0 0 0 .19-.13.49.49 0 0 0 .13-.18.91.91 0 0 0 0-.23.71.71 0 0 0 0-.21.69.69 0 0 0-.13-.2zm-.11-.3a.92.92 0 0 1 .25.17.67.67 0 0 1 .16.25.58.58 0 0 1 .06.29.66.66 0 0 1-.06.31.63.63 0 0 1-.16.24.74.74 0 0 1-.25.17.73.73 0 0 1-.3.06.68.68 0 0 1-.29-.06.74.74 0 0 1-.25-.17.81.81 0 0 1-.17-.24.81.81 0 0 1-.06-.31.75.75 0 0 1 .23-.54.82.82 0 0 1 .53-.22.73.73 0 0 1 .3.06zm-.3-5.53a1.24 1.24 0 0 1 .47.1 1.15 1.15 0 0 1 .4.26 1.24 1.24 0 0 1 .25.39 1.1 1.1 0 0 1 .1.47 1.07 1.07 0 0 1-.1.47 1 1 0 0 1-.65.65 1.07 1.07 0 0 1-.47.1 1 1 0 0 1-.46-.1 1 1 0 0 1-.39-.25 1.18 1.18 0 0 1-.27-.4 1.24 1.24 0 0 1-.1-.47 1.19 1.19 0 0 1 .1-.46 1.09 1.09 0 0 1 .27-.4 1.17 1.17 0 0 1 .38-.24 1.23 1.23 0 0 1 .46-.1zm.4.28a.92.92 0 0 0-.4-.08.9.9 0 0 0-.37.07 1.12 1.12 0 0 0-.33.22.82.82 0 0 0-.23.32 1 1 0 0 0-.08.39 1.1 1.1 0 0 0 .08.4 1.16 1.16 0 0 0 .23.33 1 1 0 0 0 .32.22 1.23 1.23 0 0 0 .39.07 1.34 1.34 0 0 0 .4-.07 1.46 1.46 0 0 0 .33-.22 1.72 1.72 0 0 0 .22-.33 1.09 1.09 0 0 0 .07-.4 1 1 0 0 0-.07-.39 1.07 1.07 0 0 0-.22-.32 1 1 0 0 0-.33-.23zm0 .54a.5.5 0 0 0-.19-.13.78.78 0 0 0-.22 0 .52.52 0 0 0-.21 0 .55.55 0 0 0-.19.12.5.5 0 0 0-.13.19.49.49 0 0 0 0 .21.54.54 0 0 0 0 .22.59.59 0 0 0 .13.19.75.75 0 0 0 .18.13.83.83 0 0 0 .22 0 .78.78 0 0 0 .22 0 .8.8 0 0 0 .19-.13.64.64 0 0 0 .13-.19.78.78 0 0 0 0-.22.71.71 0 0 0 0-.21.64.64 0 0 0-.13-.19zm-.11-.31a.74.74 0 0 1 .25.17.6.6 0 0 1 .16.25.56.56 0 0 1 .06.29.62.62 0 0 1-.06.3.77.77 0 0 1-.71.47.56.56 0 0 1-.29-.06.6.6 0 0 1-.25-.16.74.74 0 0 1-.17-.25.77.77 0 0 1-.06-.3.68.68 0 0 1 .06-.29.74.74 0 0 1 .17-.25.82.82 0 0 1 .53-.22.73.73 0 0 1 .3.06zm2.76 11a.37.37 0 0 1-.24-.09.34.34 0 0 1 0-.46.32.32 0 0 1 .24-.09h10a.32.32 0 0 1 .23.09.32.32 0 0 1-.23.55zm-.1-.23a.17.17 0 0 0 .1 0h10a.14.14 0 0 0 .09 0 .16.16 0 0 0 0-.09.11.11 0 0 0-.12-.12H121a.17.17 0 0 0-.1 0 .14.14 0 0 0 0 .09.16.16 0 0 0 0 .09zm.1-4.7a.31.31 0 0 1-.33-.33.31.31 0 0 1 .09-.22.32.32 0 0 1 .24-.09h10a.32.32 0 0 1 .23.09.36.36 0 0 1 .09.22.37.37 0 0 1-.09.24.32.32 0 0 1-.23.09zm-.1-.23a.17.17 0 0 0 .1 0h10a.14.14 0 0 0 .09 0 .17.17 0 0 0 0-.1.11.11 0 0 0 0-.08.14.14 0 0 0-.09 0H121a.17.17 0 0 0-.1 0 .11.11 0 0 0 0 .08.17.17 0 0 0 0 .1zM121 492a.33.33 0 0 1-.24-.1.3.3 0 0 1-.09-.23.31.31 0 0 1 .09-.22.33.33 0 0 1 .24-.1h10a.33.33 0 0 1 .23.1.36.36 0 0 1 .09.22.34.34 0 0 1-.09.23.33.33 0 0 1-.23.1zm-.1-.24a.13.13 0 0 0 .1 0h10a.11.11 0 0 0 .09 0 .14.14 0 0 0 0-.09.1.1 0 0 0 0-.08.11.11 0 0 0-.09 0h-10a.13.13 0 0 0-.1 0 .1.1 0 0 0 0 .08.14.14 0 0 0 0 .09zm2.92-12.33a1 1 0 0 1 .7.3 1 1 0 0 1 .29.7.92.92 0 0 1-.29.7 1 1 0 0 1-1.7-.7 1 1 0 0 1 .3-.7 1 1 0 0 1 .7-.3zm.56.44a.77.77 0 0 0-1.12 0 .82.82 0 0 0-.24.56.76.76 0 0 0 .24.57.79.79 0 0 0 1.35-.57.77.77 0 0 0-.23-.56zm13.09-54.09h-28.12v18.08a1.25 1.25 0 0 0 .09.51 2 2 0 0 0 .3.45 1.49 1.49 0 0 0 .44.3 1.51 1.51 0 0 0 .53.09h25.4a1.36 1.36 0 0 0 .51-.09 1.54 1.54 0 0 0 .45-.3 1.68 1.68 0 0 0 .3-.45 1.45 1.45 0 0 0 .1-.51zm-6.83-7.47v3.48a.77.77 0 0 0 .07.29 1.28 1.28 0 0 0 .15.25 1.32 1.32 0 0 0 .25.16 1 1 0 0 0 .29.06.94.94 0 0 0 .3-.06 1 1 0 0 0 .24-.16.79.79 0 0 0 .17-.25.75.75 0 0 0 .06-.29v-3.48a.72.72 0 0 0-.06-.29.7.7 0 0 0-.17-.25 1 1 0 0 0-.24-.17.73.73 0 0 0-.3-.05.74.74 0 0 0-.29.05 1.38 1.38 0 0 0-.25.17 1 1 0 0 0-.15.25.73.73 0 0 0-.07.29zm-.22 2.74v-2.74a1.59 1.59 0 0 1 .06-.38 1.3 1.3 0 0 1 .23-.33 1 1 0 0 1 .32-.21.9.9 0 0 1 .37-.07 1 1 0 0 1 .38.07 1.1 1.1 0 0 1 .33.21.89.89 0 0 1 .21.33 1 1 0 0 1 .08.38v3.48a.91.91 0 0 1-.08.37.89.89 0 0 1-.21.33 1 1 0 0 1-.33.22 1.16 1.16 0 0 1-.38.06 1.1 1.1 0 0 1-.37-.06.91.91 0 0 1-.32-.22 1.3 1.3 0 0 1-.23-.33 1.43 1.43 0 0 1-.06-.37zm-14.25 0v-2.74a.73.73 0 0 0-.07-.29.82.82 0 0 0-.16-.25 1.1 1.1 0 0 0-.25-.17.66.66 0 0 0-.28-.05.65.65 0 0 0-.29.05.92.92 0 0 0-.25.17.7.7 0 0 0-.17.25.71.71 0 0 0 0 .29v3.48a.74.74 0 0 0 0 .29.79.79 0 0 0 .17.25.67.67 0 0 0 .25.16.83.83 0 0 0 .29.06.88.88 0 0 0 .28-.06 1.07 1.07 0 0 0 .25-.16 1 1 0 0 0 .16-.25.77.77 0 0 0 .07-.29zm.22-2.74v3.48a1.11 1.11 0 0 1-.07.37 1.06 1.06 0 0 1-.22.33 1.1 1.1 0 0 1-.31.22 1.21 1.21 0 0 1-.38.06 1.16 1.16 0 0 1-.38-.06 1.06 1.06 0 0 1-.33-.22 1 1 0 0 1-.21-.33.91.91 0 0 1-.08-.37v-3.48a1 1 0 0 1 .08-.38 1 1 0 0 1 .21-.33 1.24 1.24 0 0 1 .33-.21 1 1 0 0 1 .38-.07 1 1 0 0 1 .38.07 1.3 1.3 0 0 1 .31.21 1.06 1.06 0 0 1 .22.33 1.22 1.22 0 0 1 .07.38zm-7 6.79h28.12v-2.35a1.56 1.56 0 0 0-.1-.53 1.59 1.59 0 0 0-.3-.43 1.37 1.37 0 0 0-.45-.3 1.19 1.19 0 0 0-.51-.1h-3.27v.4a1.72 1.72 0 0 1-.1.55 1.65 1.65 0 0 1-.32.46 1.25 1.25 0 0 1-.47.31 1.26 1.26 0 0 1-.55.12 1.33 1.33 0 0 1-.55-.12 1.45 1.45 0 0 1-.77-.77 1.33 1.33 0 0 1-.12-.55v-.4h-13.15v.4a1.33 1.33 0 0 1-.12.55 1.2 1.2 0 0 1-.32.46 1.25 1.25 0 0 1-.45.31 1.3 1.3 0 0 1-.55.12 1.26 1.26 0 0 1-.55-.12 1.17 1.17 0 0 1-.47-.31 1.47 1.47 0 0 1-.32-.46 1.72 1.72 0 0 1-.1-.55v-.4h-3.26a1.31 1.31 0 0 0-1 .4 1.59 1.59 0 0 0-.3.43 1.34 1.34 0 0 0-.09.53zm28.23.24h-28.51v-2.59a1.5 1.5 0 0 1 .12-.6 1.44 1.44 0 0 1 .35-.53 1.75 1.75 0 0 1 .51-.34 1.56 1.56 0 0 1 .62-.13h3.48v.64a1.39 1.39 0 0 0 .09.46 2 2 0 0 0 .26.39 1.4 1.4 0 0 0 .39.26 1.29 1.29 0 0 0 .48.1 1.18 1.18 0 0 0 .45-.1 1.31 1.31 0 0 0 .4-.26 1.66 1.66 0 0 0 .26-.39 1.18 1.18 0 0 0 .09-.46v-.64h13.59v.64a1.39 1.39 0 0 0 .09.46 1.66 1.66 0 0 0 .26.39 1.4 1.4 0 0 0 .39.26 1.23 1.23 0 0 0 .46.1 1.2 1.2 0 0 0 .47-.1 1.31 1.31 0 0 0 .4-.26 2 2 0 0 0 .26-.39 1.39 1.39 0 0 0 .09-.46v-.64h3.49a1.59 1.59 0 0 1 .61.13 1.75 1.75 0 0 1 .51.34 1.58 1.58 0 0 1 .35.53 1.5 1.5 0 0 1 .12.6v2.59zm-28.35.22h28.43v18.3a1.5 1.5 0 0 1-.12.6 1.41 1.41 0 0 1-.35.51 1.49 1.49 0 0 1-.51.36 1.78 1.78 0 0 1-.61.11h-25.4a1.75 1.75 0 0 1-.62-.11 1.49 1.49 0 0 1-.51-.36 1.3 1.3 0 0 1-.35-.51 1.5 1.5 0 0 1-.12-.6v-18.3zm4.34 7.79v-3.8a.39.39 0 0 1 .1-.25.37.37 0 0 1 .24-.09h4a.33.33 0 0 1 .34.34v3.8a.31.31 0 0 1-.1.23.32.32 0 0 1-.24.11h-4a.37.37 0 0 1-.24-.09.39.39 0 0 1-.1-.25zm.23-3.8v3.8a.09.09 0 0 0 0 .08h4.14a.09.09 0 0 0 0-.08v-3.87c0-.01 0 0-.07 0h-4.07c-.01 0 0 0 0 .07zm7.26 3.8v-3.8a.36.36 0 0 1 .11-.25.36.36 0 0 1 .23-.09h4a.34.34 0 0 1 .23.09.36.36 0 0 1 .11.25v3.8a.38.38 0 0 1-.34.34h-4a.3.3 0 0 1-.23-.11.28.28 0 0 1-.11-.23zm.24-3.8v3.8a.19.19 0 0 0 0 .08.12.12 0 0 0 .08 0h4a.1.1 0 0 0 .07 0 .11.11 0 0 0 0-.08v-3.87a.09.09 0 0 0-.07 0h-4a.1.1 0 0 0-.08 0 .1.1 0 0 0 0 .07zm7.6 5.87h4a.28.28 0 0 1 .23.09.3.3 0 0 1 .09.25v3.79a.28.28 0 0 1-.09.24.33.33 0 0 1-.23.1h-4a.31.31 0 0 1-.23-.1.29.29 0 0 1-.11-.24v-3.79a.38.38 0 0 1 .09-.25.34.34 0 0 1 .25-.09zm4 .22h-4a.09.09 0 0 0-.08 0v3.87a.11.11 0 0 0 0 .08.11.11 0 0 0 .08 0h4a.07.07 0 0 0 .06 0 .09.09 0 0 0 0-.08v-3.87a.06.06 0 0 0-.06 0zm-11.51-.22h4a.27.27 0 0 1 .23.09.31.31 0 0 1 .11.25v3.79a.29.29 0 0 1-.11.24.31.31 0 0 1-.23.1h-4a.33.33 0 0 1-.23-.1.29.29 0 0 1-.11-.24v-3.79a.31.31 0 0 1 .11-.25.28.28 0 0 1 .23-.09zm4 .22h-4a.1.1 0 0 0-.08 0 .13.13 0 0 0 0 .08v3.79a.19.19 0 0 0 0 .08.13.13 0 0 0 .08 0h4a.11.11 0 0 0 .07 0 .11.11 0 0 0 0-.08v-3.87a.09.09 0 0 0-.07 0zm-11.5-.22h4a.3.3 0 0 1 .24.09.34.34 0 0 1 .1.25v3.79a.31.31 0 0 1-.1.24.35.35 0 0 1-.24.1h-4a.33.33 0 0 1-.24-.1.31.31 0 0 1-.1-.24v-3.79a.34.34 0 0 1 .1-.25.29.29 0 0 1 .24-.09zm4 .22h-4.07c-.01 0 0 0 0 .08v3.79a.09.09 0 0 0 0 .08H118a.09.09 0 0 0 0-.08v-3.87c0-.01 0 0-.07 0zm11-6.43h4a.36.36 0 0 1 .23.09.34.34 0 0 1 .09.25v3.8a.27.27 0 0 1-.09.23.3.3 0 0 1-.23.11h-4a.36.36 0 0 1-.25-.11.34.34 0 0 1-.09-.23v-3.8a.31.31 0 0 1 .34-.34zm4 .23h-4a.09.09 0 0 0-.08 0v3.87a.08.08 0 0 0 .1.1h4.06a.09.09 0 0 0 0-.08v-3.87a.06.06 0 0 0-.06 0zm310.96-171.91l-34.33-19a4.4 4.4 0 0 0-4.15 0l-34.33 19a4 4 0 0 0-2.08 3.52v37.86a4 4 0 0 0 2.08 3.52l34.33 19a4.36 4.36 0 0 0 4.15 0l15.85-8.78a2.11 2.11 0 0 0 0-3.69L391 290.22a1.88 1.88 0 0 1-1-1.62v-17.24a1.87 1.87 0 0 1 .9-1.56l15.63-8.63a2 2 0 0 1 1-.26 1.76 1.76 0 0 1 .93.26l15.64 8.66a1.75 1.75 0 0 1 .93 1.53v14.07a1.73 1.73 0 0 0 .84 1.48 1.78 1.78 0 0 0 1.69 0l16.79-9.73a3.36 3.36 0 0 0 1.66-2.92v-13.18a4.06 4.06 0 0 0-2.07-3.55zm-213.4-18.67l-34.32 19a4 4 0 0 0-2.08 3.44v38a3.94 3.94 0 0 0 2.08 3.44l34.32 19a4.5 4.5 0 0 0 4.16 0l34.32-19a4 4 0 0 0 2.08-3.44v-38a4 4 0 0 0-2.08-3.44l-34.32-19a4.42 4.42 0 0 0-4.16 0"/><path class="cls-3" d="M407.14 274l-5.22 2.89a.57.57 0 0 0-.3.53v5.8a.55.55 0 0 0 .3.52l5.22 2.9a.76.76 0 0 0 .66 0l5.22-2.9a.57.57 0 0 0 .33-.52v-5.8a.6.6 0 0 0-.33-.53L407.8 274a.6.6 0 0 0-.33-.08.7.7 0 0 0-.33.08m-46.88-75.43l-16.7-9.32a1.65 1.65 0 0 0-1.7 0 1.67 1.67 0 0 0-.84 1.45v56.36l-15.42-8.56a4.4 4.4 0 0 0-4.15 0l-34.33 19A4 4 0 0 0 285 261v38a3.94 3.94 0 0 0 2.08 3.44l34.33 19a4.54 4.54 0 0 0 4.15 0l34.33-19A4 4 0 0 0 362 299v-97.44a3.46 3.46 0 0 0-1.75-3zm-20.17 91.62l-15.61 8.63a1.91 1.91 0 0 1-1.88 0l-15.6-8.63a1.79 1.79 0 0 1-1-1.56v-17.27a1.81 1.81 0 0 1 1-1.59l15.61-8.63a1.91 1.91 0 0 1 .95-.23 2.3 2.3 0 0 1 1 .23l15.58 8.63a1.83 1.83 0 0 1 1 1.59v17.27a1.79 1.79 0 0 1-.93 1.56zm-109.6-51.33l-36.4 60.46a3.94 3.94 0 0 0 2.08 3.44l34.32 19a4.5 4.5 0 0 0 4.16 0l36.4-60.48a4 4 0 0 0-2.08-3.44l-34.32-19a4.42 4.42 0 0 0-4.16 0"/><path class="cls-3" d="M230.49 238.86l-34.32 19a4 4 0 0 0-2.08 3.44l36.4 60.48a4.5 4.5 0 0 0 4.16 0l34.32-19a4 4 0 0 0 2.08-3.44l-36.4-60.46a4.51 4.51 0 0 0-2.08-.52 4.15 4.15 0 0 0-2.08.52m288.77 6.31l-16.33 9a1.9 1.9 0 0 0-1 1.64V274a1.88 1.88 0 0 0 1 1.64l16.33 9.05a2.16 2.16 0 0 0 2 0l16.33-9.05a1.9 1.9 0 0 0 1-1.64v-18.14a1.9 1.9 0 0 0-1-1.64l-16.33-9a2.09 2.09 0 0 0-2 0"/><path class="cls-3" d="M519.26 245.19L501.94 274a1.88 1.88 0 0 0 1 1.64l16.33 9.05a2.16 2.16 0 0 0 2 0l17.32-28.78a1.9 1.9 0 0 0-1-1.64l-16.33-9a2.09 2.09 0 0 0-2 0"/><path class="cls-3" d="M519.26 245.19l-16.33 9a1.9 1.9 0 0 0-1 1.64l17.32 28.78a2.16 2.16 0 0 0 2 0l16.33-9.05a1.9 1.9 0 0 0 1-1.64l-17.32-28.76a2.11 2.11 0 0 0-1-.25 2 2 0 0 0-1 .25m118.01 16.26l-2.74 1.52a.31.31 0 0 0-.16.28v3a.3.3 0 0 0 .16.27l2.74 1.52a.36.36 0 0 0 .35 0l2.73-1.52a.29.29 0 0 0 .17-.27v-3a.3.3 0 0 0-.17-.28l-2.73-1.52a.37.37 0 0 0-.18 0 .38.38 0 0 0-.17 0"/><path class="cls-3" d="M654.91 254l-16.47-9.12a2.18 2.18 0 0 0-2 0L620 254a1.92 1.92 0 0 0-1 1.69v18.16a1.92 1.92 0 0 0 1 1.69l16.47 9.13a2.07 2.07 0 0 0 2 0l7.6-4.21a1 1 0 0 0 0-1.77l-16.52-9a.91.91 0 0 1-.46-.77v-8.28a.87.87 0 0 1 .43-.74l7.5-4.15a1 1 0 0 1 .46-.12.87.87 0 0 1 .45.12l7.5 4.16a.84.84 0 0 1 .45.73v6.75a.81.81 0 0 0 .4.71.86.86 0 0 0 .81 0l8.06-4.67a1.63 1.63 0 0 0 .8-1.4v-6.31a1.93 1.93 0 0 0-1-1.7zm198.58 7.42l-2.73 1.52a.29.29 0 0 0-.16.28v3a.29.29 0 0 0 .16.27l2.73 1.52a.36.36 0 0 0 .35 0l2.74-1.52a.31.31 0 0 0 .17-.27v-3a.32.32 0 0 0-.17-.28l-2.74-1.52a.35.35 0 0 0-.17 0 .39.39 0 0 0-.18 0"/><path class="cls-3" d="M871.13 254l-16.47-9.12a2.18 2.18 0 0 0-2 0L836.2 254a1.92 1.92 0 0 0-1 1.69v18.16a1.92 1.92 0 0 0 1 1.69l16.47 9.13a2.07 2.07 0 0 0 2 0l7.61-4.21a1 1 0 0 0 0-1.77l-16.53-9a.91.91 0 0 1-.46-.77v-8.28a.88.88 0 0 1 .44-.74l7.5-4.15a.93.93 0 0 1 .46-.12.86.86 0 0 1 .44.12l7.5 4.16a.82.82 0 0 1 .45.73v6.75a.82.82 0 0 0 .41.71.86.86 0 0 0 .81 0l8.05-4.67a1.61 1.61 0 0 0 .8-1.4v-6.31a1.93 1.93 0 0 0-1-1.7zm-159.84 7.42l-2.74 1.52a.3.3 0 0 0-.15.28v3a.29.29 0 0 0 .15.27l2.74 1.52a.36.36 0 0 0 .35 0l2.74-1.52a.31.31 0 0 0 .17-.27v-3a.32.32 0 0 0-.17-.28l-2.74-1.52a.35.35 0 0 0-.17 0 .39.39 0 0 0-.18 0"/><path class="cls-3" d="M728.93 254l-16.47-9.12a2.18 2.18 0 0 0-2 0L694 254a1.92 1.92 0 0 0-1 1.69v18.16a1.92 1.92 0 0 0 1 1.69l16.47 9.13a2.07 2.07 0 0 0 2 0l7.61-4.21a1 1 0 0 0 0-1.77l-16.53-9a.91.91 0 0 1-.46-.77v-8.28a.88.88 0 0 1 .44-.74l7.5-4.15a.93.93 0 0 1 .46-.12.86.86 0 0 1 .44.12l7.5 4.16a.82.82 0 0 1 .45.73v6.75a.84.84 0 0 0 .4.71.88.88 0 0 0 .82 0l8-4.67a1.61 1.61 0 0 0 .8-1.4v-6.31a1.93 1.93 0 0 0-1-1.7zM185 257.53l-34.32-19a4.42 4.42 0 0 0-4.16 0l-34.32 19a4 4 0 0 0-2.08 3.52v52.23a1.72 1.72 0 0 0 .85 1.48 1.7 1.7 0 0 0 1.69 0l16.79-9.76a3.37 3.37 0 0 0 1.67-2.93v-30.71a1.79 1.79 0 0 1 .9-1.56l15.63-8.63a2 2 0 0 1 1.92 0l15.63 8.63a1.87 1.87 0 0 1 .9 1.56v30.71a3.37 3.37 0 0 0 1.67 2.93l16.78 9.76a1.7 1.7 0 0 0 1.69 0 1.72 1.72 0 0 0 .85-1.48v-52.2a4 4 0 0 0-2.08-3.55zm399.59-2.72l-18-9.94a2.32 2.32 0 0 0-2.17 0l-18 9.94a2.12 2.12 0 0 0-1.09 1.84V284a.89.89 0 0 0 1.33.78l8.79-5.11a1.78 1.78 0 0 0 .87-1.53v-16.09a1 1 0 0 1 .47-.82l8.18-4.52a1.06 1.06 0 0 1 1 0l8.18 4.52a1 1 0 0 1 .47.82v16.08a1.78 1.78 0 0 0 .87 1.53l8.79 5.11a.92.92 0 0 0 .88 0 .9.9 0 0 0 .45-.78v-27.32a2.13 2.13 0 0 0-1.09-1.86zm194.8 0l-18-9.94a2.15 2.15 0 0 0-1.09-.27 2.18 2.18 0 0 0-1.09.27l-18 9.94a2.1 2.1 0 0 0-1.09 1.84V284a.91.91 0 0 0 .44.78.94.94 0 0 0 .89 0l8.78-5.11a1.76 1.76 0 0 0 .88-1.53v-16.09a.93.93 0 0 1 .47-.82l8.18-4.52a1 1 0 0 1 1 0l8.18 4.52a1 1 0 0 1 .48.82v16.08a1.78 1.78 0 0 0 .87 1.53l8.78 5.11a.94.94 0 0 0 .89 0 .91.91 0 0 0 .44-.78v-27.32a2.12 2.12 0 0 0-1.08-1.86zM465 245.69l-9.94 18a2.18 2.18 0 0 0-.27 1.09 2.15 2.15 0 0 0 .27 1.09l9.94 18a2.13 2.13 0 0 0 1.85 1.08h27.34a.91.91 0 0 0 .77-.44.89.89 0 0 0 0-.89l-5.11-8.78a1.76 1.76 0 0 0-1.53-.87h-16.05a.93.93 0 0 1-.81-.47l-4.52-8.19a1 1 0 0 1 0-1l4.52-8.18a1 1 0 0 1 .81-.47h16.08a1.76 1.76 0 0 0 1.53-.87l5.11-8.79a.89.89 0 0 0 0-.89.91.91 0 0 0-.77-.44h-27.33a2.12 2.12 0 0 0-1.86 1.09zm336 0l-10 18a2.29 2.29 0 0 0-.27 1.09 2.26 2.26 0 0 0 .27 1.09l10 18a2.1 2.1 0 0 0 1.84 1.08h27.34a.89.89 0 0 0 .77-1.33l-5.11-8.78a1.76 1.76 0 0 0-1.53-.87h-16.12a1 1 0 0 1-.82-.47l-4.52-8.19a1 1 0 0 1 0-1l4.52-8.18a1 1 0 0 1 .82-.47h16.07a1.76 1.76 0 0 0 1.53-.87l5.11-8.79a.89.89 0 0 0-.77-1.33h-27.32a2.1 2.1 0 0 0-1.86 1.09zm-197.75 38.73a.92.92 0 0 1-1 .75l-8.78-4.85a1.65 1.65 0 0 1-.89-1.42v-49.27a2.46 2.46 0 0 1 .87-2.28l17.06-9.47s1.42-.51 1.92.59v9.36a1.42 1.42 0 0 1-.93 1.39l-7.6 4.2a1.26 1.26 0 0 0-.59 1.12c-.05.81-.06 49.88-.06 49.88z"/><path class="cls-3" d="M603.26 247s.57 1.42 1.84 1.42h6.18a1.08 1.08 0 0 1 1.11 1.2v9.23s-.18.93-.93.93h-6.41a1.81 1.81 0 0 0-1.79 2h-4.83v-9.45zm63.46 37.62l8-4.69s1.34-.38 1.34-2.81V262.7a1.67 1.67 0 0 1 .73-1.61l7.37-4.07a2.84 2.84 0 0 0 1.06-2.56v-8.83a1.08 1.08 0 0 0-1.59-.49l-17.25 9.55a2.85 2.85 0 0 0-1.3 2.33v26.79a1.05 1.05 0 0 0 1.64.81z"/><text transform="translate(456.11 319.76)" font-size="31.26" font-family="Stolzl-Book,Stolzl" letter-spacing=".35em" fill="#00ff83">ODE<tspan x="100.19" y="0" letter-spacing=".36em">S</tspan><tspan x="131.48" y="0" letter-spacing=".34em">S</tspan><tspan x="162.21" y="0">A UKRAINE</tspan></text><text class="cls-8" transform="translate(182.11 436.09)">1 <tspan x="22" y="0" letter-spacing=".18em">д</tspan><tspan x="40.52" y="0">ень </tspan><tspan x="99.28" y="0" letter-spacing=".12em">к</tspan><tspan x="114.66" y="0">онференции</tspan></text><text transform="translate(1206.92 274.65)" font-size="45" letter-spacing=".19em" font-family="Stolzl-Bold,Stolzl" font-weight="700" fill="#00ff83">Sep<tspan x="114.03" y="0" letter-spacing=".16em">t</tspan><tspan x="145.12" y="0">ember 2</tspan><tspan x="396.67" y="0" letter-spacing=".11em">9</tspan><tspan x="429.61" y="0">, </tspan><tspan x="476.77" y="0" letter-spacing=".18em">2</tspan><tspan x="512.41" y="0" letter-spacing=".2em">0</tspan><tspan x="552.91" y="0">18</tspan></text><text class="cls-8" transform="translate(182.11 498.09)">2 пото<tspan x="90.52" y="0" letter-spacing=".12em">к</tspan><tspan class="cls-18" x="105.9" y="0">а </tspan><tspan class="cls-19" x="132.78" y="0">д</tspan><tspan x="151.3" y="0">окла</tspan><tspan class="cls-19" x="219.08" y="0">д</tspan><tspan x="237.6" y="0">ов</tspan></text><text class="cls-8" transform="translate(182.11 560.09)">4 формата</text><text class="cls-8" transform="translate(182.11 621.09)">О<tspan class="cls-19" x="20.04" y="0">д</tspan><tspan class="cls-18" x="38.56" y="0">есса, мор</tspan><tspan x="178.9" y="0" letter-spacing=".17em">е</tspan><tspan class="cls-18" x="195.22" y="0">, с</tspan><tspan class="cls-19" x="232.7" y="0">о</tspan><tspan x="249.42" y="0">лнце</tspan></text></svg>