<svg xmlns="http://www.w3.org/2000/svg" viewBox="0 0 77.54 82.2"><g data-name="Слой 2"><path d="M60.59 38.93a.61.61 0 0 1-.25 0V61a.87.87 0 0 1 .28 0 14.75 14.75 0 0 0 7.63-1.13A11.26 11.26 0 0 0 73.32 55a13.15 13.15 0 0 0 1.22-3.4 14.26 14.26 0 0 0 .26-3.69 12.13 12.13 0 0 0-.8-3.46 9.81 9.81 0 0 0-1.67-2.9 8.71 8.71 0 0 0-5-3 13.52 13.52 0 0 0-6.77.41zm-.28-.5h.15a14.09 14.09 0 0 1 7-.44 9.54 9.54 0 0 1 5.26 3.21 10.6 10.6 0 0 1 1.76 3.06 11.92 11.92 0 0 1 .79 3.65 13.87 13.87 0 0 1-1.51 7.37 11.57 11.57 0 0 1-5.33 5.07 14.77 14.77 0 0 1-7.9 1.17h-.16a.23.23 0 0 0-.12.12l-.48-.19v-23.3l.38.25a.28.28 0 0 0 .13 0zM1.25 73.71H67.3v3.74a3.7 3.7 0 0 1-1.1 2.65 3.65 3.65 0 0 1-2.65 1.1H4.72a3.75 3.75 0 0 1-2.65-1.1A3.8 3.8 0 0 1 1 77.45v-3.74zm65.51.53H1.54v3.21a3.2 3.2 0 0 0 .91 2.27 3.28 3.28 0 0 0 2.27 1h58.83a3.25 3.25 0 0 0 2.27-1 3.1 3.1 0 0 0 .94-2.27zm-6.42-48v11a15.17 15.17 0 0 1 7.49-.41 10.47 10.47 0 0 1 5.83 3.63 11.33 11.33 0 0 1 2 3.37 13.44 13.44 0 0 1 .88 4 15.19 15.19 0 0 1-.3 4.17 14.22 14.22 0 0 1-1.41 3.88A12.6 12.6 0 0 1 69 61.42a15.87 15.87 0 0 1-8.57 1.29h-.12v.76a10 10 0 0 1-10 10H20a12.06 12.06 0 0 1-8.5-3.56A11.9 11.9 0 0 1 8 61.33V26h52.34zm-.54 11.34V26.49H8.5v34.84A11.61 11.61 0 0 0 20 72.85h30.39a9.46 9.46 0 0 0 9.41-9.41v-1.23l.48-.16.09.1a.19.19 0 0 0 .13 0A15.66 15.66 0 0 0 68.81 61a12.48 12.48 0 0 0 5.58-5.35 14.47 14.47 0 0 0 1.32-3.72 14.39 14.39 0 0 0-.6-7.88 11.91 11.91 0 0 0-1.86-3.24 9.92 9.92 0 0 0-5.54-3.4 14.21 14.21 0 0 0-7.43.44 2.42 2.42 0 0 0-.48.25zM33.32 1.48a.78.78 0 0 1 .5-.44 1 1 0 0 1 .66 0 .88.88 0 0 1 .41.5.84.84 0 0 1 0 .66 10.37 10.37 0 0 0-1.26 6 15.36 15.36 0 0 0 1.48 4.41 13.08 13.08 0 0 1 1.42 4.22 7.13 7.13 0 0 1-1.74 4.92.76.76 0 0 1-.56.31.8.8 0 0 1-.63-.15.92.92 0 0 1-.35-.57.86.86 0 0 1 .19-.66c2.17-2.87 1.23-4.95.13-7.34a15.55 15.55 0 0 1-1.67-5 11.89 11.89 0 0 1 1.45-6.9zm.66.07c-.07 0-.16.06-.19.16a11.35 11.35 0 0 0-1.39 6.61 15.3 15.3 0 0 0 1.6 4.82c1.16 2.55 2.2 4.75-.19 7.9a.38.38 0 0 0-.06.26.25.25 0 0 0 .12.18.35.35 0 0 0 .25.1.48.48 0 0 0 .23-.13A6.52 6.52 0 0 0 36 16.92a13 13 0 0 0-1.35-4.07 13.92 13.92 0 0 1-1.55-4.56A10.68 10.68 0 0 1 34.39 2a.36.36 0 0 0 0-.25c0-.07-.07-.13-.16-.19a.36.36 0 0 0-.25 0zM23.8 1.48a.91.91 0 0 1 .51-.48.94.94 0 0 1 .66 0 .83.83 0 0 1 .44.5.85.85 0 0 1-.06.66 10.56 10.56 0 0 0-1.23 6 13.73 13.73 0 0 0 1.48 4.41 12.74 12.74 0 0 1 1.4 4.28 7.16 7.16 0 0 1-1.7 4.92.88.88 0 0 1-.6.31.81.81 0 0 1-.62-.15.87.87 0 0 1-.32-.57.84.84 0 0 1 .16-.66 5.3 5.3 0 0 0 1.32-3.81A11.19 11.19 0 0 0 24 13.36a16.58 16.58 0 0 1-1.66-5 12.12 12.12 0 0 1 1.44-6.9zm.66.07a.37.37 0 0 0-.18.16 11.35 11.35 0 0 0-1.39 6.61 15.82 15.82 0 0 0 1.61 4.82 11.66 11.66 0 0 1 1.26 3.68A6.07 6.07 0 0 1 24.31 21a.66.66 0 0 0-.07.26c0 .06.07.15.13.18a.45.45 0 0 0 .25.1.41.41 0 0 0 .22-.13 6.53 6.53 0 0 0 1.61-4.53 11.44 11.44 0 0 0-1.36-4.07 14.92 14.92 0 0 1-1.51-4.56A11.08 11.08 0 0 1 24.87 2a.23.23 0 0 0 0-.25 1 1 0 0 0-.16-.19.48.48 0 0 0-.29 0z" fill="none" stroke="#1e4920" stroke-miterlimit="10" stroke-width="2" data-name="Слой 1"/></g></svg>