<svg xmlns="http://www.w3.org/2000/svg" viewBox="0 0 475.78 98.51"><defs><style>.cls-1{fill:#fff}</style></defs><g id="Слой_2" data-name="Слой 2"><g id="Слой_1-2" data-name="Слой 1"><path class="cls-1" d="M80.85 33.47l-23 12.76a2.68 2.68 0 0 0-1.4 2.32v25.54a2.65 2.65 0 0 0 1.4 2.31l23 12.78a3.07 3.07 0 0 0 2.8 0l23-12.78a2.68 2.68 0 0 0 1.4-2.31V48.55a2.68 2.68 0 0 0-1.4-2.32l-23-12.76a3 3 0 0 0-2.8 0m118.66 22.99l-3.84 2.13a.42.42 0 0 0-.22.38v4.26a.42.42 0 0 0 .22.39l3.84 2.13a.57.57 0 0 0 .48 0l3.84-2.13a.43.43 0 0 0 .23-.39V59a.43.43 0 0 0-.23-.38L200 56.46a.48.48 0 0 0-.24-.06.5.5 0 0 0-.24.06M168 6.41L156.81.15a1.11 1.11 0 0 0-1.14 0 1.12 1.12 0 0 0-.57 1V39l-10.35-5.75a3 3 0 0 0-2.8 0L118.9 46a2.68 2.68 0 0 0-1.4 2.31v25.55a2.65 2.65 0 0 0 1.4 2.32L142 89a3.07 3.07 0 0 0 2.8 0l23-12.82a2.68 2.68 0 0 0 1.4-2.32V8.41a2.3 2.3 0 0 0-1.18-2zM154.48 68L144 73.75a1.29 1.29 0 0 1-1.26 0L132.24 68a1.19 1.19 0 0 1-.64-1V55.3a1.21 1.21 0 0 1 .64-1.06l10.49-5.8a1.21 1.21 0 0 1 .64-.15 1.43 1.43 0 0 1 .64.15l10.47 5.8a1.22 1.22 0 0 1 .64 1.06v11.6a1.2 1.2 0 0 1-.62 1z"/><path class="cls-1" d="M80.85 33.47L56.4 74.09a2.65 2.65 0 0 0 1.4 2.31l23 12.78a3.07 3.07 0 0 0 2.8 0l24.5-40.63a2.68 2.68 0 0 0-1.4-2.32l-23-12.76a3 3 0 0 0-2.8 0"/><path class="cls-1" d="M80.85 33.47l-23 12.76a2.68 2.68 0 0 0-1.4 2.32l24.4 40.63a3.07 3.07 0 0 0 2.8 0l23-12.78a2.68 2.68 0 0 0 1.4-2.31l-24.4-40.62a3.09 3.09 0 0 0-1.4-.35 2.85 2.85 0 0 0-1.4.35m296.72-.28l-4.87 2.7a.58.58 0 0 0-.3.49v5.4a.59.59 0 0 0 .3.49l4.87 2.7a.68.68 0 0 0 .59 0l4.88-2.7a.58.58 0 0 0 .29-.49v-5.4a.57.57 0 0 0-.29-.49l-4.88-2.7a.59.59 0 0 0-.29-.07.6.6 0 0 0-.3.07"/><path class="cls-1" d="M377.57 33.19l-5.17 8.59a.59.59 0 0 0 .3.49l4.87 2.7a.68.68 0 0 0 .59 0l5.17-8.59a.57.57 0 0 0-.29-.49l-4.88-2.7a.59.59 0 0 0-.29-.07.6.6 0 0 0-.3.07"/><path class="cls-1" d="M377.57 33.19l-4.87 2.7a.58.58 0 0 0-.3.49l5.17 8.62a.68.68 0 0 0 .59 0l4.88-2.7a.58.58 0 0 0 .29-.49l-5.17-8.59a.73.73 0 0 0-.29-.07.6.6 0 0 0-.3.07M224.2 46l-23-12.76a3 3 0 0 0-2.8 0L175.3 46a2.69 2.69 0 0 0-1.4 2.37v25.44a2.69 2.69 0 0 0 1.4 2.37l23 12.78a3 3 0 0 0 2.8 0l10.64-5.9a1.42 1.42 0 0 0 0-2.48L188.64 68a1.25 1.25 0 0 1-.64-1.08V55.3a1.23 1.23 0 0 1 .61-1l10.5-5.8a1.23 1.23 0 0 1 .64-.17 1.11 1.11 0 0 1 .62.17l10.51 5.81a1.19 1.19 0 0 1 .62 1v9.46a1.17 1.17 0 0 0 .57 1 1.21 1.21 0 0 0 1.14 0l11.27-6.53a2.27 2.27 0 0 0 1.12-2V48.4a2.72 2.72 0 0 0-1.4-2.4zm222.97 2l-2.43 1.35a.27.27 0 0 0-.14.24v2.7a.27.27 0 0 0 .14.25l2.43 1.35a.39.39 0 0 0 .3 0l2.43-1.35a.28.28 0 0 0 .15-.25v-2.7a.28.28 0 0 0-.15-.24L447.47 48a.33.33 0 0 0-.15 0 .4.4 0 0 0-.15 0"/><path class="cls-1" d="M462.81 41.42l-14.61-8.08a1.87 1.87 0 0 0-1.76 0l-14.61 8.08a1.72 1.72 0 0 0-.89 1.5V59a1.7 1.7 0 0 0 .89 1.5l14.61 8.1a1.83 1.83 0 0 0 1.76 0l6.8-3.71a.89.89 0 0 0 0-1.56l-14.65-8a.78.78 0 0 1-.41-.68v-7.34a.78.78 0 0 1 .38-.66l6.59-3.65a.87.87 0 0 1 .41-.11.8.8 0 0 1 .4.11l6.65 3.69a.74.74 0 0 1 .39.65v6a.74.74 0 0 0 .37.63.75.75 0 0 0 .71 0l7.16-4.19a1.46 1.46 0 0 0 .71-1.25v-5.59a1.74 1.74 0 0 0-.89-1.52zM50.3 46l-23-12.76a3 3 0 0 0-2.8 0L1.4 46A2.72 2.72 0 0 0 0 48.38v35.09a1.15 1.15 0 0 0 .57 1 1.16 1.16 0 0 0 1.14 0L13 77.9a2.25 2.25 0 0 0 1.12-2V55.3a1.18 1.18 0 0 1 .61-1l10.5-5.8a1.32 1.32 0 0 1 1.28 0L37 54.26a1.23 1.23 0 0 1 .61 1v20.68a2.25 2.25 0 0 0 1.12 2L50 84.46a1.14 1.14 0 0 0 1.71-1V48.4A2.72 2.72 0 0 0 50.3 46zm233.88 8.75a.87.87 0 0 1 .43-.72l12.5-6.86a1.57 1.57 0 0 0 .82-1.33l.22-9a.8.8 0 0 0-.38-.69.82.82 0 0 0-.79 0l-19.07 11.64a1.87 1.87 0 0 0-1 1.64"/><path class="cls-1" d="M277.14 54.64a1.87 1.87 0 0 0 .89 1.67L296.53 69a.77.77 0 0 0 .79 0 .8.8 0 0 0 .41-.67l.21-9a1.56 1.56 0 0 0-.75-1.37L285 50.51a.84.84 0 0 1-.4-.73m139.4-7.6l-15.94-8.82a1.88 1.88 0 0 0-1-.24 1.91 1.91 0 0 0-1 .24l-15.93 8.82a1.87 1.87 0 0 0-1 1.64v24.24a.79.79 0 0 0 .4.69.78.78 0 0 0 .78 0l7.79-4.53a1.58 1.58 0 0 0 .78-1.36V48.6a.8.8 0 0 1 .42-.72l7.25-4a.94.94 0 0 1 .89 0l7.26 4a.86.86 0 0 1 .42.72v14.26a1.57 1.57 0 0 0 .77 1.36l7.79 4.53a.8.8 0 0 0 .79 0 .81.81 0 0 0 .39-.69V43.83a1.87 1.87 0 0 0-1-1.65zM232.83 59.8l15.94 8.82a2.06 2.06 0 0 0 1.93 0l15.94-8.82a1.9 1.9 0 0 0 1-1.64V33.91a.79.79 0 0 0-1.18-.68l-7.79 4.53a1.58 1.58 0 0 0-.78 1.36v14.26a.83.83 0 0 1-.41.72l-7.26 4a.94.94 0 0 1-.89 0l-7.26-4a.86.86 0 0 1-.42-.72V39.12a1.57 1.57 0 0 0-.77-1.36l-7.79-4.53a.79.79 0 0 0-1.18.68v24.24a1.9 1.9 0 0 0 1 1.65z"/><path class="cls-1" d="M276.32 18.16c-.81.39-.71 1.68-.71 1.68v43.7a1.45 1.45 0 0 0 .79 1.26l7.79 4.3a.81.81 0 0 0 .93-.66V24.2a1.17 1.17 0 0 0-.32-1c-.41-.36-7.4-5.12-7.4-5.12a1.51 1.51 0 0 0-1.08.08zm32.1 50.46l7.14-4.16s1.19-.33 1.19-2.49V49.18a1.49 1.49 0 0 1 .65-1.43l6.53-3.61a2.51 2.51 0 0 0 .94-2.27V34a1 1 0 0 0-1.41-.44l-15.3 8.47a2.55 2.55 0 0 0-1.16 2.11V67.9a.93.93 0 0 0 1.42.72zm54.05-27.1l-14.77-8.18a1.93 1.93 0 0 0-1.79 0l-14.78 8.18a1.73 1.73 0 0 0-.89 1.52v16.29a1.73 1.73 0 0 0 .89 1.52L345.91 69a1.89 1.89 0 0 0 1.79 0l6.82-3.78a.9.9 0 0 0 0-1.58l-14.82-8.09a.8.8 0 0 1-.42-.69v-7.39a.81.81 0 0 1 .39-.67l6.73-3.71a.77.77 0 0 1 .41-.11.69.69 0 0 1 .4.11l6.73 3.72a.75.75 0 0 1 .4.66v21.07a.74.74 0 0 0 .37.64.76.76 0 0 0 .73 0l7.21-4.18a1.45 1.45 0 0 0 .72-1.26V43.05a1.74 1.74 0 0 0-.9-1.53z"/><path class="cls-1" d="M346.8 59.47s0 .1.46-.09 6.86-4 6.86-4a.59.59 0 0 0 .21-.4l2.57 2.09-1 4.84-.9 3.17-2.71-.5zm25.75 3.74a1.88 1.88 0 0 0 .85 1.36l8.33 4.68s1 .19 1-.72V52.45a1.53 1.53 0 0 0-.76-1.26c-.8-.54-8-5.16-8-5.16a1.16 1.16 0 0 0-1.37 1.2z"/><text transform="translate(229.87 93.01)" font-size="21" font-family="Stolzl-Book,Stolzl" letter-spacing=".45em" fill="#fff">ODE<tspan x="73.73" y="0" letter-spacing=".46em">S</tspan><tspan x="96.89" y="0" letter-spacing=".44em">S</tspan><tspan x="119.68" y="0">A </tspan><tspan x="160.4" y="0" letter-spacing=".44em">2</tspan><tspan x="182.55" y="0" letter-spacing=".46em">0</tspan><tspan x="206.53" y="0">18</tspan></text></g></g></svg>