<svg xmlns="http://www.w3.org/2000/svg" viewBox="0 0 475.78 98.51">
  <defs>
    <style>
      .cls-1, .cls-2 {
        fill: #fff;
      }

      .cls-2 {
        font-size: 21px;
        font-family: Stolzl-Book, Stolzl;
        letter-spacing: 0.45em;
      }

      .cls-3 {
        letter-spacing: 0.46em;
      }

      .cls-4 {
        letter-spacing: 0.44em;
      }

      .cls-5 {
        letter-spacing: 0.45em;
      }

      .cls-6 {
        letter-spacing: 0.44em;
      }

      .cls-7 {
        letter-spacing: 0.46em;
      }

      .cls-8 {
        letter-spacing: 0.45em;
      }
    </style>
  </defs>
  <title>Ресурс 1logo_node_white</title>
  <g id="Слой_2" data-name="Слой 2">
    <g id="Слой_1-2" data-name="Слой 1">
      <path class="cls-1" d="M80.85,33.47l-23,12.76a2.68,2.68,0,0,0-1.4,2.32V74.09a2.65,2.65,0,0,0,1.4,2.31l23,12.78a3.07,3.07,0,0,0,2.8,0l23-12.78a2.68,2.68,0,0,0,1.4-2.31V48.55a2.68,2.68,0,0,0-1.4-2.32l-23-12.76a3,3,0,0,0-2.8,0"/>
      <path class="cls-1" d="M199.51,56.46l-3.84,2.13a.42.42,0,0,0-.22.38v4.26a.42.42,0,0,0,.22.39l3.84,2.13a.57.57,0,0,0,.48,0l3.84-2.13a.43.43,0,0,0,.23-.39V59a.43.43,0,0,0-.23-.38L200,56.46a.48.48,0,0,0-.24-.06.5.5,0,0,0-.24.06"/>
      <path class="cls-1" d="M168,6.41,156.81.15a1.11,1.11,0,0,0-1.14,0,1.12,1.12,0,0,0-.57,1V39l-10.35-5.75a3,3,0,0,0-2.8,0L118.9,46a2.68,2.68,0,0,0-1.4,2.31V73.86a2.65,2.65,0,0,0,1.4,2.32L142,89a3.07,3.07,0,0,0,2.8,0L167.8,76.18a2.68,2.68,0,0,0,1.4-2.32V8.41a2.3,2.3,0,0,0-1.18-2ZM154.48,68,144,73.75a1.29,1.29,0,0,1-1.26,0L132.24,68a1.19,1.19,0,0,1-.64-1V55.3a1.21,1.21,0,0,1,.64-1.06l10.49-5.8h0a1.21,1.21,0,0,1,.64-.15,1.43,1.43,0,0,1,.64.15l10.47,5.8a1.22,1.22,0,0,1,.64,1.06V66.9a1.2,1.2,0,0,1-.62,1Z"/>
      <path class="cls-1" d="M80.85,33.47,56.4,74.09a2.65,2.65,0,0,0,1.4,2.31l23,12.78a3.07,3.07,0,0,0,2.8,0L108.1,48.55a2.68,2.68,0,0,0-1.4-2.32l-23-12.76a3,3,0,0,0-2.8,0"/>
      <path class="cls-1" d="M80.85,33.47l-23,12.76a2.68,2.68,0,0,0-1.4,2.32L80.85,89.18a3.07,3.07,0,0,0,2.8,0l23-12.78a2.68,2.68,0,0,0,1.4-2.31L83.65,33.47a3.09,3.09,0,0,0-1.4-.35,2.85,2.85,0,0,0-1.4.35"/>
      <path class="cls-1" d="M377.57,33.19l-4.87,2.7a.58.58,0,0,0-.3.49v5.4a.59.59,0,0,0,.3.49l4.87,2.7a.68.68,0,0,0,.59,0l4.88-2.7a.58.58,0,0,0,.29-.49v-5.4a.57.57,0,0,0-.29-.49l-4.88-2.7a.59.59,0,0,0-.29-.07.6.6,0,0,0-.3.07"/>
      <path class="cls-1" d="M377.57,33.19l-5.17,8.59a.59.59,0,0,0,.3.49l4.87,2.7a.68.68,0,0,0,.59,0l5.17-8.59a.57.57,0,0,0-.29-.49l-4.88-2.7a.59.59,0,0,0-.29-.07.6.6,0,0,0-.3.07"/>
      <path class="cls-1" d="M377.57,33.19l-4.87,2.7a.58.58,0,0,0-.3.49L377.57,45a.68.68,0,0,0,.59,0l4.88-2.7a.58.58,0,0,0,.29-.49l-5.17-8.59a.73.73,0,0,0-.29-.07.6.6,0,0,0-.3.07"/>
      <path class="cls-1" d="M224.2,46l-23-12.76a3,3,0,0,0-2.8,0L175.3,46a2.69,2.69,0,0,0-1.4,2.37V73.81a2.69,2.69,0,0,0,1.4,2.37l23,12.78a3,3,0,0,0,2.8,0l10.64-5.9a1.42,1.42,0,0,0,0-2.48L188.64,68a1.25,1.25,0,0,1-.64-1.08V55.3a1.23,1.23,0,0,1,.61-1l10.5-5.8a1.23,1.23,0,0,1,.64-.17,1.11,1.11,0,0,1,.62.17l10.51,5.81a1.19,1.19,0,0,1,.62,1v9.46a1.17,1.17,0,0,0,.57,1,1.21,1.21,0,0,0,1.14,0l11.27-6.53a2.27,2.27,0,0,0,1.12-2V48.4A2.72,2.72,0,0,0,224.2,46Z"/>
      <path class="cls-1" d="M447.17,48l-2.43,1.35a.27.27,0,0,0-.14.24v2.7a.27.27,0,0,0,.14.25l2.43,1.35a.39.39,0,0,0,.3,0l2.43-1.35a.28.28,0,0,0,.15-.25v-2.7a.28.28,0,0,0-.15-.24L447.47,48a.33.33,0,0,0-.15,0,.4.4,0,0,0-.15,0"/>
      <path class="cls-1" d="M462.81,41.42,448.2,33.34a1.87,1.87,0,0,0-1.76,0l-14.61,8.08a1.72,1.72,0,0,0-.89,1.5V59a1.7,1.7,0,0,0,.89,1.5l14.61,8.1a1.83,1.83,0,0,0,1.76,0L455,64.89a.89.89,0,0,0,0-1.56l-14.65-8a.78.78,0,0,1-.41-.68V47.31a.78.78,0,0,1,.38-.66L446.91,43a.87.87,0,0,1,.41-.11.8.8,0,0,1,.4.11l6.65,3.69a.74.74,0,0,1,.39.65v6a.74.74,0,0,0,.37.63.75.75,0,0,0,.71,0L463,49.78a1.46,1.46,0,0,0,.71-1.25V42.94a1.74,1.74,0,0,0-.89-1.52Z"/>
      <path class="cls-1" d="M50.3,46l-23-12.76a3,3,0,0,0-2.8,0L1.4,46A2.72,2.72,0,0,0,0,48.38V83.47a1.15,1.15,0,0,0,.57,1,1.16,1.16,0,0,0,1.14,0L13,77.9a2.25,2.25,0,0,0,1.12-2V55.3a1.18,1.18,0,0,1,.61-1l10.5-5.8a1.32,1.32,0,0,1,1.28,0L37,54.26a1.23,1.23,0,0,1,.61,1V75.94a2.25,2.25,0,0,0,1.12,2L50,84.46a1.14,1.14,0,0,0,1.71-1V48.4A2.72,2.72,0,0,0,50.3,46Z"/>
      <path class="cls-1" d="M284.18,54.75a.87.87,0,0,1,.43-.72l12.5-6.86a1.57,1.57,0,0,0,.82-1.33l.22-9a.8.8,0,0,0-.38-.69.82.82,0,0,0-.79,0L277.91,47.79a1.87,1.87,0,0,0-1,1.64h0"/>
      <path class="cls-1" d="M277.14,54.64a1.87,1.87,0,0,0,.89,1.67L296.53,69a.77.77,0,0,0,.79,0,.8.8,0,0,0,.41-.67l.21-9a1.56,1.56,0,0,0-.75-1.37L285,50.51a.84.84,0,0,1-.4-.73"/>
      <path class="cls-1" d="M424,42.18l-15.94-8.82a1.88,1.88,0,0,0-1-.24,1.91,1.91,0,0,0-1,.24l-15.93,8.82a1.87,1.87,0,0,0-1,1.64V68.06a.79.79,0,0,0,.4.69.78.78,0,0,0,.78,0l7.79-4.53a1.58,1.58,0,0,0,.78-1.36V48.6a.8.8,0,0,1,.42-.72l7.25-4a.94.94,0,0,1,.89,0l7.26,4a.86.86,0,0,1,.42.72V62.86a1.57,1.57,0,0,0,.77,1.36l7.79,4.53a.8.8,0,0,0,.79,0,.81.81,0,0,0,.39-.69V43.83a1.87,1.87,0,0,0-1-1.65Z"/>
      <path class="cls-1" d="M232.83,59.8l15.94,8.82a2.06,2.06,0,0,0,1.93,0l15.94-8.82a1.9,1.9,0,0,0,1-1.64V33.91a.79.79,0,0,0-1.18-.68l-7.79,4.53a1.58,1.58,0,0,0-.78,1.36V53.38a.83.83,0,0,1-.41.72l-7.26,4a.94.94,0,0,1-.89,0l-7.26-4a.86.86,0,0,1-.42-.72V39.12a1.57,1.57,0,0,0-.77-1.36l-7.79-4.53a.79.79,0,0,0-1.18.68V58.15a1.9,1.9,0,0,0,1,1.65Z"/>
      <path class="cls-1" d="M276.32,18.16c-.81.39-.71,1.68-.71,1.68v43.7a1.45,1.45,0,0,0,.79,1.26l7.79,4.3a.81.81,0,0,0,.93-.66s0-43.53,0-44.24a1.17,1.17,0,0,0-.32-1c-.41-.36-7.4-5.12-7.4-5.12A1.51,1.51,0,0,0,276.32,18.16Z"/>
      <path class="cls-1" d="M308.42,68.62l7.14-4.16s1.19-.33,1.19-2.49V49.18a1.49,1.49,0,0,1,.65-1.43l6.53-3.61a2.51,2.51,0,0,0,.94-2.27V34a1,1,0,0,0-1.41-.44l-15.3,8.47A2.55,2.55,0,0,0,307,44.14V67.9A.93.93,0,0,0,308.42,68.62Z"/>
      <path class="cls-1" d="M362.47,41.52,347.7,33.34a1.93,1.93,0,0,0-1.79,0l-14.78,8.18a1.73,1.73,0,0,0-.89,1.52V59.33a1.73,1.73,0,0,0,.89,1.52L345.91,69a1.89,1.89,0,0,0,1.79,0l6.82-3.78a.9.9,0,0,0,0-1.58l-14.82-8.09a.8.8,0,0,1-.42-.69V47.47a.81.81,0,0,1,.39-.67l6.73-3.71a.77.77,0,0,1,.41-.11.69.69,0,0,1,.4.11l6.73,3.72a.75.75,0,0,1,.4.66V68.54a.74.74,0,0,0,.37.64.76.76,0,0,0,.73,0L362.65,65a1.45,1.45,0,0,0,.72-1.26V43.05a1.74,1.74,0,0,0-.9-1.53Z"/>
      <path class="cls-1" d="M346.8,59.47s0,.1.46-.09,6.86-4,6.86-4a.59.59,0,0,0,.21-.4l2.57,2.09-1,4.84L355,65.08l-2.71-.5Z"/>
      <path class="cls-1" d="M372.55,63.21a1.88,1.88,0,0,0,.85,1.36l8.33,4.68s1,.19,1-.72V52.45a1.53,1.53,0,0,0-.76-1.26c-.8-.54-8-5.16-8-5.16a1.16,1.16,0,0,0-1.37,1.2Z"/>
      <text class="cls-2" transform="translate(229.87 93.01)">ODE<tspan class="cls-3" x="73.73" y="0">S</tspan><tspan class="cls-4" x="96.89" y="0">S</tspan><tspan class="cls-5" x="119.68" y="0">A </tspan><tspan class="cls-6" x="160.4" y="0">2</tspan><tspan class="cls-7" x="182.55" y="0">0</tspan><tspan class="cls-8" x="206.53" y="0">18</tspan></text>
    </g>
  </g>
</svg>
