<svg xmlns="http://www.w3.org/2000/svg" viewBox="0 0 88.3 55.17">
  <defs>
    <style>
      .cls-1 {
        fill: none;
        stroke: #1e4920;
        stroke-miterlimit: 10;
        stroke-width: 2px;
      }
    </style>
  </defs>
  <title>Ресурс 8people_n</title>
  <g id="Слой_2" data-name="Слой 2">
    <g id="Слой_1-2" data-name="Слой 1">
      <path class="cls-1" d="M68.65,1a12,12,0,1,1-6.8,22,12.24,12.24,0,0,1-4.41-5.6l0-.19a11.08,11.08,0,0,0,.47-2.05A11.28,11.28,0,0,0,58,13,11,11,0,0,0,57.88,11a10.45,10.45,0,0,0-.47-2l0-.19a12.31,12.31,0,0,1,4.41-5.61A12.08,12.08,0,0,1,68.65,1Zm8.16,3.91A11.52,11.52,0,0,0,62.17,3.55a11.42,11.42,0,0,0-4.23,5.29,11.64,11.64,0,0,1,.48,2A13.2,13.2,0,0,1,58.57,13a13.45,13.45,0,0,1-.15,2.21,11.53,11.53,0,0,1-.48,2,11.37,11.37,0,0,0,4.23,5.29A11.51,11.51,0,0,0,76.81,4.91ZM44.15,1a12.05,12.05,0,0,1,12,12,12.09,12.09,0,0,1-3.53,8.54,12,12,0,0,1-17,0A12.05,12.05,0,0,1,44.15,1Zm8.13,3.91A11.52,11.52,0,1,0,55.65,13a11.46,11.46,0,0,0-3.37-8.12ZM50.67,26.83a13.76,13.76,0,0,1,8.63,4.53,13.62,13.62,0,0,1,3.5,9.1V54.17H25.54V40.46A13.58,13.58,0,0,1,29,31.36a13.76,13.76,0,0,1,8.66-4.53l.19,0c2.08,4.92,4.19,9.8,6.3,14.68l6.3-14.68Zm8.25,4.88a13.23,13.23,0,0,0-8.13-4.32L44.15,42.83,37.5,27.39A13.23,13.23,0,0,0,26.07,40.46V53.63H62.26V40.46a13.07,13.07,0,0,0-3.34-8.75ZM19.64,1a12,12,0,0,1,6.81,2.11,12.38,12.38,0,0,1,4.44,5.61v.19a10.45,10.45,0,0,0-.47,2A14.24,14.24,0,0,0,30.26,13a14.55,14.55,0,0,0,.16,2.11,11.08,11.08,0,0,0,.47,2.05v.19A12.3,12.3,0,0,1,26.45,23a12,12,0,0,1-15.31-1.41,12,12,0,0,1,0-17A11.94,11.94,0,0,1,19.64,1Zm6.49,2.55A11.5,11.5,0,0,0,8.15,13,11.51,11.51,0,0,0,19.64,24.56a11.56,11.56,0,0,0,10.71-7.31,15.05,15.05,0,0,1-.47-2A17.82,17.82,0,0,1,29.72,13a17.6,17.6,0,0,1,.16-2.17,15.2,15.2,0,0,1,.47-2,11.46,11.46,0,0,0-4.22-5.29Zm0,23.28a11.53,11.53,0,0,1,1.77.34,11.56,11.56,0,0,1,1.73.54l.41.19-.35.28a15.62,15.62,0,0,0-6,12.28V54.17H1V40.46a13.57,13.57,0,0,1,3.5-9.1,13.73,13.73,0,0,1,8.66-4.53l.19,0,6.29,14.68,6.3-14.68Zm1.64.85a11.4,11.4,0,0,0-1.48-.29L19.64,42.83,13,27.39A13.2,13.2,0,0,0,1.54,40.46V53.63h21.6V40.46a15.69,15.69,0,0,1,1.64-7.05A16,16,0,0,1,29,28.05a9.58,9.58,0,0,0-1.23-.37Zm47.4-.85a13.91,13.91,0,0,1,8.66,4.53,13.69,13.69,0,0,1,3.47,9.1V54.17H64.65V40.46a15.63,15.63,0,0,0-1.57-6.83,15.91,15.91,0,0,0-4.44-5.45l-.38-.28.44-.19a10.22,10.22,0,0,1,1.7-.54,11.53,11.53,0,0,1,1.77-.34l.18,0c2.11,4.92,4.22,9.8,6.3,14.68L75,26.79Zm8.26,4.88a13.18,13.18,0,0,0-8.13-4.32L68.65,42.83,62,27.39a11.87,11.87,0,0,0-1.51.29,8,8,0,0,0-1.2.37,16.17,16.17,0,0,1,5.86,12.41V53.63H86.76V40.46a13.11,13.11,0,0,0-3.33-8.75Z"/>
    </g>
  </g>
</svg>
