<svg xmlns="http://www.w3.org/2000/svg" viewBox="0 0 224.28 219.47"><defs><style>.cls-1{fill:none;stroke:#1e4920;stroke-linecap:round;stroke-linejoin:round;stroke-width:6px}</style></defs><g id="Слой_2" data-name="Слой 2"><g id="Слой_1-2" data-name="Слой 1"><path class="cls-1" d="M15 11l183 175s4 16.5-4.5 24-23.5 5.5-23.5 5.5l-77.5-83S74 137 70 136.5 11 77 11 77s-20.47-36.5 4-66zM7.25 68.26l10.53-9.76m2.11 27.92l10.54-9.76m4.46 24.76l10.54-9.76m2.21 21.71l10.54-9.76m4.36 24.67l10.54-9.76m19.45 13.98s15.67-5 26.84-21.73m19.91 41.98l11.75 11.5m9.75 9.75l23.5 22.75"/><path class="cls-1" d="M66.66 134.07L9.78 185.38s-6 12.86 5.75 24.37S39 214.5 39 214.5l66.2-68.4m.8-48.16l23.28-18.44s-9-13.75-7.5-23.75S188.28 3 188.28 3l33 30.25s-32 64.5-41.75 69.25-23.75-3-28.5-7L128 119m29.53-61.75l43.65-42.43m-32.85 53.23l43.65-42.43"/></g></g></svg>