<svg xmlns="http://www.w3.org/2000/svg" viewBox="0 0 75.89 66.19">
  <defs>
    <style>
      .cls-1 {
        fill: none;
        stroke: #1e491f;
        stroke-miterlimit: 10;
        stroke-width: 2px;
      }
    </style>
  </defs>
  <title>Ресурс 6badge_n</title>
  <g id="Слой_2" data-name="Слой 2">
    <g id="Слой_1-2" data-name="Слой 1">
      <path class="cls-1" d="M1.25,14.13H20.43V20h35V14.13H74.89V65.19H1V14.13Zm18.65.54H1.54v50H74.35v-50H56v5.89H19.9Zm2.67-7.21h8.7a6.7,6.7,0,0,1,13.38,0h9V18.17H22.29V7.46Zm9,.5H22.83v9.67H53.06V8H44.12V7.71a6.18,6.18,0,0,0-6.18-6.17A6,6,0,0,0,33.6,3.36a6,6,0,0,0-1.83,4.35V8ZM41.91,28.15a.88.88,0,0,1-.63-.25.9.9,0,0,1-.25-.6.85.85,0,0,1,.25-.6.9.9,0,0,1,.63-.28H67.64a.85.85,0,0,1,.6.28.77.77,0,0,1,.26.6.87.87,0,0,1-.26.6.82.82,0,0,1-.6.25Zm-.25-.63a.37.37,0,0,0,.25.09H67.64a.32.32,0,0,0,.23-.09A.29.29,0,0,0,68,27.3a.35.35,0,0,0-.09-.25c-.07,0-.13-.1-.23-.1H41.91a.63.63,0,0,0-.25.1.35.35,0,0,0-.09.25.29.29,0,0,0,.09.22Zm-34,29.83a.87.87,0,0,1-.63-.26.84.84,0,0,1-.25-.63.82.82,0,0,1,.25-.59.87.87,0,0,1,.63-.26H34.86a.88.88,0,0,1,.63.26.82.82,0,0,1,.25.59.84.84,0,0,1-.25.63.88.88,0,0,1-.63.26Zm-.25-.63a.35.35,0,0,0,.25.09H34.86a.37.37,0,0,0,.25-.09.39.39,0,0,0,.09-.26.37.37,0,0,0-.09-.22.37.37,0,0,0-.25-.09H7.68a.35.35,0,0,0-.25.09.33.33,0,0,0-.1.22.35.35,0,0,0,.1.26Zm34.48.63a.87.87,0,0,1-.88-.89.86.86,0,0,1,.25-.59.88.88,0,0,1,.63-.26H67.64a.89.89,0,0,1,.86.85.85.85,0,0,1-.26.63.83.83,0,0,1-.6.26Zm-.25-.63a.37.37,0,0,0,.25.09H67.64a.32.32,0,0,0,.23-.09.39.39,0,0,0,.09-.26.37.37,0,0,0-.09-.22.32.32,0,0,0-.23-.09H41.91a.37.37,0,0,0-.25.09.37.37,0,0,0-.09.22.39.39,0,0,0,.09.26Zm.25-9.11a.88.88,0,0,1-.63-.25.9.9,0,0,1-.25-.6.85.85,0,0,1,.88-.88H67.64a.86.86,0,0,1,.6.25.88.88,0,0,1,.26.63.87.87,0,0,1-.26.6.82.82,0,0,1-.6.25ZM41.66,47a.33.33,0,0,0,.25.1H67.64a.29.29,0,0,0,.23-.1.28.28,0,0,0,.09-.22.37.37,0,0,0-.09-.25.32.32,0,0,0-.23-.09H41.91a.31.31,0,0,0-.34.34.28.28,0,0,0,.09.22Zm.25-9.1a.88.88,0,0,1-.63-.25A.9.9,0,0,1,41,37a.92.92,0,0,1,.25-.63.88.88,0,0,1,.63-.25H67.64a.82.82,0,0,1,.6.25.88.88,0,0,1,.26.63.87.87,0,0,1-.26.6.82.82,0,0,1-.6.25Zm-.25-.63a.37.37,0,0,0,.25.1H67.64a.33.33,0,0,0,.23-.1A.28.28,0,0,0,68,37a.37.37,0,0,0-.09-.25.33.33,0,0,0-.23-.1H41.91a.37.37,0,0,0-.25.1.37.37,0,0,0-.09.25.28.28,0,0,0,.09.22ZM21.25,25.57A6.72,6.72,0,0,1,26,27.52a6.83,6.83,0,0,1,1.95,4.76,6.65,6.65,0,0,1-4.76,6.39,10.74,10.74,0,0,1,5.14,2.39,8.42,8.42,0,0,1,2.93,6.24v.47h2.39V23.14H8.84V47.77h2.4V47.3a8.31,8.31,0,0,1,3-6.24,10.43,10.43,0,0,1,5.1-2.39A6.83,6.83,0,0,1,16.5,37a6.72,6.72,0,0,1-2-4.72,6.68,6.68,0,0,1,6.71-6.71ZM25.6,27.9a6.16,6.16,0,0,0-4.35-1.8,6.13,6.13,0,0,0-6.17,6.18,6.13,6.13,0,0,0,1.79,4.34,6.3,6.3,0,0,0,4.38,1.8,6.13,6.13,0,0,0,6.14-6.14A6.26,6.26,0,0,0,25.6,27.9ZM8,21.41H34.51a.86.86,0,0,1,.6.25.88.88,0,0,1,.25.63V48.62a.88.88,0,0,1-.25.63.86.86,0,0,1-.6.25H8a.85.85,0,0,1-.88-.88V22.29A.85.85,0,0,1,8,21.41Zm26.52.53H8a.37.37,0,0,0-.25.1.37.37,0,0,0-.09.25V48.62a.35.35,0,0,0,.09.25A.33.33,0,0,0,8,49H34.51a.34.34,0,0,0,.32-.35V22.29a.33.33,0,0,0-.1-.25.36.36,0,0,0-.22-.1Zm-25.92.67H34.17v25.7H30.7v-1a7.71,7.71,0,0,0-2.77-5.83,10,10,0,0,0-6.68-2.42,10.12,10.12,0,0,0-6.71,2.42,7.81,7.81,0,0,0-2.77,5.83v1H8.31V22.61Z"/>
    </g>
  </g>
</svg>
