<svg xmlns="http://www.w3.org/2000/svg" viewBox="0 0 63.79 85.56"><g data-name="Слой 2"><path d="M46.51 9.25v-.88h0V8h-8.13a.77.77 0 0 1-.59-.25.88.88 0 0 1-.25-.63A5.33 5.33 0 0 0 37.09 5a5.59 5.59 0 0 0-1.22-1.83A5.75 5.75 0 0 0 34 2a5.79 5.79 0 0 0-4.28 0 5.54 5.54 0 0 0-1.83 1.22 5.48 5.48 0 0 0-1.64 4 .9.9 0 0 1-.28.63.81.81 0 0 1-.6.25h-8.12v.35h0v8.19h29.26zm.54-.34v8.18h-30.3V8.91h0V7.49h8.69a.24.24 0 0 0 .22-.1.38.38 0 0 0 .13-.25 6.27 6.27 0 0 1 .44-2.33 6.21 6.21 0 0 1 3.34-3.34 6.13 6.13 0 0 1 6.7 1.33 6.32 6.32 0 0 1 1.36 2 6.5 6.5 0 0 1 .47 2.33.32.32 0 0 0 .1.25.25.25 0 0 0 .21.1h8.7v1.43zM5.13 9h9.73v1.76h0v4.7h-4.1a4.3 4.3 0 0 0-4.31 4.31v54.05a4.19 4.19 0 0 0 1.26 3 4.3 4.3 0 0 0 3 1.29H53a4.27 4.27 0 0 0 3-1.29 4.2 4.2 0 0 0 1.27-3v-54A4.32 4.32 0 0 0 53 15.46h-4.09v-4.7h0V9h9.73a4.25 4.25 0 0 1 2.93 1.2 4.12 4.12 0 0 1 1.19 2.93v67.3a4.08 4.08 0 0 1-4.12 4.13H5.13A4.1 4.1 0 0 1 1 80.43v-67.3a4 4 0 0 1 1.2-2.9A4.11 4.11 0 0 1 5.13 9zm9.19.54H5.13a3.7 3.7 0 0 0-2.56 1 3.76 3.76 0 0 0-1 2.56v67.3a3.66 3.66 0 0 0 1 2.55 3.71 3.71 0 0 0 2.56 1h53.54a3.67 3.67 0 0 0 2.55-1 3.54 3.54 0 0 0 1-2.55V13.13a3.54 3.54 0 0 0-3.59-3.59h-9.2v1.76h0v3.62H53a4.85 4.85 0 0 1 4.85 4.85v54.05a4.75 4.75 0 0 1-1.42 3.4A4.84 4.84 0 0 1 53 78.67H10.79a4.84 4.84 0 0 1-3.43-1.45A4.78 4.78 0 0 1 6 73.82v-54a4.83 4.83 0 0 1 4.84-4.85h3.56V11.3h0zm10 19.65a.88.88 0 0 1-.63-.25.86.86 0 0 1-.25-.6.88.88 0 0 1 .25-.63.84.84 0 0 1 .63-.25h27a.86.86 0 0 1 .6.25.88.88 0 0 1 .25.63.86.86 0 0 1-.25.6.9.9 0 0 1-.6.25zm-.26-.63a.39.39 0 0 0 .26.09h27a.28.28 0 0 0 .22-.09.3.3 0 0 0 .1-.22.36.36 0 0 0-.1-.25.26.26 0 0 0-.22-.1h-27a.35.35 0 0 0-.26.1.35.35 0 0 0-.09.25.29.29 0 0 0 .09.22zm-8 36.28a3.49 3.49 0 0 1 1.26.25 3.57 3.57 0 0 1 1.07.73 3.51 3.51 0 0 1 .69 1.07 2.81 2.81 0 0 1 .25 1.26 2.69 2.69 0 0 1-.25 1.23 3.18 3.18 0 0 1-.69 1.07h0a2.82 2.82 0 0 1-1.06.69 3 3 0 0 1-2.46 0 3.25 3.25 0 0 1-1.07-.72 2.76 2.76 0 0 1-.73-1.07 3.33 3.33 0 0 1-.25-1.23 3.49 3.49 0 0 1 .25-1.26 2.76 2.76 0 0 1 .73-1.07 3.13 3.13 0 0 1 1.07-.73 3.33 3.33 0 0 1 1.23-.25zm1.07.76a3.05 3.05 0 0 0-1.07-.22 2.68 2.68 0 0 0-1 .22 2.34 2.34 0 0 0-.88.6 2.47 2.47 0 0 0-.6.88 2.64 2.64 0 0 0 0 2.11 2.23 2.23 0 0 0 .6.88 2.46 2.46 0 0 0 .88.6 2.79 2.79 0 0 0 3-.57h0a2.92 2.92 0 0 0 .6-.88 3 3 0 0 0 .19-1 3.21 3.21 0 0 0-.19-1.07 3.34 3.34 0 0 0-.6-.88 2.7 2.7 0 0 0-.88-.6zm0 1.45a1.54 1.54 0 0 0-.51-.35 1.82 1.82 0 0 0-.59-.12 1.75 1.75 0 0 0-.57.12 1.41 1.41 0 0 0-.5.35 1 1 0 0 0-.35.5 1.23 1.23 0 0 0-.13.6 1.11 1.11 0 0 0 .13.57 1.09 1.09 0 0 0 .35.5 1 1 0 0 0 .47.35 2.13 2.13 0 0 0 .6.12 1.82 1.82 0 0 0 .59-.12 1.68 1.68 0 0 0 .48-.32h0a1.5 1.5 0 0 0 .35-.5 1.75 1.75 0 0 0 .09-.57 1.8 1.8 0 0 0-.09-.6 1.41 1.41 0 0 0-.35-.5zm-.28-.82a1.82 1.82 0 0 1 .66.44 2 2 0 0 1 .44.66 2.1 2.1 0 0 1 0 1.61 2 2 0 0 1-.44.66h0a1.86 1.86 0 0 1-.67.44 2 2 0 0 1-1.57 0 2.63 2.63 0 0 1-.66-.47 2.4 2.4 0 0 1-.47-.66 2.1 2.1 0 0 1 0-1.61 2.4 2.4 0 0 1 .47-.66 1.82 1.82 0 0 1 .66-.44 1.63 1.63 0 0 1 .79-.16 1.79 1.79 0 0 1 .82.16zm-.82-14.65a3.49 3.49 0 0 1 1.26.25 3.09 3.09 0 0 1 1.07.73 3.37 3.37 0 0 1 .69 1 2.9 2.9 0 0 1 .25 1.26 2.81 2.81 0 0 1-.25 1.26 3.64 3.64 0 0 1-.69 1.07 3.64 3.64 0 0 1-1.07.69 2.81 2.81 0 0 1-1.26.25 2.69 2.69 0 0 1-1.23-.25 3.18 3.18 0 0 1-1.07-.69 3.09 3.09 0 0 1-.73-1.07 3.49 3.49 0 0 1-.25-1.26 3.62 3.62 0 0 1 .25-1.26 2.89 2.89 0 0 1 .73-1v-.06a3.37 3.37 0 0 1 2.27-.92zm1.07.76a2.5 2.5 0 0 0-1.07-.22 2.63 2.63 0 0 0-1 .19 2.6 2.6 0 0 0-.88.6h0a2.75 2.75 0 0 0-.82 1.92 2.47 2.47 0 0 0 .22 1.07 2.56 2.56 0 0 0 .6.88 2.92 2.92 0 0 0 .88.6 2.68 2.68 0 0 0 1 .19 3 3 0 0 0 1.07-.19 3.52 3.52 0 0 0 .88-.6 3.52 3.52 0 0 0 .6-.88 3.21 3.21 0 0 0 .19-1.07 2.87 2.87 0 0 0-.19-1 2.92 2.92 0 0 0-.6-.88 2.56 2.56 0 0 0-.88-.6zm0 1.42a1.34 1.34 0 0 0-.51-.32 1.28 1.28 0 0 0-.59-.13 1.31 1.31 0 0 0-.57.13 1.13 1.13 0 0 0-.5.32v0a1.45 1.45 0 0 0-.48 1.07 1.23 1.23 0 0 0 .13.6A1.27 1.27 0 0 0 15 56a1.41 1.41 0 0 0 .5.35 1.75 1.75 0 0 0 .57.09 1.83 1.83 0 0 0 .59-.09 1.93 1.93 0 0 0 .51-.35 1.5 1.5 0 0 0 .35-.5 1.93 1.93 0 0 0 .09-.6 1.75 1.75 0 0 0-.09-.57 1.53 1.53 0 0 0-.35-.53zm-.28-.82a2.4 2.4 0 0 1 .66.47 2 2 0 0 1 .44.66 1.75 1.75 0 0 1 .16.79 1.91 1.91 0 0 1-.16.82 2 2 0 0 1-1.1 1.1 1.79 1.79 0 0 1-.82.16 1.63 1.63 0 0 1-.79-.16 2 2 0 0 1-.66-.44 2.4 2.4 0 0 1-.47-.66 2.26 2.26 0 0 1-.16-.82 2 2 0 0 1 .63-1.45h0a1.82 1.82 0 0 1 .66-.44 1.91 1.91 0 0 1 .76-.16 2.3 2.3 0 0 1 .82.16zM16 38.07a3.29 3.29 0 0 1 1.26.25 3.09 3.09 0 0 1 1.07.73 3.37 3.37 0 0 1 .69 1 2.9 2.9 0 0 1 .25 1.26 2.81 2.81 0 0 1-.25 1.26 3.64 3.64 0 0 1-.69 1.07 3.64 3.64 0 0 1-1.07.69 2.81 2.81 0 0 1-1.26.25 2.69 2.69 0 0 1-1.23-.25 3.18 3.18 0 0 1-1.07-.69 3.09 3.09 0 0 1-.73-1.07 3.49 3.49 0 0 1-.25-1.26 3.33 3.33 0 0 1 .25-1.23 2.76 2.76 0 0 1 .73-1.07v-.07a3.67 3.67 0 0 1 1-.66 3.26 3.26 0 0 1 1.23-.25zm1.07.76a2.5 2.5 0 0 0-1.07-.22 2.83 2.83 0 0 0-1 .18 2.92 2.92 0 0 0-.88.6h0a2.75 2.75 0 0 0-.82 1.92 2.5 2.5 0 0 0 .22 1.07 2.56 2.56 0 0 0 .6.88 2.46 2.46 0 0 0 .88.6 2.87 2.87 0 0 0 1 .19 3.26 3.26 0 0 0 1.07-.19 3.52 3.52 0 0 0 .88-.6 3.52 3.52 0 0 0 .6-.88 3.26 3.26 0 0 0 .19-1.07 2.87 2.87 0 0 0-.19-1 2.92 2.92 0 0 0-.6-.88 2.56 2.56 0 0 0-.88-.6zm0 1.45a1.12 1.12 0 0 0-.51-.35 1.82 1.82 0 0 0-.59-.13 1.19 1.19 0 0 0-.57.13 1.2 1.2 0 0 0-.5.31v0a1 1 0 0 0-.35.5 1.11 1.11 0 0 0-.13.57 1.23 1.23 0 0 0 .13.6 1.34 1.34 0 0 0 .35.5 1.6 1.6 0 0 0 .47.35 2.08 2.08 0 0 0 .6.09 1.83 1.83 0 0 0 .59-.09 1.93 1.93 0 0 0 .51-.35 1.61 1.61 0 0 0 .35-.5 1.93 1.93 0 0 0 .09-.6 1.75 1.75 0 0 0-.09-.57 1.41 1.41 0 0 0-.35-.5zm-.28-.85a2.4 2.4 0 0 1 .66.47 2 2 0 0 1 .44.66 1.75 1.75 0 0 1 .16.79 1.94 1.94 0 0 1-.16.82 2 2 0 0 1-1.1 1.1 1.94 1.94 0 0 1-.82.16 1.75 1.75 0 0 1-.79-.16 2 2 0 0 1-.66-.44 2.4 2.4 0 0 1-.47-.66 2.3 2.3 0 0 1-.16-.82 2.06 2.06 0 0 1 .16-.79 2.4 2.4 0 0 1 .47-.66h0a1.82 1.82 0 0 1 .66-.44 1.91 1.91 0 0 1 .76-.16 2.3 2.3 0 0 1 .82.16zM24.31 69a.84.84 0 0 1-.63-.25.86.86 0 0 1-.25-.6.88.88 0 0 1 .25-.63.84.84 0 0 1 .63-.25h27a.86.86 0 0 1 .6.25.88.88 0 0 1 .25.63.85.85 0 0 1-.85.85zm-.26-.63a.39.39 0 0 0 .26.09h27a.28.28 0 0 0 .22-.09.36.36 0 0 0 .1-.22.37.37 0 0 0-.1-.25.26.26 0 0 0-.22-.1h-27a.35.35 0 0 0-.26.1.37.37 0 0 0-.09.25.35.35 0 0 0 .09.22zm.26-12.63a.84.84 0 0 1-.63-.25.88.88 0 0 1-.25-.63.86.86 0 0 1 .25-.6.84.84 0 0 1 .63-.25h27a.85.85 0 0 1 .85.85.88.88 0 0 1-.25.63.86.86 0 0 1-.6.25zm-.26-.63a.39.39 0 0 0 .26.09h27a.28.28 0 0 0 .22-.09.37.37 0 0 0 .1-.25.29.29 0 0 0-.1-.22.26.26 0 0 0-.22-.1h-27a.35.35 0 0 0-.26.1.28.28 0 0 0-.09.22.37.37 0 0 0 .09.25zm.26-12.88a.85.85 0 0 1-.88-.88.86.86 0 0 1 .25-.6.84.84 0 0 1 .63-.25h27a.85.85 0 0 1 .85.85.88.88 0 0 1-.25.63.9.9 0 0 1-.6.25zm-.26-.63a.39.39 0 0 0 .26.09h27a.28.28 0 0 0 .22-.09.37.37 0 0 0 .1-.25.29.29 0 0 0-.1-.22.26.26 0 0 0-.22-.1h-27a.35.35 0 0 0-.26.1.28.28 0 0 0-.09.22.37.37 0 0 0 .09.25zM31.9 8.43a2.76 2.76 0 0 1 1.89.79 2.65 2.65 0 0 1 .78 1.89 2.54 2.54 0 0 1-.78 1.89 2.63 2.63 0 0 1-1.89.79A2.6 2.6 0 0 1 30 13a2.51 2.51 0 0 1-.79-1.89A2.62 2.62 0 0 1 30 9.22a2.72 2.72 0 0 1 1.89-.79zm1.51 1.17a2.12 2.12 0 0 0-3 0 2.18 2.18 0 0 0-.63 1.51 2.13 2.13 0 0 0 .63 1.54 2.2 2.2 0 0 0 3 0 2.13 2.13 0 0 0 .59-1.54 2.06 2.06 0 0 0-.63-1.51z" fill="none" stroke="#1e4920" stroke-miterlimit="10" stroke-width="2" data-name="Слой 1"/></g></svg>