<svg id="Слой_1" data-name="Слой 1" xmlns="http://www.w3.org/2000/svg" viewBox="0 0 1920 1080">
  <defs>
    <style>
      .cls-1 {
        fill: #97ffc8;
      }

      .cls-11, .cls-2, .cls-3, .cls-4, .cls-8 {
        fill: #00ff83;
      }

      .cls-2 {
        fill-rule: evenodd;
      }

      .cls-4 {
        font-size: 31.26px;
        font-family: Stolzl-Book, Stolzl;
        letter-spacing: 0.35em;
      }

      .cls-5 {
        letter-spacing: 0.36em;
      }

      .cls-6 {
        letter-spacing: 0.34em;
      }

      .cls-7 {
        letter-spacing: 0.35em;
      }

      .cls-8 {
        font-size: 20px;
        letter-spacing: 0.19em;
      }

      .cls-11, .cls-8 {
        font-family: Stolzl-Bold, Stolzl;
        font-weight: 700;
      }

      .cls-9 {
        letter-spacing: 0.18em;
      }

      .cls-10 {
        letter-spacing: 0.12em;
      }

      .cls-11 {
        font-size: 45px;
        letter-spacing: 0.19em;
      }

      .cls-12 {
        letter-spacing: 0.16em;
      }

      .cls-13 {
        letter-spacing: 0.11em;
      }

      .cls-14 {
        letter-spacing: 0.19em;
      }

      .cls-15 {
        letter-spacing: 0.18em;
      }

      .cls-16 {
        letter-spacing: 0.2em;
      }

      .cls-17 {
        letter-spacing: 0.12em;
      }

      .cls-18 {
        letter-spacing: 0.19em;
      }

      .cls-19 {
        letter-spacing: 0.18em;
      }

      .cls-20 {
        letter-spacing: 0.17em;
      }
    </style>
  </defs>
  <title>Монтажная область 11</title>
  <polygon class="cls-1" points="21.3 866.11 21.3 830.33 -9.68 812.43 -40.67 830.33 -40.67 866.11 -9.68 884 21.3 866.11"/>
  <polygon class="cls-1" points="55.29 925.86 55.29 890.08 24.31 872.19 -6.68 890.08 -6.68 925.86 24.31 943.75 55.29 925.86"/>
  <polygon class="cls-1" points="21.3 985.25 21.3 949.47 -9.68 931.58 -40.67 949.47 -40.67 985.25 -9.68 1003.14 21.3 985.25"/>
  <polygon class="cls-1" points="21.3 1104.4 21.3 1068.62 -9.68 1050.73 -40.67 1068.62 -40.67 1104.4 -9.68 1122.29 21.3 1104.4"/>
  <polygon class="cls-1" points="55.29 1045.01 55.29 1009.23 24.31 991.34 -6.68 1009.23 -6.68 1045.01 24.31 1062.9 55.29 1045.01"/>
  <polygon class="cls-1" points="90.18 866.11 90.18 830.33 59.19 812.43 28.21 830.33 28.21 866.11 59.19 884 90.18 866.11"/>
  <polygon class="cls-1" points="158.34 866.11 158.34 830.33 127.36 812.43 96.37 830.33 96.37 866.11 127.36 884 158.34 866.11"/>
  <polygon class="cls-1" points="192.33 925.86 192.33 890.08 161.35 872.19 130.36 890.08 130.36 925.86 161.35 943.75 192.33 925.86"/>
  <polygon class="cls-1" points="123.99 925.86 123.99 890.08 93.01 872.19 62.02 890.08 62.02 925.86 93.01 943.75 123.99 925.86"/>
  <polygon class="cls-1" points="90 985.25 90 949.47 59.02 931.58 28.03 949.47 28.03 985.25 59.02 1003.14 90 985.25"/>
  <polygon class="cls-1" points="158.34 985.25 158.34 949.47 127.36 931.58 96.37 949.47 96.37 985.25 127.36 1003.14 158.34 985.25"/>
  <polygon class="cls-1" points="158.34 1104.4 158.34 1068.62 127.36 1050.73 96.37 1068.62 96.37 1104.4 127.36 1122.29 158.34 1104.4"/>
  <polygon class="cls-1" points="123.99 1045.01 123.99 1009.23 93.01 991.34 62.02 1009.23 62.02 1045.01 93.01 1062.9 123.99 1045.01"/>
  <polygon class="cls-1" points="192.33 1045.01 192.33 1009.23 161.35 991.34 130.36 1009.23 130.36 1045.01 161.35 1062.9 192.33 1045.01"/>
  <polygon class="cls-1" points="90 1104.4 90 1068.62 59.02 1050.73 28.03 1068.62 28.03 1104.4 59.02 1122.29 90 1104.4"/>
  <polygon class="cls-1" points="295 866.11 295 830.33 264.02 812.43 233.03 830.33 233.03 866.11 264.02 884 295 866.11"/>
  <polygon class="cls-1" points="226.84 866.11 226.84 830.33 195.86 812.43 164.87 830.33 164.87 866.11 195.86 884 226.84 866.11"/>
  <polygon class="cls-1" points="363.17 866.11 363.17 830.33 332.18 812.43 301.19 830.33 301.19 866.11 332.18 884 363.17 866.11"/>
  <polygon class="cls-1" points="329 925.86 329 890.08 298.01 872.19 267.02 890.08 267.02 925.86 298.01 943.75 329 925.86"/>
  <polygon class="cls-1" points="260.65 925.86 260.65 890.08 229.67 872.19 198.68 890.08 198.68 925.86 229.67 943.75 260.65 925.86"/>
  <polygon class="cls-1" points="431.33 866.11 431.33 830.33 400.34 812.43 369.35 830.33 369.35 866.11 400.34 884 431.33 866.11"/>
  <polygon class="cls-1" points="465.32 925.86 465.32 890.08 434.33 872.19 403.34 890.08 403.34 925.86 434.33 943.75 465.32 925.86"/>
  <polygon class="cls-1" points="396.98 925.86 396.98 890.08 365.99 872.19 335 890.08 335 925.86 365.99 943.75 396.98 925.86"/>
  <polygon class="cls-1" points="295 985.25 295 949.47 264.02 931.58 233.03 949.47 233.03 985.25 264.02 1003.14 295 985.25"/>
  <polygon class="cls-1" points="362.99 985.25 362.99 949.47 332 931.58 301.01 949.47 301.01 985.25 332 1003.14 362.99 985.25"/>
  <polygon class="cls-1" points="431.33 985.25 431.33 949.47 400.34 931.58 369.35 949.47 369.35 985.25 400.34 1003.14 431.33 985.25"/>
  <polygon class="cls-1" points="431.33 1104.4 431.33 1068.62 400.34 1050.73 369.35 1068.62 369.35 1104.4 400.34 1122.29 431.33 1104.4"/>
  <polygon class="cls-1" points="396.98 1045.01 396.98 1009.23 365.99 991.34 335 1009.23 335 1045.01 365.99 1062.9 396.98 1045.01"/>
  <polygon class="cls-1" points="465.32 1045.01 465.32 1009.23 434.33 991.34 403.34 1009.23 403.34 1045.01 434.33 1062.9 465.32 1045.01"/>
  <polygon class="cls-1" points="328.64 1045.01 328.64 1009.23 297.65 991.34 266.66 1009.23 266.66 1045.01 297.65 1062.9 328.64 1045.01"/>
  <polygon class="cls-1" points="362.99 1104.4 362.99 1068.62 332 1050.73 301.01 1068.62 301.01 1104.4 332 1122.29 362.99 1104.4"/>
  <polygon class="cls-1" points="226.84 985.25 226.84 949.47 195.86 931.58 164.87 949.47 164.87 985.25 195.86 1003.14 226.84 985.25"/>
  <polygon class="cls-1" points="260.83 1045.01 260.83 1009.23 229.85 991.34 198.86 1009.23 198.86 1045.01 229.85 1062.9 260.83 1045.01"/>
  <polygon class="cls-1" points="226.84 1104.4 226.84 1068.62 195.86 1050.73 164.87 1068.62 164.87 1104.4 195.86 1122.29 226.84 1104.4"/>
  <polygon class="cls-1" points="294.82 1104.4 294.82 1068.62 263.84 1050.73 232.85 1068.62 232.85 1104.4 263.84 1122.29 294.82 1104.4"/>
  <polygon class="cls-1" points="500.2 866.11 500.2 830.33 469.22 812.43 438.23 830.33 438.23 866.11 469.22 884 500.2 866.11"/>
  <polygon class="cls-1" points="568.36 866.11 568.36 830.33 537.38 812.43 506.39 830.33 506.39 866.11 537.38 884 568.36 866.11"/>
  <polygon class="cls-1" points="602.36 925.86 602.36 890.08 571.37 872.19 540.38 890.08 540.38 925.86 571.37 943.75 602.36 925.86"/>
  <polygon class="cls-1" points="534.01 925.86 534.01 890.08 503.03 872.19 472.04 890.08 472.04 925.86 503.03 943.75 534.01 925.86"/>
  <polygon class="cls-1" points="500.02 985.25 500.02 949.47 469.04 931.58 438.05 949.47 438.05 985.25 469.04 1003.14 500.02 985.25"/>
  <polygon class="cls-1" points="568.36 985.25 568.36 949.47 537.38 931.58 506.39 949.47 506.39 985.25 537.38 1003.14 568.36 985.25"/>
  <polygon class="cls-1" points="568.36 1104.4 568.36 1068.62 537.38 1050.73 506.39 1068.62 506.39 1104.4 537.38 1122.29 568.36 1104.4"/>
  <polygon class="cls-1" points="534.01 1045.01 534.01 1009.23 503.03 991.34 472.04 1009.23 472.04 1045.01 503.03 1062.9 534.01 1045.01"/>
  <polygon class="cls-1" points="602.36 1045.01 602.36 1009.23 571.37 991.34 540.38 1009.23 540.38 1045.01 571.37 1062.9 602.36 1045.01"/>
  <polygon class="cls-1" points="500.02 1104.4 500.02 1068.62 469.04 1050.73 438.05 1068.62 438.05 1104.4 469.04 1122.29 500.02 1104.4"/>
  <polygon class="cls-1" points="636.78 866.11 636.78 830.33 605.79 812.43 574.8 830.33 574.8 866.11 605.79 884 636.78 866.11"/>
  <polygon class="cls-1" points="704.94 866.11 704.94 830.33 673.95 812.43 642.97 830.33 642.97 866.11 673.95 884 704.94 866.11"/>
  <polygon class="cls-1" points="738.93 925.86 738.93 890.08 707.94 872.19 676.96 890.08 676.96 925.86 707.94 943.75 738.93 925.86"/>
  <polygon class="cls-1" points="670.59 925.86 670.59 890.08 639.6 872.19 608.62 890.08 608.62 925.86 639.6 943.75 670.59 925.86"/>
  <polygon class="cls-1" points="636.6 985.25 636.6 949.47 605.61 931.58 574.63 949.47 574.63 985.25 605.61 1003.14 636.6 985.25"/>
  <polygon class="cls-1" points="704.94 985.25 704.94 949.47 673.95 931.58 642.97 949.47 642.97 985.25 673.95 1003.14 704.94 985.25"/>
  <polygon class="cls-1" points="704.94 1104.4 704.94 1068.62 673.95 1050.73 642.97 1068.62 642.97 1104.4 673.95 1122.29 704.94 1104.4"/>
  <polygon class="cls-1" points="670.59 1045.01 670.59 1009.23 639.6 991.34 608.62 1009.23 608.62 1045.01 639.6 1062.9 670.59 1045.01"/>
  <polygon class="cls-1" points="738.93 1045.01 738.93 1009.23 707.94 991.34 676.96 1009.23 676.96 1045.01 707.94 1062.9 738.93 1045.01"/>
  <polygon class="cls-1" points="636.6 1104.4 636.6 1068.62 605.61 1050.73 574.63 1068.62 574.63 1104.4 605.61 1122.29 636.6 1104.4"/>
  <polygon class="cls-1" points="841.88 866.11 841.88 830.33 810.89 812.43 779.9 830.33 779.9 866.11 810.89 884 841.88 866.11"/>
  <polygon class="cls-1" points="773.72 866.11 773.72 830.33 742.73 812.43 711.74 830.33 711.74 866.11 742.73 884 773.72 866.11"/>
  <polygon class="cls-1" points="910.04 866.11 910.04 830.33 879.05 812.43 848.07 830.33 848.07 866.11 879.05 884 910.04 866.11"/>
  <polygon class="cls-1" points="875.87 925.86 875.87 890.08 844.88 872.19 813.89 890.08 813.89 925.86 844.88 943.75 875.87 925.86"/>
  <polygon class="cls-1" points="807.53 925.86 807.53 890.08 776.54 872.19 745.55 890.08 745.55 925.86 776.54 943.75 807.53 925.86"/>
  <polygon class="cls-1" points="978.2 866.11 978.2 830.33 947.21 812.43 916.23 830.33 916.23 866.11 947.21 884 978.2 866.11"/>
  <polygon class="cls-1" points="1012.19 925.86 1012.19 890.08 981.2 872.19 950.22 890.08 950.22 925.86 981.2 943.75 1012.19 925.86"/>
  <polygon class="cls-1" points="943.85 925.86 943.85 890.08 912.86 872.19 881.88 890.08 881.88 925.86 912.86 943.75 943.85 925.86"/>
  <polygon class="cls-1" points="841.88 985.25 841.88 949.47 810.89 931.58 779.9 949.47 779.9 985.25 810.89 1003.14 841.88 985.25"/>
  <polygon class="cls-1" points="909.86 985.25 909.86 949.47 878.87 931.58 847.89 949.47 847.89 985.25 878.87 1003.14 909.86 985.25"/>
  <polygon class="cls-1" points="978.2 985.25 978.2 949.47 947.21 931.58 916.23 949.47 916.23 985.25 947.21 1003.14 978.2 985.25"/>
  <polygon class="cls-1" points="978.2 1104.4 978.2 1068.62 947.21 1050.73 916.23 1068.62 916.23 1104.4 947.21 1122.29 978.2 1104.4"/>
  <polygon class="cls-1" points="943.85 1045.01 943.85 1009.23 912.86 991.34 881.88 1009.23 881.88 1045.01 912.86 1062.9 943.85 1045.01"/>
  <polygon class="cls-1" points="1012.19 1045.01 1012.19 1009.23 981.2 991.34 950.22 1009.23 950.22 1045.01 981.2 1062.9 1012.19 1045.01"/>
  <polygon class="cls-1" points="875.51 1045.01 875.51 1009.23 844.52 991.34 813.54 1009.23 813.54 1045.01 844.52 1062.9 875.51 1045.01"/>
  <polygon class="cls-1" points="909.86 1104.4 909.86 1068.62 878.87 1050.73 847.89 1068.62 847.89 1104.4 878.87 1122.29 909.86 1104.4"/>
  <polygon class="cls-1" points="773.72 985.25 773.72 949.47 742.73 931.58 711.74 949.47 711.74 985.25 742.73 1003.14 773.72 985.25"/>
  <polygon class="cls-1" points="807.71 1045.01 807.71 1009.23 776.72 991.34 745.73 1009.23 745.73 1045.01 776.72 1062.9 807.71 1045.01"/>
  <polygon class="cls-1" points="773.72 1104.4 773.72 1068.62 742.73 1050.73 711.74 1068.62 711.74 1104.4 742.73 1122.29 773.72 1104.4"/>
  <polygon class="cls-1" points="841.7 1104.4 841.7 1068.62 810.71 1050.73 779.72 1068.62 779.72 1104.4 810.71 1122.29 841.7 1104.4"/>
  <polygon class="cls-1" points="1047.08 866.11 1047.08 830.33 1016.09 812.43 985.1 830.33 985.1 866.11 1016.09 884 1047.08 866.11"/>
  <polygon class="cls-1" points="1115.24 866.11 1115.24 830.33 1084.25 812.43 1053.26 830.33 1053.26 866.11 1084.25 884 1115.24 866.11"/>
  <polygon class="cls-1" points="1149.23 925.86 1149.23 890.08 1118.24 872.19 1087.26 890.08 1087.26 925.86 1118.24 943.75 1149.23 925.86"/>
  <polygon class="cls-1" points="1080.89 925.86 1080.89 890.08 1049.9 872.19 1018.91 890.08 1018.91 925.86 1049.9 943.75 1080.89 925.86"/>
  <polygon class="cls-1" points="1046.9 985.25 1046.9 949.47 1015.91 931.58 984.92 949.47 984.92 985.25 1015.91 1003.14 1046.9 985.25"/>
  <polygon class="cls-1" points="1115.24 985.25 1115.24 949.47 1084.25 931.58 1053.26 949.47 1053.26 985.25 1084.25 1003.14 1115.24 985.25"/>
  <polygon class="cls-1" points="1115.24 1104.4 1115.24 1068.62 1084.25 1050.73 1053.26 1068.62 1053.26 1104.4 1084.25 1122.29 1115.24 1104.4"/>
  <polygon class="cls-1" points="1080.89 1045.01 1080.89 1009.23 1049.9 991.34 1018.91 1009.23 1018.91 1045.01 1049.9 1062.9 1080.89 1045.01"/>
  <polygon class="cls-1" points="1149.23 1045.01 1149.23 1009.23 1118.24 991.34 1087.26 1009.23 1087.26 1045.01 1118.24 1062.9 1149.23 1045.01"/>
  <polygon class="cls-1" points="1046.9 1104.4 1046.9 1068.62 1015.91 1050.73 984.92 1068.62 984.92 1104.4 1015.91 1122.29 1046.9 1104.4"/>
  <polygon class="cls-1" points="1251.9 866.11 1251.9 830.33 1220.91 812.43 1189.93 830.33 1189.93 866.11 1220.91 884 1251.9 866.11"/>
  <polygon class="cls-1" points="1183.74 866.11 1183.74 830.33 1152.75 812.43 1121.77 830.33 1121.77 866.11 1152.75 884 1183.74 866.11"/>
  <polygon class="cls-1" points="1320.06 866.11 1320.06 830.33 1289.07 812.43 1258.09 830.33 1258.09 866.11 1289.07 884 1320.06 866.11"/>
  <polygon class="cls-1" points="1285.89 925.86 1285.89 890.08 1254.9 872.19 1223.92 890.08 1223.92 925.86 1254.9 943.75 1285.89 925.86"/>
  <polygon class="cls-1" points="1217.55 925.86 1217.55 890.08 1186.56 872.19 1155.58 890.08 1155.58 925.86 1186.56 943.75 1217.55 925.86"/>
  <polygon class="cls-1" points="1388.22 866.11 1388.22 830.33 1357.23 812.43 1326.25 830.33 1326.25 866.11 1357.23 884 1388.22 866.11"/>
  <polygon class="cls-1" points="1422.21 925.86 1422.21 890.08 1391.23 872.19 1360.24 890.08 1360.24 925.86 1391.23 943.75 1422.21 925.86"/>
  <polygon class="cls-1" points="1353.87 925.86 1353.87 890.08 1322.89 872.19 1291.9 890.08 1291.9 925.86 1322.89 943.75 1353.87 925.86"/>
  <polygon class="cls-1" points="1251.9 985.25 1251.9 949.47 1220.91 931.58 1189.93 949.47 1189.93 985.25 1220.91 1003.14 1251.9 985.25"/>
  <polygon class="cls-1" points="1319.88 985.25 1319.88 949.47 1288.89 931.58 1257.91 949.47 1257.91 985.25 1288.89 1003.14 1319.88 985.25"/>
  <polygon class="cls-1" points="1388.22 985.25 1388.22 949.47 1357.23 931.58 1326.25 949.47 1326.25 985.25 1357.23 1003.14 1388.22 985.25"/>
  <polygon class="cls-1" points="1388.22 1104.4 1388.22 1068.62 1357.23 1050.73 1326.25 1068.62 1326.25 1104.4 1357.23 1122.29 1388.22 1104.4"/>
  <polygon class="cls-1" points="1353.87 1045.01 1353.87 1009.23 1322.89 991.34 1291.9 1009.23 1291.9 1045.01 1322.89 1062.9 1353.87 1045.01"/>
  <polygon class="cls-1" points="1422.21 1045.01 1422.21 1009.23 1391.23 991.34 1360.24 1009.23 1360.24 1045.01 1391.23 1062.9 1422.21 1045.01"/>
  <polygon class="cls-1" points="1285.53 1045.01 1285.53 1009.23 1254.55 991.34 1223.56 1009.23 1223.56 1045.01 1254.55 1062.9 1285.53 1045.01"/>
  <polygon class="cls-1" points="1319.88 1104.4 1319.88 1068.62 1288.89 1050.73 1257.91 1068.62 1257.91 1104.4 1288.89 1122.29 1319.88 1104.4"/>
  <polygon class="cls-1" points="1183.74 985.25 1183.74 949.47 1152.75 931.58 1121.77 949.47 1121.77 985.25 1152.75 1003.14 1183.74 985.25"/>
  <polygon class="cls-1" points="1217.73 1045.01 1217.73 1009.23 1186.74 991.34 1155.76 1009.23 1155.76 1045.01 1186.74 1062.9 1217.73 1045.01"/>
  <polygon class="cls-1" points="1183.74 1104.4 1183.74 1068.62 1152.75 1050.73 1121.77 1068.62 1121.77 1104.4 1152.75 1122.29 1183.74 1104.4"/>
  <polygon class="cls-1" points="1251.72 1104.4 1251.72 1068.62 1220.73 1050.73 1189.75 1068.62 1189.75 1104.4 1220.73 1122.29 1251.72 1104.4"/>
  <polygon class="cls-1" points="1457.1 866.11 1457.1 830.33 1426.11 812.43 1395.13 830.33 1395.13 866.11 1426.11 884 1457.1 866.11"/>
  <polygon class="cls-1" points="1525.26 866.11 1525.26 830.33 1494.27 812.43 1463.29 830.33 1463.29 866.11 1494.27 884 1525.26 866.11"/>
  <polygon class="cls-1" points="1559.25 925.86 1559.25 890.08 1528.27 872.19 1497.28 890.08 1497.28 925.86 1528.27 943.75 1559.25 925.86"/>
  <polygon class="cls-1" points="1490.91 925.86 1490.91 890.08 1459.92 872.19 1428.94 890.08 1428.94 925.86 1459.92 943.75 1490.91 925.86"/>
  <polygon class="cls-1" points="1456.92 985.25 1456.92 949.47 1425.93 931.58 1394.95 949.47 1394.95 985.25 1425.93 1003.14 1456.92 985.25"/>
  <polygon class="cls-1" points="1525.26 985.25 1525.26 949.47 1494.27 931.58 1463.29 949.47 1463.29 985.25 1494.27 1003.14 1525.26 985.25"/>
  <polygon class="cls-1" points="1525.26 1104.4 1525.26 1068.62 1494.27 1050.73 1463.29 1068.62 1463.29 1104.4 1494.27 1122.29 1525.26 1104.4"/>
  <polygon class="cls-1" points="1490.91 1045.01 1490.91 1009.23 1459.92 991.34 1428.94 1009.23 1428.94 1045.01 1459.92 1062.9 1490.91 1045.01"/>
  <polygon class="cls-1" points="1559.25 1045.01 1559.25 1009.23 1528.27 991.34 1497.28 1009.23 1497.28 1045.01 1528.27 1062.9 1559.25 1045.01"/>
  <polygon class="cls-1" points="1456.92 1104.4 1456.92 1068.62 1425.93 1050.73 1394.95 1068.62 1394.95 1104.4 1425.93 1122.29 1456.92 1104.4"/>
  <polygon class="cls-1" points="1593.67 866.11 1593.67 830.33 1562.69 812.43 1531.7 830.33 1531.7 866.11 1562.69 884 1593.67 866.11"/>
  <polygon class="cls-1" points="1661.83 866.11 1661.83 830.33 1630.85 812.43 1599.86 830.33 1599.86 866.11 1630.85 884 1661.83 866.11"/>
  <polygon class="cls-1" points="1695.83 925.86 1695.83 890.08 1664.84 872.19 1633.85 890.08 1633.85 925.86 1664.84 943.75 1695.83 925.86"/>
  <polygon class="cls-1" points="1627.48 925.86 1627.48 890.08 1596.5 872.19 1565.51 890.08 1565.51 925.86 1596.5 943.75 1627.48 925.86"/>
  <polygon class="cls-1" points="1593.49 985.25 1593.49 949.47 1562.51 931.58 1531.52 949.47 1531.52 985.25 1562.51 1003.14 1593.49 985.25"/>
  <polygon class="cls-1" points="1661.83 985.25 1661.83 949.47 1630.85 931.58 1599.86 949.47 1599.86 985.25 1630.85 1003.14 1661.83 985.25"/>
  <polygon class="cls-1" points="1661.83 1104.4 1661.83 1068.62 1630.85 1050.73 1599.86 1068.62 1599.86 1104.4 1630.85 1122.29 1661.83 1104.4"/>
  <polygon class="cls-1" points="1627.48 1045.01 1627.48 1009.23 1596.5 991.34 1565.51 1009.23 1565.51 1045.01 1596.5 1062.9 1627.48 1045.01"/>
  <polygon class="cls-1" points="1695.83 1045.01 1695.83 1009.23 1664.84 991.34 1633.85 1009.23 1633.85 1045.01 1664.84 1062.9 1695.83 1045.01"/>
  <polygon class="cls-1" points="1593.49 1104.4 1593.49 1068.62 1562.51 1050.73 1531.52 1068.62 1531.52 1104.4 1562.51 1122.29 1593.49 1104.4"/>
  <polygon class="cls-1" points="1798.87 866.11 1798.87 830.33 1767.89 812.43 1736.9 830.33 1736.9 866.11 1767.89 884 1798.87 866.11"/>
  <polygon class="cls-1" points="1730.71 866.11 1730.71 830.33 1699.72 812.43 1668.74 830.33 1668.74 866.11 1699.72 884 1730.71 866.11"/>
  <polygon class="cls-1" points="1867.03 866.11 1867.03 830.33 1836.05 812.43 1805.06 830.33 1805.06 866.11 1836.05 884 1867.03 866.11"/>
  <polygon class="cls-1" points="1832.86 925.86 1832.86 890.08 1801.88 872.19 1770.89 890.08 1770.89 925.86 1801.88 943.75 1832.86 925.86"/>
  <polygon class="cls-1" points="1764.52 925.86 1764.52 890.08 1733.54 872.19 1702.55 890.08 1702.55 925.86 1733.54 943.75 1764.52 925.86"/>
  <polygon class="cls-1" points="1935.19 866.11 1935.19 830.33 1904.21 812.43 1873.22 830.33 1873.22 866.11 1904.21 884 1935.19 866.11"/>
  <polygon class="cls-1" points="1969.19 925.86 1969.19 890.08 1938.2 872.19 1907.21 890.08 1907.21 925.86 1938.2 943.75 1969.19 925.86"/>
  <polygon class="cls-1" points="1900.85 925.86 1900.85 890.08 1869.86 872.19 1838.87 890.08 1838.87 925.86 1869.86 943.75 1900.85 925.86"/>
  <polygon class="cls-1" points="1798.87 985.25 1798.87 949.47 1767.89 931.58 1736.9 949.47 1736.9 985.25 1767.89 1003.14 1798.87 985.25"/>
  <polygon class="cls-1" points="1866.86 985.25 1866.86 949.47 1835.87 931.58 1804.88 949.47 1804.88 985.25 1835.87 1003.14 1866.86 985.25"/>
  <polygon class="cls-1" points="1935.19 985.25 1935.19 949.47 1904.21 931.58 1873.22 949.47 1873.22 985.25 1904.21 1003.14 1935.19 985.25"/>
  <polygon class="cls-1" points="1935.19 1104.4 1935.19 1068.62 1904.21 1050.73 1873.22 1068.62 1873.22 1104.4 1904.21 1122.29 1935.19 1104.4"/>
  <polygon class="cls-1" points="1900.85 1045.01 1900.85 1009.23 1869.86 991.34 1838.87 1009.23 1838.87 1045.01 1869.86 1062.9 1900.85 1045.01"/>
  <polygon class="cls-1" points="1969.19 1045.01 1969.19 1009.23 1938.2 991.34 1907.21 1009.23 1907.21 1045.01 1938.2 1062.9 1969.19 1045.01"/>
  <polygon class="cls-1" points="1832.51 1045.01 1832.51 1009.23 1801.52 991.34 1770.53 1009.23 1770.53 1045.01 1801.52 1062.9 1832.51 1045.01"/>
  <polygon class="cls-1" points="1866.86 1104.4 1866.86 1068.62 1835.87 1050.73 1804.88 1068.62 1804.88 1104.4 1835.87 1122.29 1866.86 1104.4"/>
  <polygon class="cls-1" points="1730.71 985.25 1730.71 949.47 1699.72 931.58 1668.74 949.47 1668.74 985.25 1699.72 1003.14 1730.71 985.25"/>
  <polygon class="cls-1" points="1764.7 1045.01 1764.7 1009.23 1733.72 991.34 1702.73 1009.23 1702.73 1045.01 1733.72 1062.9 1764.7 1045.01"/>
  <polygon class="cls-1" points="1730.71 1104.4 1730.71 1068.62 1699.72 1050.73 1668.74 1068.62 1668.74 1104.4 1699.72 1122.29 1730.71 1104.4"/>
  <polygon class="cls-1" points="1798.69 1104.4 1798.69 1068.62 1767.71 1050.73 1736.72 1068.62 1736.72 1104.4 1767.71 1122.29 1798.69 1104.4"/>
  <g>
    <path class="cls-2" d="M151.14,997h325l16-35.79-6.47-7.68-12.4,5.53-7.55,7-8.8-4.87-9.55,1.38.79-9.06-9.32,6.36-5.33,1.67,2.37-3.67h-6.87l-3.91-74.62-1.42,2v70.12l-4-1.06-5.61,4.11h-2l-1.46-7.88-3.87-2-.67,10-7,2.22,0-1.68V949.5l-8.45,1.36v8.84l-3.36-2.4.4-4.8-6.48-2.22v9.42H370L369,954l-10.38-3.73v7l-4.9,3.11-10.39-12.78-2.95-1.17,1.46,8.81-19.19,4.43.67-9.42-4.42-2.35,1.58,7.34H308.17l-2.45-16.37,4-8.52,1.46-4.75-4.66-2.27h-3.63V916H299l-3.91,2.76-5.29,4.32-.68,1.43-9.94.31.39-12h-8.85l.4-17.78,9.36-7.45V875.74l-2.09.84V883l-4,1.17-.67-9.56-4.15,2-.79,7.55h-4.26l.79-32.92-.75,2v52.91h-7.66l-10.63,5.57,1.47,4.34-16.86,4.4.67,4.11-4.42,2.62,1.46,6.86-9.87,4.39L213.21,933l-7.62,6.71-7.66-6.21-3.4,9.09-2.68-1.08h-6v2.93l-19.22,2-6.75,3.5-2.45,8.59L161,957.3l.4,4.63,2.09.33-.67,7.59c-3.21.14-16.62,6.45-16.58,10.9C142.52,988.46,142.92,996.14,151.14,997Z"/>
    <path class="cls-2" d="M0,834l1617.33-10.57c-61.68-8.9-113.42-29.43-187.6-21.05l-8.79-.71V780.94h-8.35v-6.86h-7.49v6.86h-3.51v7.23h-5.3V781.3h-8.4v-3.7h-5.3v3.7h-8.37v6.05h-74.53v6.24c-43.69-4.25-95.37,1.21-123.11-4.23-18.26-5.91-32.45-1.66-37.17,5.56l-48.5-1.38.4-20.95h-7.89v-1.86h-7.08v1.86h-5.93v24h-11.64V776.09h-5.27V773h-9.16v3.06h-6.45v14.76c-29.16-5.24-58.53-3.39-89.84-7.23v-6.84h-5.31v-3.06h-8.68v3.06h-7.83v-3.06h-7.44v3.06h-3.85v6.36c-40.43,3.6-81.09,13.84-116.27,16.64-120.89-16.63-248.08-12.65-377.54,5.91l-238-19c-28.83-12.85-59.7-10.33-88.8-9.83-7-2.32-9.91-.89-19.17-.73V724.28h1.4v52c-42.36.28-35.41,5.12-76.51-2.82Z"/>
    <path class="cls-2" d="M1865.53,947.26l-16.69,10.24v48.23l-225.33,6.37L1571,967.48l-90.56.51-46.5-30.12-118.52.92V917.73H1321v-10.8l-.27-.59-6.44-6.27h-6.7l-7.54,6.27v11.39h5.09v22.36l-38.16.7V918h5.52V907.67l-.13,1.59-6.64-7.46h-6.7l-7.54,7.46V918h5.09v23.29l-31.36.08-.75-12.79.38-24.76L1195,905.46,1186,505.82l10.24-9.73h54V492.5h-52.16l.91-3.13V461.46l-7.37-.41.3-55h-13.11v-6.66h-10.92c-4.31-7-14.75-16-27.37-16.27v-6.71c2-1.24,2.23-5.78,2.23-4.6,0-6.63-2.27-4.6-5.31-7.71V313h-3v51.13c-3,3.11-5.31,1.08-5.31,7.71,0-1.18,1.49,3.36,1.49,4.6v6.71c-11.86.23-22.32,9.24-26.67,16.27h-12v6.66h-13.82V492.5h-57.8v3.59h55.49l10.06,9.73-1.27,400c-17.2-3.21-5.15,10.75-8,11.94-10.49,4.46-16.21,12.51-28.19,16.4V873.25h-2.26v59.59c-2.34-.3-2.69.35-5.51-.51V796.62h-2.61V930.84c-1.41,1.53-3.08-.3-4.19-.94-7.58-2.65-17.53-6.35-25.35-11.59-1.62-2.91.11-6.8-1.55-7.68l-5.91-1.94-4.83,8.57c-6.69-4.08-14.62-7.56-20.44-2.87-9.9,4.56-20.67,2-28.84,10.79-6.54,5-11,16.73-18.34,20.58v14.06l2.38,5v14.27L928,981v11.72l-21.75,3.34-.17,44.78c87.92,8,332.21-1.13,626.13-5.65,102.07-.49,242-2,388.06-2.35v-81.5l-54.76-4.07ZM1091.28,470h0v-8.52h7.45V407.74h3.87v34.33h9.23V404.12h4.86v37.95h14.21v-7.33h-4.32v-21.6h4.32V406h11.32v7.13h4.32v21.6h-4.32v7.33h13.11V404.91h3.87v37.16h11.39V407.74h3.81V492.5h-75.67V470Zm54.52,524.88h-26.22V977h26.22v17.89Zm38.72,0h-31.28V977h31.28v17.89Zm35.46,0h-26.37V977H1220v17.89Zm64.94,7.23h-11.61V973.37h11.61v28.72Zm89,1.29h-7.45v-9.2h7.45v9.2Zm0-12.21h-7.45V982.7h7.45v8.47Zm0-12.33h-7.45v-5.67h7.45v5.67Zm10.18,24.54h-7.45v-9.2h7.45v9.2Zm0-12.21h-7.45V982.7h7.45v8.47Zm0-12.33h-7.45v-5.67h7.45Z"/>
  </g>
  <path class="cls-3" d="M133.91,563.81l-.12-22H119v7.09l-.19.06-1.88-2.56-1.84,2.55-.18-.05V541.8h-.15a2,2,0,0,0-1.34.55,2,2,0,0,0-.55,1.34h0c0,5,0,10,0,15,0,2.36,0,4.72,0,7.49a1.58,1.58,0,0,0,0,.32,2,2,0,0,0,.09.33,2.52,2.52,0,0,0,1.11,1.23,3.62,3.62,0,0,0,1.86.48h17.78l-.78-.89c-.63-.71-1-1.08-1-1.48s.33-.8,1-1.59c.2-.21.42-.46.68-.76l0,0ZM134,541.7l.13,22.32h-.3l-.66.72c-.68.75-1,1.1-1,1.45s.32.67.91,1.35c.26.29.57.64.91,1.06l.15.17H115.93a4,4,0,0,1-2-.5,2.73,2.73,0,0,1-1.2-1.35l0,0,0,0v0a2.07,2.07,0,0,1-.1-.33,2.1,2.1,0,0,1,0-.36c0-2.22,0-4.85,0-7.49,0-5,0-10,0-15h0a2.16,2.16,0,0,1,.61-1.48,2.12,2.12,0,0,1,1.49-.61h.36v7L116.9,546l1.86,2.53v-7H134ZM114.8,557.32a.37.37,0,0,1-.25-.1.37.37,0,0,1,0-.48.37.37,0,0,1,.25-.1h17a.31.31,0,0,1,.23.1.3.3,0,0,1,0,.48.31.31,0,0,1-.23.1Zm-.1-.25a.13.13,0,0,0,.1,0h17a.13.13,0,0,0,.1,0,.19.19,0,0,0,0-.09.25.25,0,0,0,0-.09.13.13,0,0,0-.1,0h-17a.13.13,0,0,0-.1,0,.14.14,0,0,0,0,.09.12.12,0,0,0,0,.09Zm.1-5.34a.33.33,0,0,1-.25-.1.32.32,0,0,1-.09-.24.34.34,0,0,1,.09-.24.37.37,0,0,1,.25-.1h17a.29.29,0,0,1,.23.1.33.33,0,0,1,.12.24.31.31,0,0,1-.12.24.28.28,0,0,1-.23.1Zm-.1-.24a.17.17,0,0,0,.1,0h17a.17.17,0,0,0,.1,0s0-.07,0-.1a.25.25,0,0,0,0-.09.18.18,0,0,0-.1,0h-17a.18.18,0,0,0-.1,0,.14.14,0,0,0,0,.09.19.19,0,0,0,0,.1Z"/>
  <g>
    <circle class="cls-3" cx="123.88" cy="612.42" r="5.89"/>
    <line class="cls-3" x1="135.54" y1="623.67" x2="130.59" y2="618.94"/>
    <line class="cls-3" x1="117.16" y1="606.14" x2="112.21" y2="601.41"/>
    <line class="cls-3" x1="112.72" y1="624.18" x2="117.46" y2="619.24"/>
    <line class="cls-3" x1="130.29" y1="605.84" x2="135.03" y2="600.9"/>
  </g>
  <path class="cls-3" d="M129.26,479.7v-.33h0v-.13h-3a.29.29,0,0,1-.22-.09.33.33,0,0,1-.1-.24,1.89,1.89,0,0,0-.16-.79,2.1,2.1,0,0,0-.46-.68,2,2,0,0,0-.68-.46,2.26,2.26,0,0,0-.79-.15,2.37,2.37,0,0,0-.8.15,2.15,2.15,0,0,0-.68.46,1.92,1.92,0,0,0-.45.68,1.89,1.89,0,0,0-.16.79.33.33,0,0,1-.1.24.29.29,0,0,1-.22.09h-3v.13h0v3h10.86Zm.2-.13v3H118.2v-3h0V479h3.24s.07,0,.08,0a.19.19,0,0,0,0-.1,2.27,2.27,0,0,1,.16-.86,2.4,2.4,0,0,1,.5-.75,2.34,2.34,0,0,1,1.62-.67,2.2,2.2,0,0,1,.88.18,2.13,2.13,0,0,1,.73.49,2.43,2.43,0,0,1,.51.75,2.48,2.48,0,0,1,.17.86.13.13,0,0,0,0,.1.11.11,0,0,0,.08,0h3.23v.53Zm-15.58,0h3.61v.66h0V482H116a1.6,1.6,0,0,0-1.13.47,1.62,1.62,0,0,0-.47,1.14V503.7a1.62,1.62,0,0,0,1.6,1.61h15.69a1.62,1.62,0,0,0,1.61-1.61V483.61a1.62,1.62,0,0,0-.47-1.14,1.6,1.6,0,0,0-1.14-.47h-1.52v-1.74h0v-.66h3.62a1.59,1.59,0,0,1,1.09.45,1.53,1.53,0,0,1,.44,1.09v25a1.5,1.5,0,0,1-1.53,1.53h-19.9a1.52,1.52,0,0,1-1.09-.44,1.54,1.54,0,0,1-.45-1.09v-25a1.5,1.5,0,0,1,.45-1.08,1.53,1.53,0,0,1,1.09-.46Zm3.41.2h-3.41a1.33,1.33,0,0,0-1.34,1.34v25a1.35,1.35,0,0,0,.39.95,1.37,1.37,0,0,0,.95.39h19.9a1.39,1.39,0,0,0,.95-.39,1.3,1.3,0,0,0,.39-.95v-25a1.34,1.34,0,0,0-.39-.95,1.39,1.39,0,0,0-.95-.39h-3.42v.66h0v1.35h1.32a1.77,1.77,0,0,1,1.28.52,1.8,1.8,0,0,1,.53,1.28V503.7A1.79,1.79,0,0,1,133,505a1.82,1.82,0,0,1-1.28.53H116a1.82,1.82,0,0,1-1.27-.53,1.79,1.79,0,0,1-.53-1.27V483.61a1.8,1.8,0,0,1,.53-1.28,1.77,1.77,0,0,1,1.27-.52h1.33v-1.35h0Zm3.72,7.31a.37.37,0,0,1-.24-.09.34.34,0,0,1,0-.46.32.32,0,0,1,.24-.09h10a.32.32,0,0,1,.23.09.32.32,0,0,1-.23.55Zm-.1-.23a.17.17,0,0,0,.1,0h10a.13.13,0,0,0,.09-.21.15.15,0,0,0-.09,0H121a.18.18,0,0,0-.1,0,.15.15,0,0,0,0,.18Zm-3,13.48a1.24,1.24,0,0,1,.47.1,1.34,1.34,0,0,1,.4.27,1.09,1.09,0,0,1,.25.4,1,1,0,0,1,.1.46,1,1,0,0,1-.1.46,1.18,1.18,0,0,1-.25.4h0a1,1,0,0,1-.39.26,1.22,1.22,0,0,1-.92,0,1.3,1.3,0,0,1-.66-.67,1.15,1.15,0,0,1-.1-.46,1.19,1.19,0,0,1,.1-.46,1,1,0,0,1,.27-.4,1.09,1.09,0,0,1,.39-.27,1.19,1.19,0,0,1,.46-.1Zm.4.29a1.11,1.11,0,0,0-.4-.09,1,1,0,0,0-.39.09.77.77,0,0,0-.32.22.94.94,0,0,0-.23.33,1,1,0,0,0-.08.39,1,1,0,0,0,.08.39.94.94,0,0,0,.23.33,1,1,0,0,0,1.1.22,1.11,1.11,0,0,0,.32-.21h0a1.27,1.27,0,0,0,.22-.33,1,1,0,0,0,.07-.39,1,1,0,0,0-.07-.39,1.27,1.27,0,0,0-.22-.33.87.87,0,0,0-.33-.22Zm0,.53a.62.62,0,0,0-.19-.12A.54.54,0,0,0,118,501a.5.5,0,0,0-.21.05.62.62,0,0,0-.19.12.5.5,0,0,0-.13.19.54.54,0,0,0,0,.22.46.46,0,0,0,0,.21.43.43,0,0,0,.13.19.38.38,0,0,0,.18.13.87.87,0,0,0,.22.05.79.79,0,0,0,.22-.05.52.52,0,0,0,.18-.12h0a.53.53,0,0,0,.13-.19.66.66,0,0,0,0-.21.73.73,0,0,0,0-.22.64.64,0,0,0-.13-.19Zm-.11-.3a.6.6,0,0,1,.25.16.67.67,0,0,1,.16.25.62.62,0,0,1,.06.3.65.65,0,0,1-.06.3.63.63,0,0,1-.16.24h0a.74.74,0,0,1-.25.17.73.73,0,0,1-.58,0,.94.94,0,0,1-.25-.18.72.72,0,0,1-.23-.54.77.77,0,0,1,.06-.3.85.85,0,0,1,.17-.25.6.6,0,0,1,.25-.16.56.56,0,0,1,.29-.06.6.6,0,0,1,.3.06Zm-.3-5.45a1.24,1.24,0,0,1,.47.1,1.18,1.18,0,0,1,.4.27,1.09,1.09,0,0,1,.25.38,1.14,1.14,0,0,1,.1.47,1,1,0,0,1-.1.47,1.28,1.28,0,0,1-.25.4,1.53,1.53,0,0,1-.4.26,1.07,1.07,0,0,1-.47.09,1,1,0,0,1-.46-.09,1.21,1.21,0,0,1-.39-.26,1.18,1.18,0,0,1-.27-.4,1.2,1.2,0,0,1-.1-.47,1.32,1.32,0,0,1,.1-.47,1,1,0,0,1,.27-.38v0a1.36,1.36,0,0,1,.38-.24,1.23,1.23,0,0,1,.46-.1Zm.4.29a.93.93,0,0,0-.4-.09,1.11,1.11,0,0,0-.37.07,1,1,0,0,0-.33.23h0a.86.86,0,0,0-.23.33.92.92,0,0,0-.08.38,1.1,1.1,0,0,0,.08.4.94.94,0,0,0,.23.33,1.21,1.21,0,0,0,.32.22,1,1,0,0,0,.39.07,1.09,1.09,0,0,0,.4-.07,1.46,1.46,0,0,0,.33-.22,1.27,1.27,0,0,0,.22-.33,1.09,1.09,0,0,0,.07-.4.92.92,0,0,0-.07-.38,1.12,1.12,0,0,0-.22-.33.87.87,0,0,0-.33-.22Zm0,.52a.59.59,0,0,0-.19-.11.42.42,0,0,0-.22-.05.41.41,0,0,0-.21.05.41.41,0,0,0-.19.11h0a.59.59,0,0,0-.17.4.62.62,0,0,0,0,.23.55.55,0,0,0,.13.18.5.5,0,0,0,.19.13.71.71,0,0,0,.21,0,.78.78,0,0,0,.22,0,.59.59,0,0,0,.19-.13.49.49,0,0,0,.13-.18.91.91,0,0,0,0-.23.71.71,0,0,0,0-.21.69.69,0,0,0-.13-.2Zm-.11-.3a.92.92,0,0,1,.25.17.67.67,0,0,1,.16.25.58.58,0,0,1,.06.29.66.66,0,0,1-.06.31.63.63,0,0,1-.16.24.74.74,0,0,1-.25.17.73.73,0,0,1-.3.06.68.68,0,0,1-.29-.06.74.74,0,0,1-.25-.17.81.81,0,0,1-.17-.24.81.81,0,0,1-.06-.31.75.75,0,0,1,.23-.54h0a.82.82,0,0,1,.53-.22.73.73,0,0,1,.3.06Zm-.3-5.53a1.24,1.24,0,0,1,.47.1,1.15,1.15,0,0,1,.4.26,1.24,1.24,0,0,1,.25.39,1.1,1.1,0,0,1,.1.47,1.07,1.07,0,0,1-.1.47,1,1,0,0,1-.65.65,1.07,1.07,0,0,1-.47.1,1,1,0,0,1-.46-.1,1,1,0,0,1-.39-.25,1.18,1.18,0,0,1-.27-.4,1.24,1.24,0,0,1-.1-.47,1.19,1.19,0,0,1,.1-.46,1.09,1.09,0,0,1,.27-.4v0a1.17,1.17,0,0,1,.38-.24,1.23,1.23,0,0,1,.46-.1Zm.4.28a.92.92,0,0,0-.4-.08.9.9,0,0,0-.37.07,1.12,1.12,0,0,0-.33.22v0a.82.82,0,0,0-.23.32,1,1,0,0,0-.08.39,1.1,1.1,0,0,0,.08.4,1.16,1.16,0,0,0,.23.33,1,1,0,0,0,.32.22,1.23,1.23,0,0,0,.39.07,1.34,1.34,0,0,0,.4-.07,1.46,1.46,0,0,0,.33-.22,1.72,1.72,0,0,0,.22-.33,1.09,1.09,0,0,0,.07-.4,1,1,0,0,0-.07-.39,1.07,1.07,0,0,0-.22-.32,1,1,0,0,0-.33-.23Zm0,.54a.5.5,0,0,0-.19-.13.78.78,0,0,0-.22,0,.52.52,0,0,0-.21,0,.55.55,0,0,0-.19.12h0a.5.5,0,0,0-.13.19.49.49,0,0,0,0,.21.54.54,0,0,0,0,.22.59.59,0,0,0,.13.19.75.75,0,0,0,.18.13.83.83,0,0,0,.22,0,.78.78,0,0,0,.22,0,.8.8,0,0,0,.19-.13.64.64,0,0,0,.13-.19.78.78,0,0,0,0-.22.71.71,0,0,0,0-.21.64.64,0,0,0-.13-.19Zm-.11-.31a.74.74,0,0,1,.25.17.6.6,0,0,1,.16.25.56.56,0,0,1,.06.29.62.62,0,0,1-.06.3.77.77,0,0,1-.71.47.56.56,0,0,1-.29-.06.6.6,0,0,1-.25-.16.74.74,0,0,1-.17-.25.77.77,0,0,1-.06-.3.68.68,0,0,1,.06-.29.74.74,0,0,1,.17-.25h0a.82.82,0,0,1,.53-.22.73.73,0,0,1,.3.06Zm2.76,11a.37.37,0,0,1-.24-.09.34.34,0,0,1,0-.46.32.32,0,0,1,.24-.09h10a.32.32,0,0,1,.23.09.32.32,0,0,1-.23.55Zm-.1-.23a.17.17,0,0,0,.1,0h10a.14.14,0,0,0,.09,0,.16.16,0,0,0,0-.09.11.11,0,0,0-.12-.12H121a.17.17,0,0,0-.1,0,.14.14,0,0,0,0,.09.16.16,0,0,0,0,.09Zm.1-4.7a.31.31,0,0,1-.33-.33.31.31,0,0,1,.09-.22.32.32,0,0,1,.24-.09h10a.32.32,0,0,1,.23.09.36.36,0,0,1,.09.22.37.37,0,0,1-.09.24.32.32,0,0,1-.23.09Zm-.1-.23a.17.17,0,0,0,.1,0h10a.14.14,0,0,0,.09,0,.17.17,0,0,0,0-.1.11.11,0,0,0,0-.08.14.14,0,0,0-.09,0H121a.17.17,0,0,0-.1,0,.11.11,0,0,0,0,.08.17.17,0,0,0,0,.1ZM121,492a.33.33,0,0,1-.24-.1.3.3,0,0,1-.09-.23.31.31,0,0,1,.09-.22.33.33,0,0,1,.24-.1h10a.33.33,0,0,1,.23.1.36.36,0,0,1,.09.22.34.34,0,0,1-.09.23.33.33,0,0,1-.23.1Zm-.1-.24a.13.13,0,0,0,.1,0h10a.11.11,0,0,0,.09,0,.14.14,0,0,0,0-.09.1.1,0,0,0,0-.08.11.11,0,0,0-.09,0H121a.13.13,0,0,0-.1,0,.1.1,0,0,0,0,.08.14.14,0,0,0,0,.09Zm2.92-12.33a1,1,0,0,1,.7.3,1,1,0,0,1,.29.7.92.92,0,0,1-.29.7,1,1,0,0,1-1.7-.7,1,1,0,0,1,.3-.7,1,1,0,0,1,.7-.3Zm.56.44a.77.77,0,0,0-1.12,0,.82.82,0,0,0-.24.56.76.76,0,0,0,.24.57.79.79,0,0,0,1.35-.57.77.77,0,0,0-.23-.56Z"/>
  <path class="cls-3" d="M137.47,425.78H109.35v18.08a1.25,1.25,0,0,0,.09.51,2,2,0,0,0,.3.45,1.49,1.49,0,0,0,.44.3,1.51,1.51,0,0,0,.53.09h25.4a1.36,1.36,0,0,0,.51-.09,1.54,1.54,0,0,0,.45-.3,1.68,1.68,0,0,0,.3-.45,1.45,1.45,0,0,0,.1-.51Zm-6.83-7.47v3.48a.77.77,0,0,0,.07.29,1.28,1.28,0,0,0,.15.25,1.32,1.32,0,0,0,.25.16,1,1,0,0,0,.29.06.94.94,0,0,0,.3-.06,1,1,0,0,0,.24-.16.79.79,0,0,0,.17-.25.75.75,0,0,0,.06-.29v-3.48a.72.72,0,0,0-.06-.29.7.7,0,0,0-.17-.25,1,1,0,0,0-.24-.17.73.73,0,0,0-.3-.05.74.74,0,0,0-.29.05,1.38,1.38,0,0,0-.25.17,1,1,0,0,0-.15.25.73.73,0,0,0-.07.29Zm-.22,2.74v-2.74a1.59,1.59,0,0,1,.06-.38,1.3,1.3,0,0,1,.23-.33,1,1,0,0,1,.32-.21.9.9,0,0,1,.37-.07,1,1,0,0,1,.38.07,1.1,1.1,0,0,1,.33.21.89.89,0,0,1,.21.33,1,1,0,0,1,.08.38v3.48a.91.91,0,0,1-.08.37.89.89,0,0,1-.21.33,1,1,0,0,1-.33.22,1.16,1.16,0,0,1-.38.06,1.1,1.1,0,0,1-.37-.06.91.91,0,0,1-.32-.22,1.3,1.3,0,0,1-.23-.33,1.43,1.43,0,0,1-.06-.37Zm-14.25,0v-2.74a.73.73,0,0,0-.07-.29.82.82,0,0,0-.16-.25,1.1,1.1,0,0,0-.25-.17.66.66,0,0,0-.28-.05.65.65,0,0,0-.29.05.92.92,0,0,0-.25.17.7.7,0,0,0-.17.25.71.71,0,0,0,0,.29v3.48a.74.74,0,0,0,0,.29.79.79,0,0,0,.17.25.67.67,0,0,0,.25.16.83.83,0,0,0,.29.06.88.88,0,0,0,.28-.06,1.07,1.07,0,0,0,.25-.16,1,1,0,0,0,.16-.25.77.77,0,0,0,.07-.29Zm.22-2.74v3.48a1.11,1.11,0,0,1-.07.37,1.06,1.06,0,0,1-.22.33,1.1,1.1,0,0,1-.31.22,1.21,1.21,0,0,1-.38.06,1.16,1.16,0,0,1-.38-.06,1.06,1.06,0,0,1-.33-.22,1,1,0,0,1-.21-.33.91.91,0,0,1-.08-.37v-3.48a1,1,0,0,1,.08-.38,1,1,0,0,1,.21-.33,1.24,1.24,0,0,1,.33-.21,1,1,0,0,1,.38-.07,1,1,0,0,1,.38.07,1.3,1.3,0,0,1,.31.21,1.06,1.06,0,0,1,.22.33,1.22,1.22,0,0,1,.07.38Zm-7,6.79h28.12v-2.35a1.56,1.56,0,0,0-.1-.53,1.59,1.59,0,0,0-.3-.43,1.37,1.37,0,0,0-.45-.3,1.19,1.19,0,0,0-.51-.1h-3.27v.4a1.72,1.72,0,0,1-.1.55,1.65,1.65,0,0,1-.32.46,1.25,1.25,0,0,1-.47.31,1.26,1.26,0,0,1-.55.12,1.33,1.33,0,0,1-.55-.12,1.45,1.45,0,0,1-.77-.77,1.33,1.33,0,0,1-.12-.55v-.4H116.85v.4a1.33,1.33,0,0,1-.12.55,1.2,1.2,0,0,1-.32.46,1.25,1.25,0,0,1-.45.31,1.3,1.3,0,0,1-.55.12,1.26,1.26,0,0,1-.55-.12,1.17,1.17,0,0,1-.47-.31,1.47,1.47,0,0,1-.32-.46,1.72,1.72,0,0,1-.1-.55v-.4h-3.26a1.31,1.31,0,0,0-1,.4,1.59,1.59,0,0,0-.3.43,1.34,1.34,0,0,0-.09.53Zm28.23.24H109.11v-2.59a1.5,1.5,0,0,1,.12-.6,1.44,1.44,0,0,1,.35-.53,1.75,1.75,0,0,1,.51-.34,1.56,1.56,0,0,1,.62-.13h3.48v.64a1.39,1.39,0,0,0,.09.46,2,2,0,0,0,.26.39,1.4,1.4,0,0,0,.39.26,1.29,1.29,0,0,0,.48.1,1.18,1.18,0,0,0,.45-.1,1.31,1.31,0,0,0,.4-.26,1.66,1.66,0,0,0,.26-.39,1.18,1.18,0,0,0,.09-.46v-.64H130.2v.64a1.39,1.39,0,0,0,.09.46,1.66,1.66,0,0,0,.26.39,1.4,1.4,0,0,0,.39.26,1.23,1.23,0,0,0,.46.1,1.2,1.2,0,0,0,.47-.1,1.31,1.31,0,0,0,.4-.26,2,2,0,0,0,.26-.39,1.39,1.39,0,0,0,.09-.46v-.64h3.49a1.59,1.59,0,0,1,.61.13,1.75,1.75,0,0,1,.51.34,1.58,1.58,0,0,1,.35.53,1.5,1.5,0,0,1,.12.6v2.59Zm-28.35.22H137.7v18.3a1.5,1.5,0,0,1-.12.6,1.41,1.41,0,0,1-.35.51,1.49,1.49,0,0,1-.51.36,1.78,1.78,0,0,1-.61.11h-25.4a1.75,1.75,0,0,1-.62-.11,1.49,1.49,0,0,1-.51-.36,1.3,1.3,0,0,1-.35-.51,1.5,1.5,0,0,1-.12-.6v-18.3Zm4.34,7.79v-3.8a.39.39,0,0,1,.1-.25.37.37,0,0,1,.24-.09h4a.33.33,0,0,1,.34.34v3.8a.31.31,0,0,1-.1.23.32.32,0,0,1-.24.11h-4a.37.37,0,0,1-.24-.09.39.39,0,0,1-.1-.25Zm.23-3.8v3.8a.09.09,0,0,0,0,.08s0,0,.07,0h4s.06,0,.07,0a.09.09,0,0,0,0-.08v-3.8s0-.06,0-.07,0,0-.07,0h-4s-.06,0-.07,0,0,0,0,.07Zm7.26,3.8v-3.8a.36.36,0,0,1,.11-.25.36.36,0,0,1,.23-.09h4a.34.34,0,0,1,.23.09.36.36,0,0,1,.11.25v3.8a.38.38,0,0,1-.34.34h-4a.3.3,0,0,1-.23-.11.28.28,0,0,1-.11-.23Zm.24-3.8v3.8a.19.19,0,0,0,0,.08.12.12,0,0,0,.08,0h4a.1.1,0,0,0,.07,0,.11.11,0,0,0,0-.08v-3.8s0-.06,0-.07a.09.09,0,0,0-.07,0h-4a.1.1,0,0,0-.08,0,.1.1,0,0,0,0,.07Zm7.6,5.87h4a.28.28,0,0,1,.23.09.3.3,0,0,1,.09.25v3.79a.28.28,0,0,1-.09.24.33.33,0,0,1-.23.1h-4a.31.31,0,0,1-.23-.1.29.29,0,0,1-.11-.24v-3.79a.38.38,0,0,1,.09-.25.34.34,0,0,1,.25-.09Zm4,.22h-4a.09.09,0,0,0-.08,0s0,0,0,.08v3.79a.11.11,0,0,0,0,.08.11.11,0,0,0,.08,0h4a.07.07,0,0,0,.06,0,.09.09,0,0,0,0-.08v-3.79s0-.07,0-.08a.06.06,0,0,0-.06,0Zm-11.51-.22h4a.27.27,0,0,1,.23.09.31.31,0,0,1,.11.25v3.79a.29.29,0,0,1-.11.24.31.31,0,0,1-.23.1h-4a.33.33,0,0,1-.23-.1.29.29,0,0,1-.11-.24v-3.79a.31.31,0,0,1,.11-.25.28.28,0,0,1,.23-.09Zm4,.22h-4a.1.1,0,0,0-.08,0,.13.13,0,0,0,0,.08v3.79a.19.19,0,0,0,0,.08.13.13,0,0,0,.08,0h4a.11.11,0,0,0,.07,0,.11.11,0,0,0,0-.08v-3.79s0-.07,0-.08a.09.09,0,0,0-.07,0Zm-11.5-.22h4a.3.3,0,0,1,.24.09.34.34,0,0,1,.1.25v3.79a.31.31,0,0,1-.1.24.35.35,0,0,1-.24.1h-4a.33.33,0,0,1-.24-.1.31.31,0,0,1-.1-.24v-3.79a.34.34,0,0,1,.1-.25.29.29,0,0,1,.24-.09Zm4,.22h-4s-.06,0-.07,0,0,0,0,.08v3.79a.09.09,0,0,0,0,.08s0,0,.07,0h4s.06,0,.07,0a.09.09,0,0,0,0-.08v-3.79s0-.07,0-.08,0,0-.07,0Zm11-6.43h4a.36.36,0,0,1,.23.09.34.34,0,0,1,.09.25v3.8a.27.27,0,0,1-.09.23.3.3,0,0,1-.23.11h-4a.36.36,0,0,1-.25-.11.34.34,0,0,1-.09-.23v-3.8a.31.31,0,0,1,.34-.34Zm4,.23h-4a.09.09,0,0,0-.08,0s0,0,0,.07v3.8a.08.08,0,0,0,.1.1h4s.05,0,.06,0a.09.09,0,0,0,0-.08v-3.8s0-.06,0-.07a.06.06,0,0,0-.06,0Z"/>
  <path class="cls-3" d="M443.89,257.53l-34.33-19a4.4,4.4,0,0,0-4.15,0l-34.33,19a4,4,0,0,0-2.08,3.52v37.86a4,4,0,0,0,2.08,3.52l34.33,19a4.36,4.36,0,0,0,4.15,0l15.85-8.78a2.11,2.11,0,0,0,0-3.69L391,290.22a1.88,1.88,0,0,1-1-1.62V271.36a1.87,1.87,0,0,1,.9-1.56l15.63-8.63a2,2,0,0,1,1-.26,1.76,1.76,0,0,1,.93.26l15.64,8.66a1.75,1.75,0,0,1,.93,1.53v14.07a1.73,1.73,0,0,0,.84,1.48,1.78,1.78,0,0,0,1.69,0l16.79-9.73a3.36,3.36,0,0,0,1.66-2.92V261.08a4.06,4.06,0,0,0-2.07-3.55Z"/>
  <path class="cls-3" d="M230.49,238.86l-34.32,19a4,4,0,0,0-2.08,3.44v38a3.94,3.94,0,0,0,2.08,3.44l34.32,19a4.5,4.5,0,0,0,4.16,0l34.32-19a4,4,0,0,0,2.08-3.44v-38a4,4,0,0,0-2.08-3.44l-34.32-19a4.42,4.42,0,0,0-4.16,0"/>
  <path class="cls-3" d="M407.14,274l-5.22,2.89a.57.57,0,0,0-.3.53v5.8a.55.55,0,0,0,.3.52l5.22,2.9a.76.76,0,0,0,.66,0l5.22-2.9a.57.57,0,0,0,.33-.52v-5.8a.6.6,0,0,0-.33-.53L407.8,274a.6.6,0,0,0-.33-.08.7.7,0,0,0-.33.08"/>
  <path class="cls-3" d="M360.26,198.57l-16.7-9.32a1.65,1.65,0,0,0-1.7,0,1.67,1.67,0,0,0-.84,1.45v56.36l-15.42-8.56a4.4,4.4,0,0,0-4.15,0l-34.33,19A4,4,0,0,0,285,261v38a3.94,3.94,0,0,0,2.08,3.44l34.33,19a4.54,4.54,0,0,0,4.15,0l34.33-19A4,4,0,0,0,362,299V201.56a3.46,3.46,0,0,0-1.75-3Zm-20.17,91.62-15.61,8.63a1.91,1.91,0,0,1-1.88,0L307,290.19a1.79,1.79,0,0,1-1-1.56V271.36a1.81,1.81,0,0,1,1-1.59l15.61-8.63h0a1.91,1.91,0,0,1,.95-.23,2.3,2.3,0,0,1,1,.23l15.58,8.63a1.83,1.83,0,0,1,1,1.59v17.27a1.79,1.79,0,0,1-.93,1.56Z"/>
  <path class="cls-3" d="M230.49,238.86l-36.4,60.46a3.94,3.94,0,0,0,2.08,3.44l34.32,19a4.5,4.5,0,0,0,4.16,0l36.4-60.48a4,4,0,0,0-2.08-3.44l-34.32-19a4.42,4.42,0,0,0-4.16,0"/>
  <path class="cls-3" d="M230.49,238.86l-34.32,19a4,4,0,0,0-2.08,3.44l36.4,60.48a4.5,4.5,0,0,0,4.16,0l34.32-19a4,4,0,0,0,2.08-3.44l-36.4-60.46a4.51,4.51,0,0,0-2.08-.52,4.15,4.15,0,0,0-2.08.52"/>
  <path class="cls-3" d="M519.26,245.19l-16.33,9a1.9,1.9,0,0,0-1,1.64V274a1.88,1.88,0,0,0,1,1.64l16.33,9.05a2.16,2.16,0,0,0,2,0l16.33-9.05a1.9,1.9,0,0,0,1-1.64V255.86a1.9,1.9,0,0,0-1-1.64l-16.33-9a2.09,2.09,0,0,0-2,0"/>
  <path class="cls-3" d="M519.26,245.19,501.94,274a1.88,1.88,0,0,0,1,1.64l16.33,9.05a2.16,2.16,0,0,0,2,0l17.32-28.78a1.9,1.9,0,0,0-1-1.64l-16.33-9a2.09,2.09,0,0,0-2,0"/>
  <path class="cls-3" d="M519.26,245.19l-16.33,9a1.9,1.9,0,0,0-1,1.64l17.32,28.78a2.16,2.16,0,0,0,2,0l16.33-9.05a1.9,1.9,0,0,0,1-1.64l-17.32-28.76a2.11,2.11,0,0,0-1-.25,2,2,0,0,0-1,.25"/>
  <path class="cls-3" d="M637.27,261.42l-2.74,1.52a.31.31,0,0,0-.16.28v3a.3.3,0,0,0,.16.27l2.74,1.52a.36.36,0,0,0,.35,0l2.73-1.52a.29.29,0,0,0,.17-.27v-3a.3.3,0,0,0-.17-.28l-2.73-1.52a.37.37,0,0,0-.18,0,.38.38,0,0,0-.17,0"/>
  <path class="cls-3" d="M654.91,254l-16.47-9.12a2.18,2.18,0,0,0-2,0L620,254a1.92,1.92,0,0,0-1,1.69v18.16a1.92,1.92,0,0,0,1,1.69l16.47,9.13a2.07,2.07,0,0,0,2,0l7.6-4.21a1,1,0,0,0,0-1.77l-16.52-9a.91.91,0,0,1-.46-.77v-8.28a.87.87,0,0,1,.43-.74l7.5-4.15a1,1,0,0,1,.46-.12.87.87,0,0,1,.45.12l7.5,4.16a.84.84,0,0,1,.45.73v6.75a.81.81,0,0,0,.4.71.86.86,0,0,0,.81,0l8.06-4.67a1.63,1.63,0,0,0,.8-1.4v-6.31a1.93,1.93,0,0,0-1-1.7Z"/>
  <path class="cls-3" d="M853.49,261.42l-2.73,1.52a.29.29,0,0,0-.16.28v3a.29.29,0,0,0,.16.27l2.73,1.52a.36.36,0,0,0,.35,0l2.74-1.52a.31.31,0,0,0,.17-.27v-3a.32.32,0,0,0-.17-.28l-2.74-1.52a.35.35,0,0,0-.17,0,.39.39,0,0,0-.18,0"/>
  <path class="cls-3" d="M871.13,254l-16.47-9.12a2.18,2.18,0,0,0-2,0L836.2,254a1.92,1.92,0,0,0-1,1.69v18.16a1.92,1.92,0,0,0,1,1.69l16.47,9.13a2.07,2.07,0,0,0,2,0l7.61-4.21a1,1,0,0,0,0-1.77l-16.53-9a.91.91,0,0,1-.46-.77v-8.28a.88.88,0,0,1,.44-.74l7.5-4.15a.93.93,0,0,1,.46-.12.86.86,0,0,1,.44.12l7.5,4.16a.82.82,0,0,1,.45.73v6.75a.82.82,0,0,0,.41.71.86.86,0,0,0,.81,0l8.05-4.67a1.61,1.61,0,0,0,.8-1.4v-6.31a1.93,1.93,0,0,0-1-1.7Z"/>
  <path class="cls-3" d="M711.29,261.42l-2.74,1.52a.3.3,0,0,0-.15.28v3a.29.29,0,0,0,.15.27l2.74,1.52a.36.36,0,0,0,.35,0l2.74-1.52a.31.31,0,0,0,.17-.27v-3a.32.32,0,0,0-.17-.28l-2.74-1.52a.35.35,0,0,0-.17,0,.39.39,0,0,0-.18,0"/>
  <path class="cls-3" d="M728.93,254l-16.47-9.12a2.18,2.18,0,0,0-2,0L694,254a1.92,1.92,0,0,0-1,1.69v18.16a1.92,1.92,0,0,0,1,1.69l16.47,9.13a2.07,2.07,0,0,0,2,0l7.61-4.21a1,1,0,0,0,0-1.77l-16.53-9a.91.91,0,0,1-.46-.77v-8.28a.88.88,0,0,1,.44-.74l7.5-4.15a.93.93,0,0,1,.46-.12.86.86,0,0,1,.44.12l7.5,4.16a.82.82,0,0,1,.45.73v6.75a.84.84,0,0,0,.4.71.88.88,0,0,0,.82,0l8-4.67a1.61,1.61,0,0,0,.8-1.4v-6.31a1.93,1.93,0,0,0-1-1.7Z"/>
  <path class="cls-3" d="M185,257.53l-34.32-19a4.42,4.42,0,0,0-4.16,0l-34.32,19a4,4,0,0,0-2.08,3.52v52.23a1.72,1.72,0,0,0,.85,1.48,1.7,1.7,0,0,0,1.69,0L129.45,305a3.37,3.37,0,0,0,1.67-2.93V271.36a1.79,1.79,0,0,1,.9-1.56l15.63-8.63a2,2,0,0,1,1.92,0l15.63,8.63a1.87,1.87,0,0,1,.9,1.56v30.71a3.37,3.37,0,0,0,1.67,2.93l16.78,9.76a1.7,1.7,0,0,0,1.69,0,1.72,1.72,0,0,0,.85-1.48v-52.2a4,4,0,0,0-2.08-3.55Z"/>
  <path class="cls-3" d="M584.59,254.81l-18-9.94a2.32,2.32,0,0,0-2.17,0l-18,9.94a2.12,2.12,0,0,0-1.09,1.84V284a.89.89,0,0,0,1.33.78l8.79-5.11a1.78,1.78,0,0,0,.87-1.53V262.05a1,1,0,0,1,.47-.82l8.18-4.52a1.06,1.06,0,0,1,1,0l8.18,4.52a1,1,0,0,1,.47.82v16.08a1.78,1.78,0,0,0,.87,1.53l8.79,5.11a.92.92,0,0,0,.88,0,.9.9,0,0,0,.45-.78V256.67a2.13,2.13,0,0,0-1.09-1.86Z"/>
  <path class="cls-3" d="M779.39,254.81l-18-9.94a2.15,2.15,0,0,0-1.09-.27,2.18,2.18,0,0,0-1.09.27l-18,9.94a2.1,2.1,0,0,0-1.09,1.84V284a.91.91,0,0,0,.44.78.94.94,0,0,0,.89,0l8.78-5.11a1.76,1.76,0,0,0,.88-1.53V262.05a.93.93,0,0,1,.47-.82l8.18-4.52a1,1,0,0,1,1,0l8.18,4.52a1,1,0,0,1,.48.82v16.08a1.78,1.78,0,0,0,.87,1.53l8.78,5.11a.94.94,0,0,0,.89,0,.91.91,0,0,0,.44-.78V256.67a2.12,2.12,0,0,0-1.08-1.86Z"/>
  <path class="cls-3" d="M465,245.69l-9.94,18a2.18,2.18,0,0,0-.27,1.09,2.15,2.15,0,0,0,.27,1.09l9.94,18a2.13,2.13,0,0,0,1.85,1.08h27.34a.91.91,0,0,0,.77-.44.89.89,0,0,0,0-.89l-5.11-8.78a1.76,1.76,0,0,0-1.53-.87H472.27a.93.93,0,0,1-.81-.47l-4.52-8.19a1,1,0,0,1,0-1l4.52-8.18a1,1,0,0,1,.81-.47h16.08a1.76,1.76,0,0,0,1.53-.87l5.11-8.79a.89.89,0,0,0,0-.89.91.91,0,0,0-.77-.44H466.89a2.12,2.12,0,0,0-1.86,1.09Z"/>
  <path class="cls-3" d="M801,245.69l-10,18a2.29,2.29,0,0,0-.27,1.09,2.26,2.26,0,0,0,.27,1.09l10,18a2.1,2.1,0,0,0,1.84,1.08h27.34a.89.89,0,0,0,.77-1.33l-5.11-8.78a1.76,1.76,0,0,0-1.53-.87H808.19a1,1,0,0,1-.82-.47l-4.52-8.19a1,1,0,0,1,0-1l4.52-8.18a1,1,0,0,1,.82-.47h16.07a1.76,1.76,0,0,0,1.53-.87l5.11-8.79a.89.89,0,0,0-.77-1.33H802.81a2.1,2.1,0,0,0-1.86,1.09Z"/>
  <path class="cls-3" d="M603.25,284.42a.92.92,0,0,1-1,.75l-8.78-4.85a1.65,1.65,0,0,1-.89-1.42V229.63a2.46,2.46,0,0,1,.87-2.28l17.06-9.47s1.42-.51,1.92.59v9.36a1.42,1.42,0,0,1-.93,1.39l-7.6,4.2a1.26,1.26,0,0,0-.59,1.12C603.26,235.35,603.25,284.42,603.25,284.42Z"/>
  <path class="cls-3" d="M603.26,247s.57,1.42,1.84,1.42h6.18a1.08,1.08,0,0,1,1.11,1.2v9.23s-.18.93-.93.93h-6.41a1.81,1.81,0,0,0-1.79,2h-4.83v-9.45Z"/>
  <path class="cls-3" d="M666.72,284.62l8-4.69s1.34-.38,1.34-2.81V262.7a1.67,1.67,0,0,1,.73-1.61l7.37-4.07a2.84,2.84,0,0,0,1.06-2.56v-8.83a1.08,1.08,0,0,0-1.59-.49l-17.25,9.55a2.85,2.85,0,0,0-1.3,2.33v26.79A1.05,1.05,0,0,0,666.72,284.62Z"/>
  <text class="cls-4" transform="translate(456.11 319.76)">ODE<tspan class="cls-5" x="100.19" y="0">S</tspan><tspan class="cls-6" x="131.48" y="0">S</tspan><tspan class="cls-7" x="162.21" y="0">A UKRAINE</tspan></text>
  <text class="cls-8" transform="translate(182.11 436.09)">1 <tspan class="cls-9" x="22" y="0">д</tspan><tspan x="40.52" y="0">ень </tspan><tspan class="cls-10" x="99.28" y="0">к</tspan><tspan x="114.66" y="0">онференции</tspan></text>
  <text class="cls-11" transform="translate(1206.92 274.65)">Sep<tspan class="cls-12" x="114.03" y="0">t</tspan><tspan x="145.12" y="0">ember 2</tspan><tspan class="cls-13" x="396.67" y="0">9</tspan><tspan class="cls-14" x="429.61" y="0">, </tspan><tspan class="cls-15" x="476.77" y="0">2</tspan><tspan class="cls-16" x="512.41" y="0">0</tspan><tspan x="552.91" y="0">18</tspan></text>
  <text class="cls-8" transform="translate(182.11 498.09)">2 пото<tspan class="cls-17" x="90.52" y="0">к</tspan><tspan class="cls-18" x="105.9" y="0">а </tspan><tspan class="cls-19" x="132.78" y="0">д</tspan><tspan x="151.3" y="0">окла</tspan><tspan class="cls-19" x="219.08" y="0">д</tspan><tspan x="237.6" y="0">ов</tspan></text>
  <text class="cls-8" transform="translate(182.11 560.09)">4 формата</text>
  <text class="cls-8" transform="translate(182.11 621.09)">О<tspan class="cls-19" x="20.04" y="0">д</tspan><tspan class="cls-18" x="38.56" y="0">есса, мор</tspan><tspan class="cls-20" x="178.9" y="0">е</tspan><tspan class="cls-18" x="195.22" y="0">, с</tspan><tspan class="cls-19" x="232.7" y="0">о</tspan><tspan x="249.42" y="0">лнце</tspan></text>
</svg>
