<svg xmlns="http://www.w3.org/2000/svg" viewBox="0 0 224.28 219.47">
  <defs>
    <style>
      .cls-1 {
        fill: none;
        stroke: #1e4920;
        stroke-linecap: round;
        stroke-linejoin: round;
        stroke-width: 6px;
      }
    </style>
  </defs>
  <title>Ресурс 1dinner_n</title>
  <g id="Слой_2" data-name="Слой 2">
    <g id="Слой_1-2" data-name="Слой 1">
      <path class="cls-1" d="M15,11,198,186s4,16.5-4.5,24-23.5,5.5-23.5,5.5l-77.5-83S74,137,70,136.5,11,77,11,77-9.47,40.5,15,11Z"/>
      <line class="cls-1" x1="7.25" y1="68.26" x2="17.78" y2="58.5"/>
      <line class="cls-1" x1="19.89" y1="86.42" x2="30.43" y2="76.66"/>
      <line class="cls-1" x1="34.89" y1="101.42" x2="45.43" y2="91.66"/>
      <line class="cls-1" x1="47.64" y1="113.37" x2="58.18" y2="103.61"/>
      <line class="cls-1" x1="62.54" y1="128.28" x2="73.08" y2="118.52"/>
      <path class="cls-1" d="M92.53,132.5s15.67-5,26.84-21.73"/>
      <line class="cls-1" x1="139.28" y1="152.75" x2="151.03" y2="164.25"/>
      <line class="cls-1" x1="160.78" y1="174" x2="184.28" y2="196.75"/>
      <path class="cls-1" d="M66.66,134.07,9.78,185.38s-6,12.86,5.75,24.37S39,214.5,39,214.5l66.2-68.4"/>
      <path class="cls-1" d="M106,97.94,129.28,79.5s-9-13.75-7.5-23.75S188.28,3,188.28,3l33,30.25s-32,64.5-41.75,69.25-23.75-3-28.5-7L128,119"/>
      <line class="cls-1" x1="157.53" y1="57.25" x2="201.18" y2="14.82"/>
      <line class="cls-1" x1="168.33" y1="68.05" x2="211.98" y2="25.62"/>
    </g>
  </g>
</svg>
