<svg xmlns="http://www.w3.org/2000/svg" viewBox="0 0 412.75 35.03"><g data-name="Слой 2"><g data-name="Слой 1" stroke="#000" stroke-miterlimit="10" stroke-width="4.25"><path d="M221 11.44l-8.83 4.89a1 1 0 0 0-.53.88V27a1 1 0 0 0 .53.88l8.83 4.89a1.13 1.13 0 0 0 1.07 0l8.83-4.89a1 1 0 0 0 .54-.88v-9.79a1 1 0 0 0-.54-.88l-8.83-4.89a1.07 1.07 0 0 0-.53-.13 1.13 1.13 0 0 0-.54.13" fill="none"/><path d="M69.42 2.12H2.12m151.77 0H86.6m252.63 0H173.64m24.41 19.99H32.46m378.16 0H245.03" stroke-linecap="round"/></g></g></svg>