<svg xmlns="http://www.w3.org/2000/svg" viewBox="0 0 1028.54 88.99"><g data-name="Слой 2"><g data-name="Слой 1" stroke="#000" stroke-miterlimit="10" stroke-width="4.77"><path d="M564.89 2.53L555 8a1.17 1.17 0 0 0-.6 1v11a1.13 1.13 0 0 0 .6 1l9.91 5.49a1.28 1.28 0 0 0 1.2 0L576 21a1.11 1.11 0 0 0 .6-1V9a1.13 1.13 0 0 0-.6-1l-9.9-5.48a1.27 1.27 0 0 0-1.2 0m157.99 60.01L713 68a1.17 1.17 0 0 0-.6 1v11a1.13 1.13 0 0 0 .6 1l9.91 5.49a1.28 1.28 0 0 0 1.2 0L734 81a1.11 1.11 0 0 0 .6-1V69a1.13 1.13 0 0 0-.6-1l-9.9-5.48a1.27 1.27 0 0 0-1.2 0M225.89 32.53L216 38a1.17 1.17 0 0 0-.6 1v11a1.13 1.13 0 0 0 .6 1l9.91 5.49a1.28 1.28 0 0 0 1.2 0L237 51a1.11 1.11 0 0 0 .6-1V39a1.13 1.13 0 0 0-.6-1l-9.9-5.48a1.28 1.28 0 0 0-1.2 0" fill="none"/><path d="M528.87 14.5h-75.49m-268.51 30h-75.49m-31.51 0H2.38m828.7-30H695.27m-27.56 0h-65.43m-69.12 30H262.28m432.88 30H424.28m601.88 0H755.28" stroke-linecap="round"/></g></g></svg>