<svg xmlns="http://www.w3.org/2000/svg" viewBox="0 0 252.01 53.35"><defs><style>.cls-2,.cls-3{fill:#fff}</style></defs><g id="Слой_2" data-name="Слой 2"><g id="Слой_1-2" data-name="Слой 1"><path d="M47 18.49l-12.76 7.05a1.48 1.48 0 0 0-.77 1.28v14.11a1.47 1.47 0 0 0 .77 1.28L47 49.27a1.67 1.67 0 0 0 1.54 0l12.74-7.06a1.47 1.47 0 0 0 .72-1.28V26.82a1.48 1.48 0 0 0-.77-1.28l-12.74-7a1.66 1.66 0 0 0-1.54 0" fill="none" stroke="#fff" stroke-miterlimit="10" stroke-width="2.62"/><path class="cls-2" d="M112.54 31.19l-2.12 1.18a.22.22 0 0 0-.12.21v2.36a.22.22 0 0 0 .12.21l2.12 1.18a.3.3 0 0 0 .26 0l2.12-1.18a.23.23 0 0 0 .13-.21v-2.36a.23.23 0 0 0-.13-.21l-2.12-1.18a.28.28 0 0 0-.13 0 .31.31 0 0 0-.13 0"/><path class="cls-3" d="M95.14 3.54L88.94.08a.6.6 0 0 0-.62 0 .62.62 0 0 0-.32.55v20.92l-5.72-3.18a1.66 1.66 0 0 0-1.54 0L68 25.42a1.48 1.48 0 0 0-.77 1.28v14.11a1.47 1.47 0 0 0 .77 1.28l12.74 7.06a1.67 1.67 0 0 0 1.54 0L95 42.09a1.48 1.48 0 0 0 .77-1.28V4.65a1.27 1.27 0 0 0-.65-1.11zm-7.48 34l-5.8 3.21a.73.73 0 0 1-.7 0l-5.79-3.21A.65.65 0 0 1 75 37v-6.4a.66.66 0 0 1 .35-.59l5.79-3.21a.76.76 0 0 1 .36-.08.85.85 0 0 1 .35.08l5.79 3.2a.66.66 0 0 1 .36.59V37a.66.66 0 0 1-.34.58z"/><path class="cls-2" d="M204 18.4l-2.46 1.36a.26.26 0 0 0-.15.25v2.72a.26.26 0 0 0 .15.25l2.46 1.36a.3.3 0 0 0 .29 0l2.44-1.34a.28.28 0 0 0 .15-.25V20a.28.28 0 0 0-.15-.25l-2.46-1.36a.24.24 0 0 0-.15 0 .23.23 0 0 0-.14 0"/><path class="cls-3" d="M126.18 25.42l-12.74-7a1.66 1.66 0 0 0-1.54 0l-12.74 7a1.49 1.49 0 0 0-.77 1.31v14.05a1.49 1.49 0 0 0 .77 1.31l12.74 7.06a1.62 1.62 0 0 0 1.54 0l5.88-3.26a.78.78 0 0 0 0-1.37l-12.78-7a.69.69 0 0 1-.35-.6v-6.36a.68.68 0 0 1 .33-.58l5.8-3.21a.8.8 0 0 1 .36-.09.67.67 0 0 1 .34.09l5.8 3.23a.64.64 0 0 1 .34.57v5.22a.62.62 0 0 0 .94.54l6.23-3.61a1.25 1.25 0 0 0 .62-1.09v-4.89a1.51 1.51 0 0 0-.77-1.32z"/><path class="cls-2" d="M239.11 25.9l-1.22.68a.12.12 0 0 0-.07.12v1.36a.14.14 0 0 0 .07.13l1.22.68a.22.22 0 0 0 .16 0l1.22-.68a.14.14 0 0 0 .08-.13V26.7a.13.13 0 0 0-.08-.12l-1.22-.68a.12.12 0 0 0-.08 0 .13.13 0 0 0-.08 0"/><path class="cls-2" d="M247 22.56l-7.37-4.09a1 1 0 0 0-.9 0l-7.37 4.09a.85.85 0 0 0-.45.75v8.14a.85.85 0 0 0 .45.75l7.37 4.09a1 1 0 0 0 .9 0l3.4-1.88a.46.46 0 0 0 0-.8l-7.4-4a.39.39 0 0 1-.21-.35v-3.7a.4.4 0 0 1 .2-.34l3.38-1.88a.42.42 0 0 1 .21-.06.36.36 0 0 1 .2.06l3.36 1.86a.37.37 0 0 1 .2.33v3a.38.38 0 0 0 .18.32.36.36 0 0 0 .36 0l3.61-2.09a.73.73 0 0 0 .36-.63v-2.81a.86.86 0 0 0-.45-.76z"/><path class="cls-3" d="M27.79 25.42l-12.74-7a1.66 1.66 0 0 0-1.54 0l-12.74 7A1.5 1.5 0 0 0 0 26.73v19.38a.63.63 0 0 0 .31.55.6.6 0 0 0 .63 0L7.17 43a1.24 1.24 0 0 0 .62-1V30.56a.66.66 0 0 1 .33-.56l5.81-3.21a.75.75 0 0 1 .71 0l5.8 3.21a.68.68 0 0 1 .33.58V42a1.26 1.26 0 0 0 .62 1l6.23 3.62a.6.6 0 0 0 .63 0 .63.63 0 0 0 .31-.55V26.74a1.51 1.51 0 0 0-.77-1.32zm129.04 3.86a.43.43 0 0 1 .21-.36l6.31-3.47a.79.79 0 0 0 .42-.67l.11-4.55a.39.39 0 0 0-.19-.34.38.38 0 0 0-.4 0l-9.63 5.89a1 1 0 0 0-.5.83"/><path class="cls-3" d="M153.27 29.23a.94.94 0 0 0 .45.84l9.34 6.41a.41.41 0 0 0 .4 0 .4.4 0 0 0 .2-.34l.11-4.55a.79.79 0 0 0-.38-.69l-6.13-3.77a.41.41 0 0 1-.2-.37m70.36-3.82l-8-4.46a1 1 0 0 0-.49-.12 1 1 0 0 0-.48.12l-8 4.46a.94.94 0 0 0-.49.82V36a.4.4 0 0 0 .6.35l3.93-2.29a.79.79 0 0 0 .39-.68v-7.2a.43.43 0 0 1 .21-.37l3.67-2a.45.45 0 0 1 .45 0l3.66 2a.44.44 0 0 1 .21.37v7.2a.79.79 0 0 0 .39.68l3.94 2.29a.39.39 0 0 0 .39 0 .4.4 0 0 0 .2-.35V23.77a.92.92 0 0 0-.49-.83zm-96.52 8.89l8 4.45a.92.92 0 0 0 .49.13.91.91 0 0 0 .48-.13l8.13-4.45a1 1 0 0 0 .48-.82V18.76a.39.39 0 0 0-.19-.34.41.41 0 0 0-.4 0l-3.93 2.29a.77.77 0 0 0-.39.68v7.2a.45.45 0 0 1-.22.37l-3.66 2a.45.45 0 0 1-.45 0l-3.66-2a.44.44 0 0 1-.21-.37v-7.2a.79.79 0 0 0-.39-.68L131 18.42a.41.41 0 0 0-.4 0 .39.39 0 0 0-.19.34V31a1 1 0 0 0 .48.83z"/><path class="cls-2" d="M152.86 10.81c-.41.2-.36.85-.36.85v22.06a.74.74 0 0 0 .4.64l3.93 2.17a.42.42 0 0 0 .47-.34V13.86a.58.58 0 0 0-.16-.49c-.2-.18-3.73-2.58-3.73-2.58a.75.75 0 0 0-.55.02zm16.2 25.47l3.61-2.09s.6-.17.6-1.26v-6.46a.74.74 0 0 1 .33-.72l3.29-1.82a1.28 1.28 0 0 0 .48-1.15v-4a.48.48 0 0 0-.71-.22l-7.73 4.27a1.29 1.29 0 0 0-.58 1.05v12a.47.47 0 0 0 .71.4zm27.29-13.68l-7.46-4.12a.87.87 0 0 0-.45-.12.89.89 0 0 0-.45.12l-7.46 4.12a.88.88 0 0 0-.45.77v8.23a.86.86 0 0 0 .45.76L188 36.5a1 1 0 0 0 .9 0l3.45-1.91a.46.46 0 0 0 0-.8l-7.48-4.08a.39.39 0 0 1-.21-.35v-3.75a.4.4 0 0 1 .2-.34l3.39-1.88a.54.54 0 0 1 .21-.05.46.46 0 0 1 .2.05l3.4 1.89a.35.35 0 0 1 .2.33v10.64a.37.37 0 0 0 .19.32.38.38 0 0 0 .37 0l3.64-2.11a.74.74 0 0 0 .37-.64V23.38a.91.91 0 0 0-.46-.78z"/><path class="cls-2" d="M188.44 31.67l.23-.05c.23-.05 3.47-2 3.47-2a.28.28 0 0 0 .1-.2l1.3 1-.54 2.5-.44 1.58-1.37-.25z"/><path class="cls-3" d="M201.44 33.55a1 1 0 0 0 .43.69l4.2 2.37s.51.09.51-.37v-8.12a.76.76 0 0 0-.39-.63l-4.06-2.61a.59.59 0 0 0-.69.61z"/><text transform="translate(129.31 49.73)" font-size="13.81" font-family="Stolzl-Book,Stolzl" letter-spacing=".45em" fill="#fff">KYIV <tspan x="66.37" y="0" letter-spacing=".44em">2</tspan><tspan x="80.94" y="0" letter-spacing=".46em">0</tspan><tspan x="96.71" y="0">19</tspan></text></g></g></svg>