<svg xmlns="http://www.w3.org/2000/svg" viewBox="0 0 1213.27 443.86"><defs><style>.cls-2{fill:none;stroke:#000;stroke-miterlimit:10;stroke-width:4.77px}</style></defs><g id="Слой_2" data-name="Слой 2"><g id="Слой_1-2" data-name="Слой 1"><path d="M197.89 239.94l-8.83 4.89a1 1 0 0 0-.53.89v9.78a1 1 0 0 0 .53.88l8.83 4.9a1.19 1.19 0 0 0 1.07 0l8.83-4.9a1 1 0 0 0 .54-.88v-9.78a1 1 0 0 0-.54-.89l-8.79-4.89a1.07 1.07 0 0 0-.53-.13 1.13 1.13 0 0 0-.54.13" stroke-width="4.25" stroke-miterlimit="10" stroke="#000" fill="none"/><path class="cls-2" d="M216.35 162.72l-9.91 5.48a1.17 1.17 0 0 0-.6 1v11a1.13 1.13 0 0 0 .6 1l9.91 5.49a1.27 1.27 0 0 0 1.2 0l9.91-5.49a1.16 1.16 0 0 0 .6-1v-11a1.17 1.17 0 0 0-.6-1l-9.91-5.48a1.27 1.27 0 0 0-1.2 0M205.24 2.53L195.34 8a1.15 1.15 0 0 0-.6 1v11a1.13 1.13 0 0 0 .6 1l9.9 5.49a1.27 1.27 0 0 0 1.2 0l9.91-5.49a1.15 1.15 0 0 0 .6-1V9a1.17 1.17 0 0 0-.6-1l-9.91-5.48a1.21 1.21 0 0 0-.6-.15 1.27 1.27 0 0 0-.6.15m-47.8 400.07l-9.91 5.48a1.17 1.17 0 0 0-.6 1v11a1.13 1.13 0 0 0 .6 1l9.91 5.49a1.26 1.26 0 0 0 1.19 0l9.91-5.49a1.16 1.16 0 0 0 .6-1v-11a1.17 1.17 0 0 0-.6-1l-9.91-5.48a1.26 1.26 0 0 0-1.19 0m312.18 0l-9.91 5.48a1.17 1.17 0 0 0-.6 1v11a1.13 1.13 0 0 0 .6 1l9.91 5.49a1.26 1.26 0 0 0 1.19 0l9.91-5.49a1.16 1.16 0 0 0 .6-1v-11a1.17 1.17 0 0 0-.6-1l-9.91-5.48a1.26 1.26 0 0 0-1.19 0m384-187l-9.91 5.48a1.17 1.17 0 0 0-.6 1v11a1.13 1.13 0 0 0 .6 1l9.91 5.49a1.26 1.26 0 0 0 1.19 0l9.91-5.49a1.16 1.16 0 0 0 .6-1v-11a1.17 1.17 0 0 0-.6-1l-9.91-5.48a1.26 1.26 0 0 0-1.19 0m148 0l-9.91 5.48a1.17 1.17 0 0 0-.6 1v11a1.13 1.13 0 0 0 .6 1l9.91 5.49a1.26 1.26 0 0 0 1.19 0l9.91-5.49a1.16 1.16 0 0 0 .6-1v-11a1.17 1.17 0 0 0-.6-1l-9.91-5.48a1.26 1.26 0 0 0-1.19 0m-681.74-94.43h-26.35v52.96h26.35v26.91h27.18v27.18h-79.87v25.95h25.78v27.29h186.91v-27.29h80.46v-26.23H426.92v-26.62h26.06v-27.47h26.9v-26.62H320.15l-.27-26.06zm160.28-27.63h-26.9v27.63H425.8l.14-27.63h-26.2v27.63H372.8V93.53l-79.55 1.15V68.24h26.9V40.61h26.07V14.5h79.86v26.11h26.9v27.22h27.18v25.7zM293.07 308.26v79.58h26.9v-52.87h26.15v-26.71h-53.05zm26.52 79.58h53.43v26.71h-53.43zm26.53-52.87v25.97h214.22v-25.97h-80.09v-27.09H374.33l-.19 26.95-28.02.14zm-106.67-80.81h26.95v26.95h-26.95z"/><path class="cls-2" d="M265.93 281.12h27.14v27.14h-27.14z"/><path d="M479.88 281.45v26.43H374.33l-.19 26.95-28.02.14v-26.71h-53.05v-27.14l186.81.33zm-159.91 53.52h26.15v26.15h-26.15zm-28.41-213.81H264.3V94.17l108.5-.64v27.63h26.04V93.53h27.73v27.63h26.33V93.53h27.17v53.69H318.45l-.28-26.06h-26.61z" stroke="#4caf50" fill="#4caf50" stroke-miterlimit="10" stroke-width="4.77"/><path d="M239.45 67.83h27.09v27.09h-27.09zm-27.18-27.09h27.09v27.09h-27.09zm0 54.18h27.09v27.09h-27.09zm27.09 26.24h27.18v27.18h-27.18z" fill="#4caf50"/><path d="M319.87 201.03H2.38M382.18 14.5H231.64m-54.34 0h-75.27m374.02 26.19h-32.36m78.41 0h-32.37M319.87 174.68h-75.94m75.94 52.91H101.02m218.85 186.96H184.06m253.29 0h-93.29m232.54 0h-75.49m-370.61 0H65.07m797.74 0H726.99m475.39 26.93H829.07m-155.64-26.93h-65.42m355.59-187h-75.49m322.77 35H971.11m-150.23-35H550.01m-360.94-52.87H40.27" fill="#fff" stroke-linecap="round" stroke-miterlimit="10" stroke-width="4.77" stroke="#000"/><path fill="#fff" stroke-linecap="round" stroke-width="4.25" stroke-miterlimit="10" stroke="#000" d="M174.16 250.61H41.51"/></g></g></svg>