<svg xmlns="http://www.w3.org/2000/svg" viewBox="0 0 265 62">
  <defs>
    <style>
      .cls-1 {
        fill: #4caf50;
      }

      .cls-2 {
        fill: #000;
      }
    </style>
  </defs>
  <title>Ресурс 9Submit a talk</title>
  <g id="Слой_2" data-name="Слой 2">
    <g id="Слой_1-2" data-name="Слой 1">
      <g>
        <rect class="cls-1" x="12.51" y="11.42" width="239.39" height="39.16"/>
        <rect class="cls-1" x="25.01" width="214.38" height="62"/>
        <rect class="cls-1" y="22.03" width="25.61" height="17.54"/>
        <rect class="cls-1" x="239.39" y="22.03" width="25.61" height="17.54"/>
      </g>
      <g>
        <path class="cls-2" d="M36.05,45.05V43.53H34.53V39h4.56v1.52h4.56V32.88h-7.6V31.36H34.53V19.19h1.52V17.67H46.7v1.52h1.52v4.56H43.65V22.23H39.09v6.09H46.7v1.52h1.52V43.53H46.7v1.52Z"/>
        <path class="cls-2" d="M52,45.05V43.53H50.44V17.67H55V40.49h4.56V17.67h4.57V43.53H62.61v1.52Z"/>
        <path class="cls-2" d="M66.35,45.05V17.67H78.52v1.52H80v9.13H78.52v1.52H80V43.53H78.52v1.52Zm9.12-16.73V22.23H70.91v6.09Zm0,12.17V32.88H70.91v7.61Z"/>
        <path class="cls-2" d="M82.26,45.05V17.67h4.56v3h1.52v3h1.52v3h1.52v3.05H92.9V26.79h1.52v-3H96v-3h1.52v-3H102V45.05H97.47V31.36H96v3H94.42v3H89.86v-3H88.34v-3H86.82V45.05Z"/>
        <path class="cls-2" d="M104.26,45.05V17.67h4.56V45.05Z"/>
        <path class="cls-2" d="M117.13,45.05V22.23H111V17.67h16.73v4.56h-6.08V45.05Z"/>
        <path class="cls-2" d="M136.79,45.05V26.79h1.52v-3h1.52v-3h1.52v-3h4.57v3h1.52v3H149v3h1.52V45.05h-4.56v-7.6h-4.57v7.6Zm9.13-12.17V26.79h-1.53V25.27h-1.52v1.52h-1.52v6.09Z"/>
        <path class="cls-2" d="M165.57,45.05V22.23h-6.09V17.67h16.73v4.56h-6.08V45.05Z"/>
        <path class="cls-2" d="M178.44,45.05V26.79H180v-3h1.53v-3H183v-3h4.56v3h1.52v3h1.52v3h1.52V45.05h-4.56v-7.6H183v7.6Zm9.13-12.17V26.79h-1.52V25.27h-1.52v1.52H183v6.09Z"/>
        <path class="cls-2" d="M194.35,45.05V17.67h4.57V40.49H208v4.56Z"/>
        <path class="cls-2" d="M210.26,45.05V17.67h4.57V28.32h4.56V17.67H224V28.32h-1.52v3H224V45.05h-4.56V32.88h-4.56V45.05Z"/>
      </g>
    </g>
  </g>
</svg>
