<svg xmlns="http://www.w3.org/2000/svg" viewBox="0 0 265 62"><defs><style>.cls-1{fill:#4caf50}</style></defs><g id="Слой_2" data-name="Слой 2"><g id="Слой_1-2" data-name="Слой 1"><path class="cls-1" d="M12.51 11.42H251.9v39.16H12.51z"/><path class="cls-1" d="M25.01 0h214.38v62H25.01z"/><path class="cls-1" d="M0 22.03h25.61v17.54H0zm239.39 0H265v17.54h-25.61z"/><path d="M36.05 45.05v-1.52h-1.52V39h4.56v1.52h4.56v-7.64h-7.6v-1.52h-1.52V19.19h1.52v-1.52H46.7v1.52h1.52v4.56h-4.57v-1.52h-4.56v6.09h7.61v1.52h1.52v13.69H46.7v1.52zm15.95 0v-1.52h-1.56V17.67H55v22.82h4.56V17.67h4.57v25.86h-1.52v1.52zm14.35 0V17.67h12.17v1.52H80v9.13h-1.48v1.52H80v13.69h-1.48v1.52zm9.12-16.73v-6.09h-4.56v6.09zm0 12.17v-7.61h-4.56v7.61zm6.79 4.56V17.67h4.56v3h1.52v3h1.52v3h1.52v3.05h1.52v-2.93h1.52v-3H96v-3h1.52v-3H102v27.26h-4.53V31.36H96v3h-1.58v3h-4.56v-3h-1.52v-3h-1.52v13.69zm22 0V17.67h4.56v27.38zm12.87 0V22.23H111v-4.56h16.73v4.56h-6.08v22.82zm19.66 0V26.79h1.52v-3h1.52v-3h1.52v-3h4.57v3h1.52v3H149v3h1.52v18.26h-4.56v-7.6h-4.57v7.6zm9.13-12.17v-6.09h-1.53v-1.52h-1.52v1.52h-1.52v6.09zm19.65 12.17V22.23h-6.09v-4.56h16.73v4.56h-6.08v22.82zm12.87 0V26.79H180v-3h1.53v-3H183v-3h4.56v3h1.52v3h1.52v3h1.52v18.26h-4.56v-7.6H183v7.6zm9.13-12.17v-6.09h-1.52v-1.52h-1.52v1.52H183v6.09zm6.78 12.17V17.67h4.57v22.82H208v4.56zm15.91 0V17.67h4.57v10.65h4.56V17.67H224v10.65h-1.52v3H224v13.73h-4.56V32.88h-4.56v12.17z"/></g></g></svg>